STARTFONT 2.1
FONT Jming16
SIZE 16 78 78
FONTBOUNDINGBOX 16 16 0 -2
STARTPROPERTIES 4
FONT_ASCENT 14
FONT_DESCENT 2
DEFAULT_CHAR 32
COPYRIGHT "Public Domain Font. Share and Enjoy."
ENDPROPERTIES
CHARS 7802
STARTCHAR a1a1
ENCODING 41377
SWIDTH 256 0
DWIDTH 16 0
BBX 16 16 0 -2
BITMAP
0000
0000
0000
0000
0000
0000
0000
0000
0000
0000
0000
0000
0000
0000
0000
0000
ENDCHAR
STARTCHAR a1a2
ENCODING 41378
SWIDTH 256 0
DWIDTH 16 0
BBX 16 16 0 -2
BITMAP
0000
0000
0000
0000
0000
0000
0000
0000
0000
0000
0000
0000
2000
1000
0800
0400
ENDCHAR
STARTCHAR a1a3
ENCODING 41379
SWIDTH 256 0
DWIDTH 16 0
BBX 16 16 0 -2
BITMAP
0000
0000
0000
0000
0000
0000
0000
0000
0000
0000
0000
1c00
2200
2200
2200
1c00
ENDCHAR
STARTCHAR a1a4
ENCODING 41380
SWIDTH 256 0
DWIDTH 16 0
BBX 16 16 0 -2
BITMAP
0000
0000
0000
0000
0000
0000
0000
0000
0000
0000
0000
2000
7000
3000
1000
6000
ENDCHAR
STARTCHAR a1a5
ENCODING 41381
SWIDTH 256 0
DWIDTH 16 0
BBX 16 16 0 -2
BITMAP
0000
0000
0000
0000
0000
0000
0000
0000
0000
0000
0000
0000
1800
3c00
3c00
1800
ENDCHAR
STARTCHAR a1a6
ENCODING 41382
SWIDTH 256 0
DWIDTH 16 0
BBX 16 16 0 -2
BITMAP
0000
0000
0000
0000
0000
0000
0000
0180
03c0
03c0
0180
0000
0000
0000
0000
0000
ENDCHAR
STARTCHAR a1a7
ENCODING 41383
SWIDTH 256 0
DWIDTH 16 0
BBX 16 16 0 -2
BITMAP
0000
0000
0000
0000
0080
01c0
0080
0000
0000
0000
0000
0080
01c0
0080
0000
0000
ENDCHAR
STARTCHAR a1a8
ENCODING 41384
SWIDTH 256 0
DWIDTH 16 0
BBX 16 16 0 -2
BITMAP
0000
0000
0000
0000
0080
01c0
0080
0000
0000
0000
0000
0080
01c0
00c0
0040
0080
ENDCHAR
STARTCHAR a1a9
ENCODING 41385
SWIDTH 256 0
DWIDTH 16 0
BBX 16 16 0 -2
BITMAP
0000
03e0
0410
0808
0808
0808
0030
0040
0080
0080
0080
0000
0080
01c0
0080
0000
ENDCHAR
STARTCHAR a1aa
ENCODING 41386
SWIDTH 256 0
DWIDTH 16 0
BBX 16 16 0 -2
BITMAP
0000
0100
0100
0100
0100
0100
0100
0100
0100
0100
0100
0000
0000
0180
0180
0000
ENDCHAR
STARTCHAR a1ab
ENCODING 41387
SWIDTH 256 0
DWIDTH 16 0
BBX 16 16 0 -2
BITMAP
2400
1200
0900
0000
0000
0000
0000
0000
0000
0000
0000
0000
0000
0000
0000
0000
ENDCHAR
STARTCHAR a1ac
ENCODING 41388
SWIDTH 256 0
DWIDTH 16 0
BBX 16 16 0 -2
BITMAP
1800
2400
2400
1800
0000
0000
0000
0000
0000
0000
0000
0000
0000
0000
0000
0000
ENDCHAR
STARTCHAR a1ad
ENCODING 41389
SWIDTH 256 0
DWIDTH 16 0
BBX 16 16 0 -2
BITMAP
0040
0080
0100
0000
0000
0000
0000
0000
0000
0000
0000
0000
0000
0000
0000
0000
ENDCHAR
STARTCHAR a1ae
ENCODING 41390
SWIDTH 256 0
DWIDTH 16 0
BBX 16 16 0 -2
BITMAP
0100
0080
0040
0000
0000
0000
0000
0000
0000
0000
0000
0000
0000
0000
0000
0000
ENDCHAR
STARTCHAR a1af
ENCODING 41391
SWIDTH 256 0
DWIDTH 16 0
BBX 16 16 0 -2
BITMAP
0c18
0c18
0000
0000
0000
0000
0000
0000
0000
0000
0000
0000
0000
0000
0000
0000
ENDCHAR
STARTCHAR a1b0
ENCODING 41392
SWIDTH 256 0
DWIDTH 16 0
BBX 16 16 0 -2
BITMAP
01c0
0220
0410
0000
0000
0000
0000
0000
0000
0000
0000
0000
0000
0000
0000
0000
ENDCHAR
STARTCHAR a1b1
ENCODING 41393
SWIDTH 256 0
DWIDTH 16 0
BBX 16 16 0 -2
BITMAP
1ffc
0000
0000
0000
0000
0000
0000
0000
0000
0000
0000
0000
0000
0000
0000
0000
ENDCHAR
STARTCHAR a1b2
ENCODING 41394
SWIDTH 256 0
DWIDTH 16 0
BBX 16 16 0 -2
BITMAP
0000
0000
0000
0000
0000
0000
0000
0000
0000
0000
0000
0000
0000
0000
0000
1ffc
ENDCHAR
STARTCHAR a1b3
ENCODING 41395
SWIDTH 256 0
DWIDTH 16 0
BBX 16 16 0 -2
BITMAP
0000
0000
0000
0000
0c00
0300
0080
0040
0020
0020
0010
0010
0000
0000
0000
0000
ENDCHAR
STARTCHAR a1b4
ENCODING 41396
SWIDTH 256 0
DWIDTH 16 0
BBX 16 16 0 -2
BITMAP
0000
0010
0008
0040
0c20
0300
0080
0040
0020
0020
0010
0010
0000
0000
0000
0000
ENDCHAR
STARTCHAR a1b5
ENCODING 41397
SWIDTH 256 0
DWIDTH 16 0
BBX 16 16 0 -2
BITMAP
0000
0000
0000
0000
0c00
0300
0080
0040
0020
0020
0010
00f0
0000
0000
0000
0000
ENDCHAR
STARTCHAR a1b6
ENCODING 41398
SWIDTH 256 0
DWIDTH 16 0
BBX 16 16 0 -2
BITMAP
0000
0010
0008
0040
0c20
0300
0080
0040
0020
0020
0010
00f0
0000
0000
0000
0000
ENDCHAR
STARTCHAR a1b7
ENCODING 41399
SWIDTH 256 0
DWIDTH 16 0
BBX 16 16 0 -2
BITMAP
0000
0000
0000
0000
0220
0220
0220
0220
0220
0440
0440
0880
0000
0000
0000
0000
ENDCHAR
STARTCHAR a1b8
ENCODING 41400
SWIDTH 256 0
DWIDTH 16 0
BBX 16 16 0 -2
BITMAP
0000
0080
0140
0220
0410
0808
3006
0000
0ff8
0080
0080
0080
0080
0080
3ffe
0000
ENDCHAR
STARTCHAR a1b9
ENCODING 41401
SWIDTH 256 0
DWIDTH 16 0
BBX 16 16 0 -2
BITMAP
0000
0200
0200
03fc
0204
0404
0408
0808
1010
2110
00a0
0040
0020
0010
0010
0000
ENDCHAR
STARTCHAR a1ba
ENCODING 41402
SWIDTH 256 0
DWIDTH 16 0
BBX 16 16 0 -2
BITMAP
0000
0004
0008
0010
0010
0120
00a0
0040
0040
00a0
0090
0100
0900
0a00
0400
0000
ENDCHAR
STARTCHAR a1bb
ENCODING 41403
SWIDTH 256 0
DWIDTH 16 0
BBX 16 16 0 -2
BITMAP
0000
0000
0000
03e0
0c18
1004
2002
2002
2002
2002
1004
0c18
03e0
0000
0000
0000
ENDCHAR
STARTCHAR a1bc
ENCODING 41404
SWIDTH 256 0
DWIDTH 16 0
BBX 16 16 0 -2
BITMAP
0000
0000
0000
0000
0000
0000
207e
1f80
0000
0000
0000
0000
0000
0000
0000
0000
ENDCHAR
STARTCHAR a1bd
ENCODING 41405
SWIDTH 256 0
DWIDTH 16 0
BBX 16 16 0 -2
BITMAP
0000
0000
0000
0000
0000
0000
0000
3ffe
0000
0000
0000
0000
0000
0000
0000
0000
ENDCHAR
STARTCHAR a1be
ENCODING 41406
SWIDTH 256 0
DWIDTH 16 0
BBX 16 16 0 -2
BITMAP
0000
0000
0000
0000
0000
0000
0000
3f00
0000
0000
0000
0000
0000
0000
0000
0000
ENDCHAR
STARTCHAR a1bf
ENCODING 41407
SWIDTH 256 0
DWIDTH 16 0
BBX 16 16 0 -2
BITMAP
0000
0001
0002
0004
0008
0010
0020
0040
0080
0100
0200
0400
0800
1000
2000
4000
ENDCHAR
STARTCHAR a1c0
ENCODING 41408
SWIDTH 256 0
DWIDTH 16 0
BBX 16 16 0 -2
BITMAP
0000
4000
2000
1000
0800
0400
0200
0100
0080
0040
0020
0010
0008
0004
0002
0001
ENDCHAR
STARTCHAR a1c1
ENCODING 41409
SWIDTH 256 0
DWIDTH 16 0
BBX 16 16 0 -2
BITMAP
0000
0000
0000
0000
0000
0000
0f01
1082
207c
0000
0000
0000
0000
0000
0000
0000
ENDCHAR
STARTCHAR a1c2
ENCODING 41410
SWIDTH 256 0
DWIDTH 16 0
BBX 16 16 0 -2
BITMAP
0000
0240
0240
0240
0240
0240
0240
0240
0240
0240
0240
0240
0240
0240
0240
0000
ENDCHAR
STARTCHAR a1c3
ENCODING 41411
SWIDTH 256 0
DWIDTH 16 0
BBX 16 16 0 -2
BITMAP
0000
0080
0080
0080
0080
0080
0080
0080
0080
0080
0080
0080
0080
0080
0080
0000
ENDCHAR
STARTCHAR a1c4
ENCODING 41412
SWIDTH 256 0
DWIDTH 16 0
BBX 16 16 0 -2
BITMAP
0000
0000
0000
0000
0000
0000
0000
318c
318c
0000
0000
0000
0000
0000
0000
0000
ENDCHAR
STARTCHAR a1c5
ENCODING 41413
SWIDTH 256 0
DWIDTH 16 0
BBX 16 16 0 -2
BITMAP
0000
0000
0000
0000
0000
0000
0000
1818
1818
0000
0000
0000
0000
0000
0000
0000
ENDCHAR
STARTCHAR a1c6
ENCODING 41414
SWIDTH 256 0
DWIDTH 16 0
BBX 16 16 0 -2
BITMAP
0004
0008
000c
000e
0004
0000
0000
0000
0000
0000
0000
0000
0000
0000
0000
0000
ENDCHAR
STARTCHAR a1c7
ENCODING 41415
SWIDTH 256 0
DWIDTH 16 0
BBX 16 16 0 -2
BITMAP
0000
2000
7000
3000
1000
2000
0000
0000
0000
0000
0000
0000
0000
0000
0000
0000
ENDCHAR
STARTCHAR a1c8
ENCODING 41416
SWIDTH 256 0
DWIDTH 16 0
BBX 16 16 0 -2
BITMAP
0044
0088
00cc
00ee
0044
0000
0000
0000
0000
0000
0000
0000
0000
0000
0000
0000
ENDCHAR
STARTCHAR a1c9
ENCODING 41417
SWIDTH 256 0
DWIDTH 16 0
BBX 16 16 0 -2
BITMAP
2200
7700
3300
1100
2200
0000
0000
0000
0000
0000
0000
0000
0000
0000
0000
0000
ENDCHAR
STARTCHAR a1ca
ENCODING 41418
SWIDTH 256 0
DWIDTH 16 0
BBX 16 16 0 -2
BITMAP
0008
0010
0020
0040
0040
0080
0080
0080
0080
0080
0080
0040
0040
0020
0010
0008
ENDCHAR
STARTCHAR a1cb
ENCODING 41419
SWIDTH 256 0
DWIDTH 16 0
BBX 16 16 0 -2
BITMAP
1000
0800
0400
0200
0200
0100
0100
0100
0100
0100
0100
0200
0200
0400
0800
1000
ENDCHAR
STARTCHAR a1cc
ENCODING 41420
SWIDTH 256 0
DWIDTH 16 0
BBX 16 16 0 -2
BITMAP
0004
0008
0010
0020
0020
0020
0020
0020
0020
0020
0020
0020
0020
0010
0008
0004
ENDCHAR
STARTCHAR a1cd
ENCODING 41421
SWIDTH 256 0
DWIDTH 16 0
BBX 16 16 0 -2
BITMAP
2000
1000
0800
0400
0400
0400
0400
0400
0400
0400
0400
0400
0400
0800
1000
2000
ENDCHAR
STARTCHAR a1ce
ENCODING 41422
SWIDTH 256 0
DWIDTH 16 0
BBX 16 16 0 -2
BITMAP
0078
0040
0040
0040
0040
0040
0040
0040
0040
0040
0040
0040
0040
0040
0040
0078
ENDCHAR
STARTCHAR a1cf
ENCODING 41423
SWIDTH 256 0
DWIDTH 16 0
BBX 16 16 0 -2
BITMAP
1e00
0200
0200
0200
0200
0200
0200
0200
0200
0200
0200
0200
0200
0200
0200
1e00
ENDCHAR
STARTCHAR a1d0
ENCODING 41424
SWIDTH 256 0
DWIDTH 16 0
BBX 16 16 0 -2
BITMAP
0018
0020
0040
0040
0040
0040
0040
0080
0080
0040
0040
0040
0040
0040
0020
0018
ENDCHAR
STARTCHAR a1d1
ENCODING 41425
SWIDTH 256 0
DWIDTH 16 0
BBX 16 16 0 -2
BITMAP
1800
0400
0200
0200
0200
0200
0200
0100
0100
0200
0200
0200
0200
0200
0400
1800
ENDCHAR
STARTCHAR a1d2
ENCODING 41426
SWIDTH 256 0
DWIDTH 16 0
BBX 16 16 0 -2
BITMAP
0008
0010
0010
0020
0040
0040
0080
0100
0100
0080
0040
0040
0020
0010
0010
0008
ENDCHAR
STARTCHAR a1d3
ENCODING 41427
SWIDTH 256 0
DWIDTH 16 0
BBX 16 16 0 -2
BITMAP
1000
0800
0800
0400
0200
0200
0100
0080
0080
0100
0200
0200
0400
0800
0800
1000
ENDCHAR
STARTCHAR a1d4
ENCODING 41428
SWIDTH 256 0
DWIDTH 16 0
BBX 16 16 0 -2
BITMAP
0048
0090
0090
0120
0240
0240
0480
0900
0900
0480
0240
0240
0120
0090
0090
0048
ENDCHAR
STARTCHAR a1d5
ENCODING 41429
SWIDTH 256 0
DWIDTH 16 0
BBX 16 16 0 -2
BITMAP
1200
0900
0900
0480
0240
0240
0120
0090
0090
0120
0240
0240
0480
0900
0900
1200
ENDCHAR
STARTCHAR a1d6
ENCODING 41430
SWIDTH 256 0
DWIDTH 16 0
BBX 16 16 0 -2
BITMAP
00f8
0080
0080
0080
0080
0080
0080
0080
0080
0080
0080
0080
0080
0080
0080
0080
ENDCHAR
STARTCHAR a1d7
ENCODING 41431
SWIDTH 256 0
DWIDTH 16 0
BBX 16 16 0 -2
BITMAP
0100
0100
0100
0100
0100
0100
0100
0100
0100
0100
0100
0100
0100
0100
0100
1f00
ENDCHAR
STARTCHAR a1d8
ENCODING 41432
SWIDTH 256 0
DWIDTH 16 0
BBX 16 16 0 -2
BITMAP
01f8
0108
0178
0140
0140
0140
0140
0140
0140
0140
0140
0140
0140
0140
0140
01c0
ENDCHAR
STARTCHAR a1d9
ENCODING 41433
SWIDTH 256 0
DWIDTH 16 0
BBX 16 16 0 -2
BITMAP
0380
0280
0280
0280
0280
0280
0280
0280
0280
0280
0280
0280
0280
1e80
1080
1f80
ENDCHAR
STARTCHAR a1da
ENCODING 41434
SWIDTH 256 0
DWIDTH 16 0
BBX 16 16 0 -2
BITMAP
01f8
01f0
01e0
01c0
01c0
0180
0180
0180
0180
0180
0180
01c0
01c0
01e0
01f0
01f8
ENDCHAR
STARTCHAR a1db
ENCODING 41435
SWIDTH 256 0
DWIDTH 16 0
BBX 16 16 0 -2
BITMAP
1f80
0f80
0780
0380
0380
0180
0180
0180
0180
0180
0180
0380
0380
0780
0f80
1f80
ENDCHAR
STARTCHAR a1dc
ENCODING 41436
SWIDTH 256 0
DWIDTH 16 0
BBX 16 16 0 -2
BITMAP
0000
0000
0080
0080
0080
0080
0080
1ffc
0080
0080
0080
0080
0080
0080
0000
0000
ENDCHAR
STARTCHAR a1dd
ENCODING 41437
SWIDTH 256 0
DWIDTH 16 0
BBX 16 16 0 -2
BITMAP
0000
0000
0000
0000
0000
0000
0000
1ffc
0000
0000
0000
0000
0000
0000
0000
0000
ENDCHAR
STARTCHAR a1de
ENCODING 41438
SWIDTH 256 0
DWIDTH 16 0
BBX 16 16 0 -2
BITMAP
0000
0000
0080
0080
0080
0080
1ffc
0080
0080
0080
0080
0000
0000
1ffc
0000
0000
ENDCHAR
STARTCHAR a1df
ENCODING 41439
SWIDTH 256 0
DWIDTH 16 0
BBX 16 16 0 -2
BITMAP
0000
0000
1004
0808
0410
0220
0140
0080
0080
0140
0220
0410
0808
1004
0000
0000
ENDCHAR
STARTCHAR a1e0
ENCODING 41440
SWIDTH 256 0
DWIDTH 16 0
BBX 16 16 0 -2
BITMAP
0000
0000
0080
01c0
0080
0000
0000
1ffc
0000
0000
0080
01c0
0080
0000
0000
0000
ENDCHAR
STARTCHAR a1e1
ENCODING 41441
SWIDTH 256 0
DWIDTH 16 0
BBX 16 16 0 -2
BITMAP
0000
0000
0000
0000
0000
0000
1ffc
0000
0000
1ffc
0000
0000
0000
0000
0000
0000
ENDCHAR
STARTCHAR a1e2
ENCODING 41442
SWIDTH 256 0
DWIDTH 16 0
BBX 16 16 0 -2
BITMAP
0000
0000
0020
0020
0040
0040
1ffc
0080
0080
1ffc
0100
0100
0200
0200
0000
0000
ENDCHAR
STARTCHAR a1e3
ENCODING 41443
SWIDTH 256 0
DWIDTH 16 0
BBX 16 16 0 -2
BITMAP
0000
0000
0008
0010
0060
0080
0300
0400
0800
0400
0300
0080
0060
0010
0008
0000
ENDCHAR
STARTCHAR a1e4
ENCODING 41444
SWIDTH 256 0
DWIDTH 16 0
BBX 16 16 0 -2
BITMAP
0000
0000
1000
0800
0600
0100
00c0
0020
0010
0020
00c0
0100
0600
0800
1000
0000
ENDCHAR
STARTCHAR a1e5
ENCODING 41445
SWIDTH 256 0
DWIDTH 16 0
BBX 16 16 0 -2
BITMAP
0000
001c
0060
0180
0600
1800
0600
0180
0060
001c
0000
1ffc
0000
1ffc
0000
0000
ENDCHAR
STARTCHAR a1e6
ENCODING 41446
SWIDTH 256 0
DWIDTH 16 0
BBX 16 16 0 -2
BITMAP
0000
1c00
0300
00c0
0030
000c
0030
00c0
0300
1c00
0000
1ffc
0000
1ffc
0000
0000
ENDCHAR
STARTCHAR a1e7
ENCODING 41447
SWIDTH 256 0
DWIDTH 16 0
BBX 16 16 0 -2
BITMAP
0000
0000
0000
0000
0000
0e38
1144
2082
2082
2082
1144
0e38
0000
0000
0000
0000
ENDCHAR
STARTCHAR a1e8
ENCODING 41448
SWIDTH 256 0
DWIDTH 16 0
BBX 16 16 0 -2
BITMAP
0000
0000
0080
01c0
0080
0000
0000
0000
0000
0000
0000
0808
1c1c
0808
0000
0000
ENDCHAR
STARTCHAR a1e9
ENCODING 41449
SWIDTH 256 0
DWIDTH 16 0
BBX 16 16 0 -2
BITMAP
0000
0080
01c0
02a0
0490
0888
0080
0080
01c0
0220
0410
0410
0410
0220
01c0
0000
ENDCHAR
STARTCHAR a1ea
ENCODING 41450
SWIDTH 256 0
DWIDTH 16 0
BBX 16 16 0 -2
BITMAP
0000
01c0
0220
0410
0410
0410
0220
01c0
0080
0080
3ffe
0080
0080
0080
0080
0000
ENDCHAR
STARTCHAR a1eb
ENCODING 41451
SWIDTH 256 0
DWIDTH 16 0
BBX 16 16 0 -2
BITMAP
1800
2400
2400
1800
0000
0000
0000
0000
0000
0000
0000
0000
0000
0000
0000
0000
ENDCHAR
STARTCHAR a1ec
ENCODING 41452
SWIDTH 256 0
DWIDTH 16 0
BBX 16 16 0 -2
BITMAP
1000
1000
1000
2000
0000
0000
0000
0000
0000
0000
0000
0000
0000
0000
0000
0000
ENDCHAR
STARTCHAR a1ed
ENCODING 41453
SWIDTH 256 0
DWIDTH 16 0
BBX 16 16 0 -2
BITMAP
1200
1200
1200
2400
0000
0000
0000
0000
0000
0000
0000
0000
0000
0000
0000
0000
ENDCHAR
STARTCHAR a1ee
ENCODING 41454
SWIDTH 256 0
DWIDTH 16 0
BBX 16 16 0 -2
BITMAP
3000
4872
498a
3206
0202
0400
0400
0400
0400
0400
0402
0202
0204
0188
0070
0000
ENDCHAR
STARTCHAR a1ef
ENCODING 41455
SWIDTH 256 0
DWIDTH 16 0
BBX 16 16 0 -2
BITMAP
0000
1c1c
0808
0410
0410
0220
0140
1ffc
0080
0080
1ffc
0080
0080
0080
01c0
0000
ENDCHAR
STARTCHAR a1f0
ENCODING 41456
SWIDTH 256 0
DWIDTH 16 0
BBX 16 16 0 -2
BITMAP
0000
0080
01c0
06b0
0888
0888
0880
07e0
0098
0084
1084
1084
0c98
03e0
0080
0000
ENDCHAR
STARTCHAR a1f1
ENCODING 41457
SWIDTH 256 0
DWIDTH 16 0
BBX 16 16 0 -2
BITMAP
0000
0000
0010
0020
01e0
0250
0448
0480
0480
0508
0310
03e0
0200
0400
0000
0000
ENDCHAR
STARTCHAR a1f2
ENCODING 41458
SWIDTH 256 0
DWIDTH 16 0
BBX 16 16 0 -2
BITMAP
0000
03c0
0420
0810
0800
0800
0400
0200
3ff0
0100
0100
1d02
2202
2384
1c78
0000
ENDCHAR
STARTCHAR a1f3
ENCODING 41459
SWIDTH 256 0
DWIDTH 16 0
BBX 16 16 0 -2
BITMAP
0000
0002
1c04
2208
2210
2220
1c40
0080
0100
0238
0444
0844
1044
2038
4000
0000
ENDCHAR
STARTCHAR a1f4
ENCODING 41460
SWIDTH 256 0
DWIDTH 16 0
BBX 16 16 0 -2
BITMAP
0000
0410
0410
0410
041e
07f0
3c10
0410
0410
041e
07f0
3c10
0410
0410
0410
0000
ENDCHAR
STARTCHAR a1f5
ENCODING 41461
SWIDTH 256 0
DWIDTH 16 0
BBX 16 16 0 -2
BITMAP
0000
03c0
0420
0810
0810
0810
0420
0240
0500
0884
1044
1024
1018
0818
07e6
0000
ENDCHAR
STARTCHAR a1f6
ENCODING 41462
SWIDTH 256 0
DWIDTH 16 0
BBX 16 16 0 -2
BITMAP
0000
0000
0080
0888
0490
02a0
01c0
0080
0080
01c0
02a0
0490
0888
0080
0080
0000
ENDCHAR
STARTCHAR a1f7
ENCODING 41463
SWIDTH 256 0
DWIDTH 16 0
BBX 16 16 0 -2
BITMAP
0000
01c0
0630
0808
1004
10c4
2122
2222
2222
2224
11d8
1000
0804
0618
01e0
0000
ENDCHAR
STARTCHAR a1f8
ENCODING 41464
SWIDTH 256 0
DWIDTH 16 0
BBX 16 16 0 -2
BITMAP
0000
03c0
0420
0420
0400
0200
0580
0440
0220
01a0
0040
0020
0420
0420
03c0
0000
ENDCHAR
STARTCHAR a1f9
ENCODING 41465
SWIDTH 256 0
DWIDTH 16 0
BBX 16 16 0 -2
BITMAP
0000
0080
0080
0140
0140
0220
7e3f
1004
0808
0410
0888
0948
1634
180c
2002
0000
ENDCHAR
STARTCHAR a1fa
ENCODING 41466
SWIDTH 256 0
DWIDTH 16 0
BBX 16 16 0 -2
BITMAP
0000
0080
0080
01c0
01c0
03e0
7fff
1ffc
0ff8
07f0
0ff8
0f78
1e3c
180c
2002
0000
ENDCHAR
STARTCHAR a1fb
ENCODING 41467
SWIDTH 256 0
DWIDTH 16 0
BBX 16 16 0 -2
BITMAP
0000
01c0
0630
0808
1004
1004
2002
2002
2002
2002
1004
1004
0808
0630
01c0
0000
ENDCHAR
STARTCHAR a1fc
ENCODING 41468
SWIDTH 256 0
DWIDTH 16 0
BBX 16 16 0 -2
BITMAP
0000
01c0
07f0
0ff8
1ffc
1ffc
3ffe
3ffe
3ffe
3ffe
1ffc
1ffc
0ff8
07f0
01c0
0000
ENDCHAR
STARTCHAR a1fd
ENCODING 41469
SWIDTH 256 0
DWIDTH 16 0
BBX 16 16 0 -2
BITMAP
0000
01c0
0630
0808
11c4
1224
2412
2412
2412
2412
1224
11c4
0808
0630
01c0
0000
ENDCHAR
STARTCHAR a1fe
ENCODING 41470
SWIDTH 256 0
DWIDTH 16 0
BBX 16 16 0 -2
BITMAP
0000
0080
0140
0220
0410
0808
1004
2002
1004
0808
0410
0220
0140
0080
0000
0000
ENDCHAR
STARTCHAR a2a1
ENCODING 41633
SWIDTH 256 0
DWIDTH 16 0
BBX 16 16 0 -2
BITMAP
0000
0080
01c0
03e0
07f0
0ff8
1ffc
3ffe
1ffc
0ff8
07f0
03e0
01c0
0080
0000
0000
ENDCHAR
STARTCHAR a2a2
ENCODING 41634
SWIDTH 256 0
DWIDTH 16 0
BBX 16 16 0 -2
BITMAP
0000
3ffe
2002
2002
2002
2002
2002
2002
2002
2002
2002
2002
2002
2002
3ffe
0000
ENDCHAR
STARTCHAR a2a3
ENCODING 41635
SWIDTH 256 0
DWIDTH 16 0
BBX 16 16 0 -2
BITMAP
0000
3ffe
3ffe
3ffe
3ffe
3ffe
3ffe
3ffe
3ffe
3ffe
3ffe
3ffe
3ffe
3ffe
3ffe
0000
ENDCHAR
STARTCHAR a2a4
ENCODING 41636
SWIDTH 256 0
DWIDTH 16 0
BBX 16 16 0 -2
BITMAP
0000
0080
0080
0140
0140
0220
0220
0410
0410
0808
0808
1004
1004
3ffe
0000
0000
ENDCHAR
STARTCHAR a2a5
ENCODING 41637
SWIDTH 256 0
DWIDTH 16 0
BBX 16 16 0 -2
BITMAP
0000
0080
0080
01c0
01c0
03e0
03e0
07f0
07f0
0ff8
0ff8
1ffc
1ffc
3ffe
0000
0000
ENDCHAR
STARTCHAR a2a6
ENCODING 41638
SWIDTH 256 0
DWIDTH 16 0
BBX 16 16 0 -2
BITMAP
0000
0000
3ffe
1004
1004
0808
0808
0410
0410
0220
0220
0140
0140
0080
0080
0000
ENDCHAR
STARTCHAR a2a7
ENCODING 41639
SWIDTH 256 0
DWIDTH 16 0
BBX 16 16 0 -2
BITMAP
0000
0000
3ffe
1ffc
1ffc
0ff8
0ff8
07f0
07f0
03e0
03e0
01c0
01c0
0080
0080
0000
ENDCHAR
STARTCHAR a2a8
ENCODING 41640
SWIDTH 256 0
DWIDTH 16 0
BBX 16 16 0 -2
BITMAP
0000
2082
11c4
0888
0410
0220
1144
388e
1144
0220
0410
0888
11c4
2082
0000
0000
ENDCHAR
STARTCHAR a2a9
ENCODING 41641
SWIDTH 256 0
DWIDTH 16 0
BBX 16 16 0 -2
BITMAP
0000
0000
1ffc
0000
0000
0000
1ffc
0080
0080
0080
0080
0080
0080
0080
0080
0000
ENDCHAR
STARTCHAR a2aa
ENCODING 41642
SWIDTH 256 0
DWIDTH 16 0
BBX 16 16 0 -2
BITMAP
0000
0000
0000
0000
0010
0008
0004
3ffe
0004
0008
0010
0000
0000
0000
0000
0000
ENDCHAR
STARTCHAR a2ab
ENCODING 41643
SWIDTH 256 0
DWIDTH 16 0
BBX 16 16 0 -2
BITMAP
0000
0000
0000
0000
0400
0800
1000
3ffe
1000
0800
0400
0000
0000
0000
0000
0000
ENDCHAR
STARTCHAR a2ac
ENCODING 41644
SWIDTH 256 0
DWIDTH 16 0
BBX 16 16 0 -2
BITMAP
0000
0080
01c0
02a0
0490
0080
0080
0080
0080
0080
0080
0080
0080
0080
0080
0000
ENDCHAR
STARTCHAR a2ad
ENCODING 41645
SWIDTH 256 0
DWIDTH 16 0
BBX 16 16 0 -2
BITMAP
0000
0080
0080
0080
0080
0080
0080
0080
0080
0080
0080
0490
02a0
01c0
0080
0000
ENDCHAR
STARTCHAR a2ae
ENCODING 41646
SWIDTH 256 0
DWIDTH 16 0
BBX 16 16 0 -2
BITMAP
0000
0000
0000
0000
1ffc
1ffc
0000
0000
0000
1ffc
1ffc
0000
0000
0000
0000
0000
ENDCHAR
STARTCHAR a2af
ENCODING 41647
SWIDTH 256 0
DWIDTH 16 0
BBX 16 16 0 -2
BITMAP
0000
0000
0000
0000
0000
0000
0000
0000
0000
0000
0000
0000
0000
0000
0000
0000
ENDCHAR
STARTCHAR a2b0
ENCODING 41648
SWIDTH 256 0
DWIDTH 16 0
BBX 16 16 0 -2
BITMAP
0000
0000
0000
0000
0000
0000
0000
0000
0000
0000
0000
0000
0000
0000
0000
0000
ENDCHAR
STARTCHAR a2b1
ENCODING 41649
SWIDTH 256 0
DWIDTH 16 0
BBX 16 16 0 -2
BITMAP
0000
0000
0000
0000
0000
0000
0000
0000
0000
0000
0000
0000
0000
0000
0000
0000
ENDCHAR
STARTCHAR a2b2
ENCODING 41650
SWIDTH 256 0
DWIDTH 16 0
BBX 16 16 0 -2
BITMAP
0000
0000
0000
0000
0000
0000
0000
0000
0000
0000
0000
0000
0000
0000
0000
0000
ENDCHAR
STARTCHAR a2b3
ENCODING 41651
SWIDTH 256 0
DWIDTH 16 0
BBX 16 16 0 -2
BITMAP
0000
0000
0000
0000
0000
0000
0000
0000
0000
0000
0000
0000
0000
0000
0000
0000
ENDCHAR
STARTCHAR a2b4
ENCODING 41652
SWIDTH 256 0
DWIDTH 16 0
BBX 16 16 0 -2
BITMAP
0000
0000
0000
0000
0000
0000
0000
0000
0000
0000
0000
0000
0000
0000
0000
0000
ENDCHAR
STARTCHAR a2b5
ENCODING 41653
SWIDTH 256 0
DWIDTH 16 0
BBX 16 16 0 -2
BITMAP
0000
0000
0000
0000
0000
0000
0000
0000
0000
0000
0000
0000
0000
0000
0000
0000
ENDCHAR
STARTCHAR a2b6
ENCODING 41654
SWIDTH 256 0
DWIDTH 16 0
BBX 16 16 0 -2
BITMAP
0000
0000
0000
0000
0000
0000
0000
0000
0000
0000
0000
0000
0000
0000
0000
0000
ENDCHAR
STARTCHAR a2b7
ENCODING 41655
SWIDTH 256 0
DWIDTH 16 0
BBX 16 16 0 -2
BITMAP
0000
0000
0000
0000
0000
0000
0000
0000
0000
0000
0000
0000
0000
0000
0000
0000
ENDCHAR
STARTCHAR a2b8
ENCODING 41656
SWIDTH 256 0
DWIDTH 16 0
BBX 16 16 0 -2
BITMAP
0000
0000
0000
0000
0000
0000
0000
0000
0000
0000
0000
0000
0000
0000
0000
0000
ENDCHAR
STARTCHAR a2b9
ENCODING 41657
SWIDTH 256 0
DWIDTH 16 0
BBX 16 16 0 -2
BITMAP
0000
0000
0000
0000
0000
0000
0000
0000
0000
0000
0000
0000
0000
0000
0000
0000
ENDCHAR
STARTCHAR a2ba
ENCODING 41658
SWIDTH 256 0
DWIDTH 16 0
BBX 16 16 0 -2
BITMAP
0000
0000
0000
0000
0000
0000
0000
0000
0000
0000
0000
0000
0000
0000
0000
0000
ENDCHAR
STARTCHAR a2bb
ENCODING 41659
SWIDTH 256 0
DWIDTH 16 0
BBX 16 16 0 -2
BITMAP
0000
0000
0000
0000
0000
0000
0000
0000
0000
0000
0000
0000
0000
0000
0000
0000
ENDCHAR
STARTCHAR a2bc
ENCODING 41660
SWIDTH 256 0
DWIDTH 16 0
BBX 16 16 0 -2
BITMAP
0000
0000
0000
0000
0000
0000
0000
0000
0000
0000
0000
0000
0000
0000
0000
0000
ENDCHAR
STARTCHAR a2bd
ENCODING 41661
SWIDTH 256 0
DWIDTH 16 0
BBX 16 16 0 -2
BITMAP
0000
0000
0000
0000
0000
0000
0000
0000
0000
0000
0000
0000
0000
0000
0000
0000
ENDCHAR
STARTCHAR a2be
ENCODING 41662
SWIDTH 256 0
DWIDTH 16 0
BBX 16 16 0 -2
BITMAP
0000
0000
0000
0000
0000
0000
0000
0000
0000
0000
0000
0000
0000
0000
0000
0000
ENDCHAR
STARTCHAR a2bf
ENCODING 41663
SWIDTH 256 0
DWIDTH 16 0
BBX 16 16 0 -2
BITMAP
0000
0000
0000
0000
0000
0000
0000
0000
0000
0000
0000
0000
0000
0000
0000
0000
ENDCHAR
STARTCHAR a2c0
ENCODING 41664
SWIDTH 256 0
DWIDTH 16 0
BBX 16 16 0 -2
BITMAP
0000
0000
0000
0000
0000
0000
0000
0000
0000
0000
0000
0000
0000
0000
0000
0000
ENDCHAR
STARTCHAR a2c1
ENCODING 41665
SWIDTH 256 0
DWIDTH 16 0
BBX 16 16 0 -2
BITMAP
0000
0000
0000
0000
0000
0000
0000
0000
0000
0000
0000
0000
0000
0000
0000
0000
ENDCHAR
STARTCHAR a2c2
ENCODING 41666
SWIDTH 256 0
DWIDTH 16 0
BBX 16 16 0 -2
BITMAP
0000
0000
0000
0000
0000
0000
0000
0000
0000
0000
0000
0000
0000
0000
0000
0000
ENDCHAR
STARTCHAR a2c3
ENCODING 41667
SWIDTH 256 0
DWIDTH 16 0
BBX 16 16 0 -2
BITMAP
0000
0000
0000
0000
0000
0000
0000
0000
0000
0000
0000
0000
0000
0000
0000
0000
ENDCHAR
STARTCHAR a2c4
ENCODING 41668
SWIDTH 256 0
DWIDTH 16 0
BBX 16 16 0 -2
BITMAP
0000
0000
0000
0000
0000
0000
0000
0000
0000
0000
0000
0000
0000
0000
0000
0000
ENDCHAR
STARTCHAR a2c5
ENCODING 41669
SWIDTH 256 0
DWIDTH 16 0
BBX 16 16 0 -2
BITMAP
0000
0000
0000
0000
0000
0000
0000
0000
0000
0000
0000
0000
0000
0000
0000
0000
ENDCHAR
STARTCHAR a2c6
ENCODING 41670
SWIDTH 256 0
DWIDTH 16 0
BBX 16 16 0 -2
BITMAP
0000
0000
0000
0000
0000
0000
0000
0000
0000
0000
0000
0000
0000
0000
0000
0000
ENDCHAR
STARTCHAR a2c7
ENCODING 41671
SWIDTH 256 0
DWIDTH 16 0
BBX 16 16 0 -2
BITMAP
0000
0000
0000
0000
0000
0000
0000
0000
0000
0000
0000
0000
0000
0000
0000
0000
ENDCHAR
STARTCHAR a2c8
ENCODING 41672
SWIDTH 256 0
DWIDTH 16 0
BBX 16 16 0 -2
BITMAP
0000
0000
0000
0000
0000
0000
0000
0000
0000
0000
0000
0000
0000
0000
0000
0000
ENDCHAR
STARTCHAR a2c9
ENCODING 41673
SWIDTH 256 0
DWIDTH 16 0
BBX 16 16 0 -2
BITMAP
0000
0000
0000
0000
0000
0000
0000
0000
0000
0000
0000
0000
0000
0000
0000
0000
ENDCHAR
STARTCHAR a2ca
ENCODING 41674
SWIDTH 256 0
DWIDTH 16 0
BBX 16 16 0 -2
BITMAP
0000
0000
0000
0000
0000
0000
0000
0000
0000
0000
0000
0000
0000
0000
0000
0000
ENDCHAR
STARTCHAR a2cb
ENCODING 41675
SWIDTH 256 0
DWIDTH 16 0
BBX 16 16 0 -2
BITMAP
0000
0000
0000
0000
0000
0000
0000
0000
0000
0000
0000
0000
0000
0000
0000
0000
ENDCHAR
STARTCHAR a2cc
ENCODING 41676
SWIDTH 256 0
DWIDTH 16 0
BBX 16 16 0 -2
BITMAP
0000
0000
0000
0000
0000
0000
0000
0000
0000
0000
0000
0000
0000
0000
0000
0000
ENDCHAR
STARTCHAR a2cd
ENCODING 41677
SWIDTH 256 0
DWIDTH 16 0
BBX 16 16 0 -2
BITMAP
0000
0000
0000
0000
0000
0000
0000
0000
0000
0000
0000
0000
0000
0000
0000
0000
ENDCHAR
STARTCHAR a2ce
ENCODING 41678
SWIDTH 256 0
DWIDTH 16 0
BBX 16 16 0 -2
BITMAP
0000
0000
0000
0000
0000
0000
0000
0000
0000
0000
0000
0000
0000
0000
0000
0000
ENDCHAR
STARTCHAR a2cf
ENCODING 41679
SWIDTH 256 0
DWIDTH 16 0
BBX 16 16 0 -2
BITMAP
0000
0000
0000
0000
0000
0000
0000
0000
0000
0000
0000
0000
0000
0000
0000
0000
ENDCHAR
STARTCHAR a2d0
ENCODING 41680
SWIDTH 256 0
DWIDTH 16 0
BBX 16 16 0 -2
BITMAP
0000
0000
0000
0000
0000
0000
0000
0000
0000
0000
0000
0000
0000
0000
0000
0000
ENDCHAR
STARTCHAR a2d1
ENCODING 41681
SWIDTH 256 0
DWIDTH 16 0
BBX 16 16 0 -2
BITMAP
0000
0000
0000
0000
0000
0000
0000
0000
0000
0000
0000
0000
0000
0000
0000
0000
ENDCHAR
STARTCHAR a2d2
ENCODING 41682
SWIDTH 256 0
DWIDTH 16 0
BBX 16 16 0 -2
BITMAP
0000
0000
0000
0000
0000
0000
0000
0000
0000
0000
0000
0000
0000
0000
0000
0000
ENDCHAR
STARTCHAR a2d3
ENCODING 41683
SWIDTH 256 0
DWIDTH 16 0
BBX 16 16 0 -2
BITMAP
0000
0000
0000
0000
0000
0000
0000
0000
0000
0000
0000
0000
0000
0000
0000
0000
ENDCHAR
STARTCHAR a2d4
ENCODING 41684
SWIDTH 256 0
DWIDTH 16 0
BBX 16 16 0 -2
BITMAP
0000
0000
0000
0000
0000
0000
0000
0000
0000
0000
0000
0000
0000
0000
0000
0000
ENDCHAR
STARTCHAR a2d5
ENCODING 41685
SWIDTH 256 0
DWIDTH 16 0
BBX 16 16 0 -2
BITMAP
0000
0000
0000
0000
0000
0000
0000
0000
0000
0000
0000
0000
0000
0000
0000
0000
ENDCHAR
STARTCHAR a2d6
ENCODING 41686
SWIDTH 256 0
DWIDTH 16 0
BBX 16 16 0 -2
BITMAP
0000
0000
0000
0000
0000
0000
0000
0000
0000
0000
0000
0000
0000
0000
0000
0000
ENDCHAR
STARTCHAR a2d7
ENCODING 41687
SWIDTH 256 0
DWIDTH 16 0
BBX 16 16 0 -2
BITMAP
0000
0000
0000
0000
0000
0000
0000
0000
0000
0000
0000
0000
0000
0000
0000
0000
ENDCHAR
STARTCHAR a2d8
ENCODING 41688
SWIDTH 256 0
DWIDTH 16 0
BBX 16 16 0 -2
BITMAP
0000
0000
0000
0000
0000
0000
0000
0000
0000
0000
0000
0000
0000
0000
0000
0000
ENDCHAR
STARTCHAR a2d9
ENCODING 41689
SWIDTH 256 0
DWIDTH 16 0
BBX 16 16 0 -2
BITMAP
0000
0000
0000
0000
0000
0000
0000
0000
0000
0000
0000
0000
0000
0000
0000
0000
ENDCHAR
STARTCHAR a2da
ENCODING 41690
SWIDTH 256 0
DWIDTH 16 0
BBX 16 16 0 -2
BITMAP
0000
0000
0000
0000
0000
0000
0000
0000
0000
0000
0000
0000
0000
0000
0000
0000
ENDCHAR
STARTCHAR a2db
ENCODING 41691
SWIDTH 256 0
DWIDTH 16 0
BBX 16 16 0 -2
BITMAP
0000
0000
0000
0000
0000
0000
0000
0000
0000
0000
0000
0000
0000
0000
0000
0000
ENDCHAR
STARTCHAR a2dc
ENCODING 41692
SWIDTH 256 0
DWIDTH 16 0
BBX 16 16 0 -2
BITMAP
0000
0000
0000
0000
0000
0000
0000
0000
0000
0000
0000
0000
0000
0000
0000
0000
ENDCHAR
STARTCHAR a2dd
ENCODING 41693
SWIDTH 256 0
DWIDTH 16 0
BBX 16 16 0 -2
BITMAP
0000
0000
0000
0000
0000
0000
0000
0000
0000
0000
0000
0000
0000
0000
0000
0000
ENDCHAR
STARTCHAR a2de
ENCODING 41694
SWIDTH 256 0
DWIDTH 16 0
BBX 16 16 0 -2
BITMAP
0000
0000
0000
0000
0000
0000
0000
0000
0000
0000
0000
0000
0000
0000
0000
0000
ENDCHAR
STARTCHAR a2df
ENCODING 41695
SWIDTH 256 0
DWIDTH 16 0
BBX 16 16 0 -2
BITMAP
0000
0000
0000
0000
0000
0000
0000
0000
0000
0000
0000
0000
0000
0000
0000
0000
ENDCHAR
STARTCHAR a2e0
ENCODING 41696
SWIDTH 256 0
DWIDTH 16 0
BBX 16 16 0 -2
BITMAP
0000
0000
0000
0000
0000
0000
0000
0000
0000
0000
0000
0000
0000
0000
0000
0000
ENDCHAR
STARTCHAR a2e1
ENCODING 41697
SWIDTH 256 0
DWIDTH 16 0
BBX 16 16 0 -2
BITMAP
0000
0000
0000
0000
0000
0000
0000
0000
0000
0000
0000
0000
0000
0000
0000
0000
ENDCHAR
STARTCHAR a2e2
ENCODING 41698
SWIDTH 256 0
DWIDTH 16 0
BBX 16 16 0 -2
BITMAP
0000
0000
0000
0000
0000
0000
0000
0000
0000
0000
0000
0000
0000
0000
0000
0000
ENDCHAR
STARTCHAR a2e3
ENCODING 41699
SWIDTH 256 0
DWIDTH 16 0
BBX 16 16 0 -2
BITMAP
0000
0000
0000
0000
0000
0000
0000
0000
0000
0000
0000
0000
0000
0000
0000
0000
ENDCHAR
STARTCHAR a2e4
ENCODING 41700
SWIDTH 256 0
DWIDTH 16 0
BBX 16 16 0 -2
BITMAP
0000
0000
0000
0000
0000
0000
0000
0000
0000
0000
0000
0000
0000
0000
0000
0000
ENDCHAR
STARTCHAR a2e5
ENCODING 41701
SWIDTH 256 0
DWIDTH 16 0
BBX 16 16 0 -2
BITMAP
0000
0000
0000
0000
0000
0000
0000
0000
0000
0000
0000
0000
0000
0000
0000
0000
ENDCHAR
STARTCHAR a2e6
ENCODING 41702
SWIDTH 256 0
DWIDTH 16 0
BBX 16 16 0 -2
BITMAP
0000
0000
0000
0000
0000
0000
0000
0000
0000
0000
0000
0000
0000
0000
0000
0000
ENDCHAR
STARTCHAR a2e7
ENCODING 41703
SWIDTH 256 0
DWIDTH 16 0
BBX 16 16 0 -2
BITMAP
0000
0000
0000
0000
0000
0000
0000
0000
0000
0000
0000
0000
0000
0000
0000
0000
ENDCHAR
STARTCHAR a2e8
ENCODING 41704
SWIDTH 256 0
DWIDTH 16 0
BBX 16 16 0 -2
BITMAP
0000
0000
0000
0000
0000
0000
0000
0000
0000
0000
0000
0000
0000
0000
0000
0000
ENDCHAR
STARTCHAR a2e9
ENCODING 41705
SWIDTH 256 0
DWIDTH 16 0
BBX 16 16 0 -2
BITMAP
0000
0000
0000
0000
0000
0000
0000
0000
0000
0000
0000
0000
0000
0000
0000
0000
ENDCHAR
STARTCHAR a2ea
ENCODING 41706
SWIDTH 256 0
DWIDTH 16 0
BBX 16 16 0 -2
BITMAP
0000
0000
0000
0000
0000
0000
0000
0000
0000
0000
0000
0000
0000
0000
0000
0000
ENDCHAR
STARTCHAR a2eb
ENCODING 41707
SWIDTH 256 0
DWIDTH 16 0
BBX 16 16 0 -2
BITMAP
0000
0000
0000
0000
0000
0000
0000
0000
0000
0000
0000
0000
0000
0000
0000
0000
ENDCHAR
STARTCHAR a2ec
ENCODING 41708
SWIDTH 256 0
DWIDTH 16 0
BBX 16 16 0 -2
BITMAP
0000
0000
0000
0000
0000
0000
0000
0000
0000
0000
0000
0000
0000
0000
0000
0000
ENDCHAR
STARTCHAR a2ed
ENCODING 41709
SWIDTH 256 0
DWIDTH 16 0
BBX 16 16 0 -2
BITMAP
0000
0000
0000
0000
0000
0000
0000
0000
0000
0000
0000
0000
0000
0000
0000
0000
ENDCHAR
STARTCHAR a2ee
ENCODING 41710
SWIDTH 256 0
DWIDTH 16 0
BBX 16 16 0 -2
BITMAP
0000
0000
0000
0000
0000
0000
0000
0000
0000
0000
0000
0000
0000
0000
0000
0000
ENDCHAR
STARTCHAR a2ef
ENCODING 41711
SWIDTH 256 0
DWIDTH 16 0
BBX 16 16 0 -2
BITMAP
0000
0000
0000
0000
0000
0000
0000
0000
0000
0000
0000
0000
0000
0000
0000
0000
ENDCHAR
STARTCHAR a2f0
ENCODING 41712
SWIDTH 256 0
DWIDTH 16 0
BBX 16 16 0 -2
BITMAP
0000
0000
0000
0000
0000
0000
0000
0000
0000
0000
0000
0000
0000
0000
0000
0000
ENDCHAR
STARTCHAR a2f1
ENCODING 41713
SWIDTH 256 0
DWIDTH 16 0
BBX 16 16 0 -2
BITMAP
0000
0000
0000
0000
0000
0000
0000
0000
0000
0000
0000
0000
0000
0000
0000
0000
ENDCHAR
STARTCHAR a2f2
ENCODING 41714
SWIDTH 256 0
DWIDTH 16 0
BBX 16 16 0 -2
BITMAP
0000
0000
0000
0000
0000
0000
0000
0000
0000
0000
0000
0000
0000
0000
0000
0000
ENDCHAR
STARTCHAR a2f3
ENCODING 41715
SWIDTH 256 0
DWIDTH 16 0
BBX 16 16 0 -2
BITMAP
0000
0000
0000
0000
0000
0000
0000
0000
0000
0000
0000
0000
0000
0000
0000
0000
ENDCHAR
STARTCHAR a2f4
ENCODING 41716
SWIDTH 256 0
DWIDTH 16 0
BBX 16 16 0 -2
BITMAP
0000
0000
0000
0000
0000
0000
0000
0000
0000
0000
0000
0000
0000
0000
0000
0000
ENDCHAR
STARTCHAR a2f5
ENCODING 41717
SWIDTH 256 0
DWIDTH 16 0
BBX 16 16 0 -2
BITMAP
0000
0000
0000
0000
0000
0000
0000
0000
0000
0000
0000
0000
0000
0000
0000
0000
ENDCHAR
STARTCHAR a2f6
ENCODING 41718
SWIDTH 256 0
DWIDTH 16 0
BBX 16 16 0 -2
BITMAP
0000
0000
0000
0000
0000
0000
0000
0000
0000
0000
0000
0000
0000
0000
0000
0000
ENDCHAR
STARTCHAR a2f7
ENCODING 41719
SWIDTH 256 0
DWIDTH 16 0
BBX 16 16 0 -2
BITMAP
0000
0000
0000
0000
0000
0000
0000
0000
0000
0000
0000
0000
0000
0000
0000
0000
ENDCHAR
STARTCHAR a2f8
ENCODING 41720
SWIDTH 256 0
DWIDTH 16 0
BBX 16 16 0 -2
BITMAP
0000
0000
0000
0000
0000
0000
0000
0000
0000
0000
0000
0000
0000
0000
0000
0000
ENDCHAR
STARTCHAR a2f9
ENCODING 41721
SWIDTH 256 0
DWIDTH 16 0
BBX 16 16 0 -2
BITMAP
0000
0000
0000
0000
0000
0000
0000
0000
0000
0000
0000
0000
0000
0000
0000
0000
ENDCHAR
STARTCHAR a2fa
ENCODING 41722
SWIDTH 256 0
DWIDTH 16 0
BBX 16 16 0 -2
BITMAP
0000
0000
0000
0000
0000
0000
0000
0000
0000
0000
0000
0000
0000
0000
0000
0000
ENDCHAR
STARTCHAR a2fb
ENCODING 41723
SWIDTH 256 0
DWIDTH 16 0
BBX 16 16 0 -2
BITMAP
0000
0000
0000
0000
0000
0000
0000
0000
0000
0000
0000
0000
0000
0000
0000
0000
ENDCHAR
STARTCHAR a2fc
ENCODING 41724
SWIDTH 256 0
DWIDTH 16 0
BBX 16 16 0 -2
BITMAP
0000
0000
0000
0000
0000
0000
0000
0000
0000
0000
0000
0000
0000
0000
0000
0000
ENDCHAR
STARTCHAR a2fd
ENCODING 41725
SWIDTH 256 0
DWIDTH 16 0
BBX 16 16 0 -2
BITMAP
0000
0000
0000
0000
0000
0000
0000
0000
0000
0000
0000
0000
0000
0000
0000
0000
ENDCHAR
STARTCHAR a2fe
ENCODING 41726
SWIDTH 256 0
DWIDTH 16 0
BBX 16 16 0 -2
BITMAP
0000
0000
0000
0000
0000
0000
0000
0000
0000
0000
0000
0000
0000
0000
0000
0000
ENDCHAR
STARTCHAR a3a1
ENCODING 41889
SWIDTH 256 0
DWIDTH 16 0
BBX 16 16 0 -2
BITMAP
0000
0000
0000
0000
0000
0000
0000
0000
0000
0000
0000
0000
0000
0000
0000
0000
ENDCHAR
STARTCHAR a3a2
ENCODING 41890
SWIDTH 256 0
DWIDTH 16 0
BBX 16 16 0 -2
BITMAP
0000
0000
0000
0000
0000
0000
0000
0000
0000
0000
0000
0000
0000
0000
0000
0000
ENDCHAR
STARTCHAR a3a3
ENCODING 41891
SWIDTH 256 0
DWIDTH 16 0
BBX 16 16 0 -2
BITMAP
0000
0000
0000
0000
0000
0000
0000
0000
0000
0000
0000
0000
0000
0000
0000
0000
ENDCHAR
STARTCHAR a3a4
ENCODING 41892
SWIDTH 256 0
DWIDTH 16 0
BBX 16 16 0 -2
BITMAP
0000
0000
0000
0000
0000
0000
0000
0000
0000
0000
0000
0000
0000
0000
0000
0000
ENDCHAR
STARTCHAR a3a5
ENCODING 41893
SWIDTH 256 0
DWIDTH 16 0
BBX 16 16 0 -2
BITMAP
0000
0000
0000
0000
0000
0000
0000
0000
0000
0000
0000
0000
0000
0000
0000
0000
ENDCHAR
STARTCHAR a3a6
ENCODING 41894
SWIDTH 256 0
DWIDTH 16 0
BBX 16 16 0 -2
BITMAP
0000
0000
0000
0000
0000
0000
0000
0000
0000
0000
0000
0000
0000
0000
0000
0000
ENDCHAR
STARTCHAR a3a7
ENCODING 41895
SWIDTH 256 0
DWIDTH 16 0
BBX 16 16 0 -2
BITMAP
0000
0000
0000
0000
0000
0000
0000
0000
0000
0000
0000
0000
0000
0000
0000
0000
ENDCHAR
STARTCHAR a3a8
ENCODING 41896
SWIDTH 256 0
DWIDTH 16 0
BBX 16 16 0 -2
BITMAP
0000
0000
0000
0000
0000
0000
0000
0000
0000
0000
0000
0000
0000
0000
0000
0000
ENDCHAR
STARTCHAR a3a9
ENCODING 41897
SWIDTH 256 0
DWIDTH 16 0
BBX 16 16 0 -2
BITMAP
0000
0000
0000
0000
0000
0000
0000
0000
0000
0000
0000
0000
0000
0000
0000
0000
ENDCHAR
STARTCHAR a3aa
ENCODING 41898
SWIDTH 256 0
DWIDTH 16 0
BBX 16 16 0 -2
BITMAP
0000
0000
0000
0000
0000
0000
0000
0000
0000
0000
0000
0000
0000
0000
0000
0000
ENDCHAR
STARTCHAR a3ab
ENCODING 41899
SWIDTH 256 0
DWIDTH 16 0
BBX 16 16 0 -2
BITMAP
0000
0000
0000
0000
0000
0000
0000
0000
0000
0000
0000
0000
0000
0000
0000
0000
ENDCHAR
STARTCHAR a3ac
ENCODING 41900
SWIDTH 256 0
DWIDTH 16 0
BBX 16 16 0 -2
BITMAP
0000
0000
0000
0000
0000
0000
0000
0000
0000
0000
0000
0000
0000
0000
0000
0000
ENDCHAR
STARTCHAR a3ad
ENCODING 41901
SWIDTH 256 0
DWIDTH 16 0
BBX 16 16 0 -2
BITMAP
0000
0000
0000
0000
0000
0000
0000
0000
0000
0000
0000
0000
0000
0000
0000
0000
ENDCHAR
STARTCHAR a3ae
ENCODING 41902
SWIDTH 256 0
DWIDTH 16 0
BBX 16 16 0 -2
BITMAP
0000
0000
0000
0000
0000
0000
0000
0000
0000
0000
0000
0000
0000
0000
0000
0000
ENDCHAR
STARTCHAR a3af
ENCODING 41903
SWIDTH 256 0
DWIDTH 16 0
BBX 16 16 0 -2
BITMAP
0000
0000
0000
0000
0000
0000
0000
0000
0000
0000
0000
0000
0000
0000
0000
0000
ENDCHAR
STARTCHAR a3b0
ENCODING 41904
SWIDTH 256 0
DWIDTH 16 0
BBX 16 16 0 -2
BITMAP
0000
07e0
0810
1008
1008
1008
1008
1008
1008
1008
1008
1008
1008
0810
07e0
0000
ENDCHAR
STARTCHAR a3b1
ENCODING 41905
SWIDTH 256 0
DWIDTH 16 0
BBX 16 16 0 -2
BITMAP
0000
0080
0180
0280
0080
0080
0080
0080
0080
0080
0080
0080
0080
0080
01c0
0000
ENDCHAR
STARTCHAR a3b2
ENCODING 41906
SWIDTH 256 0
DWIDTH 16 0
BBX 16 16 0 -2
BITMAP
0000
03e0
0c18
1004
1004
1004
0004
0018
00e0
0300
0400
0800
0800
1000
1ffc
0000
ENDCHAR
STARTCHAR a3b3
ENCODING 41907
SWIDTH 256 0
DWIDTH 16 0
BBX 16 16 0 -2
BITMAP
0000
03e0
0c18
1004
1004
0004
0018
03e0
0018
0004
0004
1004
1004
0c18
03e0
0000
ENDCHAR
STARTCHAR a3b4
ENCODING 41908
SWIDTH 256 0
DWIDTH 16 0
BBX 16 16 0 -2
BITMAP
0000
0010
0030
0050
0090
0090
0110
0210
0410
0810
1010
1ffc
0010
0010
0010
0000
ENDCHAR
STARTCHAR a3b5
ENCODING 41909
SWIDTH 256 0
DWIDTH 16 0
BBX 16 16 0 -2
BITMAP
0000
0ff8
0800
0800
0800
0bc0
0c30
0808
0008
0004
0004
0808
0808
0630
01c0
0000
ENDCHAR
STARTCHAR a3b6
ENCODING 41910
SWIDTH 256 0
DWIDTH 16 0
BBX 16 16 0 -2
BITMAP
0000
03e0
0410
0808
0800
11c0
1630
1808
1008
1004
1004
0808
0808
0630
01c0
0000
ENDCHAR
STARTCHAR a3b7
ENCODING 41911
SWIDTH 256 0
DWIDTH 16 0
BBX 16 16 0 -2
BITMAP
0000
1ffc
0004
0008
0010
0020
0020
0040
0040
0080
0080
0080
0080
0080
0080
0000
ENDCHAR
STARTCHAR a3b8
ENCODING 41912
SWIDTH 256 0
DWIDTH 16 0
BBX 16 16 0 -2
BITMAP
0000
03e0
0c18
1004
1004
1004
0c18
03e0
0c18
1004
1004
1004
1004
0c18
03e0
0000
ENDCHAR
STARTCHAR a3b9
ENCODING 41913
SWIDTH 256 0
DWIDTH 16 0
BBX 16 16 0 -2
BITMAP
0000
01c0
0630
0808
0808
1004
1004
0804
080c
0634
01c4
0008
0808
0410
03e0
0000
ENDCHAR
STARTCHAR a3ba
ENCODING 41914
SWIDTH 256 0
DWIDTH 16 0
BBX 16 16 0 -2
BITMAP
0000
0000
0000
0000
0000
0000
0000
0000
0000
0000
0000
0000
0000
0000
0000
0000
ENDCHAR
STARTCHAR a3bb
ENCODING 41915
SWIDTH 256 0
DWIDTH 16 0
BBX 16 16 0 -2
BITMAP
0000
0000
0000
0000
0000
0000
0000
0000
0000
0000
0000
0000
0000
0000
0000
0000
ENDCHAR
STARTCHAR a3bc
ENCODING 41916
SWIDTH 256 0
DWIDTH 16 0
BBX 16 16 0 -2
BITMAP
0000
0000
0000
0000
0000
0000
0000
0000
0000
0000
0000
0000
0000
0000
0000
0000
ENDCHAR
STARTCHAR a3bd
ENCODING 41917
SWIDTH 256 0
DWIDTH 16 0
BBX 16 16 0 -2
BITMAP
0000
0000
0000
0000
0000
0000
0000
0000
0000
0000
0000
0000
0000
0000
0000
0000
ENDCHAR
STARTCHAR a3be
ENCODING 41918
SWIDTH 256 0
DWIDTH 16 0
BBX 16 16 0 -2
BITMAP
0000
0000
0000
0000
0000
0000
0000
0000
0000
0000
0000
0000
0000
0000
0000
0000
ENDCHAR
STARTCHAR a3bf
ENCODING 41919
SWIDTH 256 0
DWIDTH 16 0
BBX 16 16 0 -2
BITMAP
0000
0000
0000
0000
0000
0000
0000
0000
0000
0000
0000
0000
0000
0000
0000
0000
ENDCHAR
STARTCHAR a3c0
ENCODING 41920
SWIDTH 256 0
DWIDTH 16 0
BBX 16 16 0 -2
BITMAP
0000
0000
0000
0000
0000
0000
0000
0000
0000
0000
0000
0000
0000
0000
0000
0000
ENDCHAR
STARTCHAR a3c1
ENCODING 41921
SWIDTH 256 0
DWIDTH 16 0
BBX 16 16 0 -2
BITMAP
0000
0080
0080
0140
0140
0220
0220
0410
0410
0ff8
0808
1004
1004
380e
0000
0000
ENDCHAR
STARTCHAR a3c2
ENCODING 41922
SWIDTH 256 0
DWIDTH 16 0
BBX 16 16 0 -2
BITMAP
0000
1fe0
0818
0804
0804
0804
0818
0fe0
0818
0804
0804
0804
0818
1fe0
0000
0000
ENDCHAR
STARTCHAR a3c3
ENCODING 41923
SWIDTH 256 0
DWIDTH 16 0
BBX 16 16 0 -2
BITMAP
0000
01e4
0614
080c
0804
1000
1000
1000
1000
1004
0804
0804
0608
01f0
0000
0000
ENDCHAR
STARTCHAR a3c4
ENCODING 41924
SWIDTH 256 0
DWIDTH 16 0
BBX 16 16 0 -2
BITMAP
0000
1fc0
0830
0808
0808
0804
0804
0804
0804
0804
0808
0808
0830
1fc0
0000
0000
ENDCHAR
STARTCHAR a3c5
ENCODING 41925
SWIDTH 256 0
DWIDTH 16 0
BBX 16 16 0 -2
BITMAP
0000
1ff8
0808
0808
0800
0800
0820
0fe0
0820
0800
0800
0808
0808
1ff8
0000
0000
ENDCHAR
STARTCHAR a3c6
ENCODING 41926
SWIDTH 256 0
DWIDTH 16 0
BBX 16 16 0 -2
BITMAP
0000
1ffc
0804
0804
0800
0800
0820
0fe0
0820
0800
0800
0800
0800
1c00
0000
0000
ENDCHAR
STARTCHAR a3c7
ENCODING 41927
SWIDTH 256 0
DWIDTH 16 0
BBX 16 16 0 -2
BITMAP
0000
01e0
0610
0808
0800
1000
1000
1000
107c
1008
0808
0808
0638
01c8
0000
0000
ENDCHAR
STARTCHAR a3c8
ENCODING 41928
SWIDTH 256 0
DWIDTH 16 0
BBX 16 16 0 -2
BITMAP
0000
1c1c
0808
0808
0808
0808
0808
0ff8
0808
0808
0808
0808
0808
1c1c
0000
0000
ENDCHAR
STARTCHAR a3c9
ENCODING 41929
SWIDTH 256 0
DWIDTH 16 0
BBX 16 16 0 -2
BITMAP
0000
01c0
0080
0080
0080
0080
0080
0080
0080
0080
0080
0080
0080
01c0
0000
0000
ENDCHAR
STARTCHAR a3ca
ENCODING 41930
SWIDTH 256 0
DWIDTH 16 0
BBX 16 16 0 -2
BITMAP
0000
0070
0020
0020
0020
0020
0020
0020
0020
0020
0820
0820
0440
0380
0000
0000
ENDCHAR
STARTCHAR a3cb
ENCODING 41931
SWIDTH 256 0
DWIDTH 16 0
BBX 16 16 0 -2
BITMAP
0000
1c1c
0810
0820
0840
0880
0900
0a80
0c40
0840
0820
0820
0810
1c0c
0000
0000
ENDCHAR
STARTCHAR a3cc
ENCODING 41932
SWIDTH 256 0
DWIDTH 16 0
BBX 16 16 0 -2
BITMAP
0000
1c00
0800
0800
0800
0800
0800
0800
0800
0800
0800
0804
0804
1ffc
0000
0000
ENDCHAR
STARTCHAR a3cd
ENCODING 41933
SWIDTH 256 0
DWIDTH 16 0
BBX 16 16 0 -2
BITMAP
0000
7007
280a
280a
2412
2412
2412
2222
2222
2142
2142
2082
2082
7007
0000
0000
ENDCHAR
STARTCHAR a3ce
ENCODING 41934
SWIDTH 256 0
DWIDTH 16 0
BBX 16 16 0 -2
BITMAP
0000
380e
1404
1204
1204
1104
1084
1084
1044
1024
1024
1014
100c
3804
0000
0000
ENDCHAR
STARTCHAR a3cf
ENCODING 41935
SWIDTH 256 0
DWIDTH 16 0
BBX 16 16 0 -2
BITMAP
0000
03e0
0c18
1004
1004
2002
2002
2002
2002
2002
1004
1004
0c18
03e0
0000
0000
ENDCHAR
STARTCHAR a3d0
ENCODING 41936
SWIDTH 256 0
DWIDTH 16 0
BBX 16 16 0 -2
BITMAP
0000
1fe0
0818
0804
0804
0804
0818
0fe0
0800
0800
0800
0800
0800
1c00
0000
0000
ENDCHAR
STARTCHAR a3d1
ENCODING 41937
SWIDTH 256 0
DWIDTH 16 0
BBX 16 16 0 -2
BITMAP
0000
03e0
0c18
1004
1004
2002
2002
2002
2002
2002
11c4
1224
0c19
03e6
0000
0000
ENDCHAR
STARTCHAR a3d2
ENCODING 41938
SWIDTH 256 0
DWIDTH 16 0
BBX 16 16 0 -2
BITMAP
0000
1fe0
0818
0804
0804
0804
0818
0fe0
0880
0840
0820
0810
0808
1c06
0000
0000
ENDCHAR
STARTCHAR a3d3
ENCODING 41939
SWIDTH 256 0
DWIDTH 16 0
BBX 16 16 0 -2
BITMAP
0000
03e4
0c14
100c
1004
1000
0c00
03e0
0018
0004
1004
1804
1418
13e0
0000
0000
ENDCHAR
STARTCHAR a3d4
ENCODING 41940
SWIDTH 256 0
DWIDTH 16 0
BBX 16 16 0 -2
BITMAP
0000
3ffe
2082
2082
0080
0080
0080
0080
0080
0080
0080
0080
0080
01c0
0000
0000
ENDCHAR
STARTCHAR a3d5
ENCODING 41941
SWIDTH 256 0
DWIDTH 16 0
BBX 16 16 0 -2
BITMAP
0000
380e
1004
1004
1004
1004
1004
1004
1004
1004
0808
0808
0630
01c0
0000
0000
ENDCHAR
STARTCHAR a3d6
ENCODING 41942
SWIDTH 256 0
DWIDTH 16 0
BBX 16 16 0 -2
BITMAP
0000
380e
1004
1004
0808
0808
0410
0410
0220
0220
0140
0140
0080
0080
0000
0000
ENDCHAR
STARTCHAR a3d7
ENCODING 41943
SWIDTH 256 0
DWIDTH 16 0
BBX 16 16 0 -2
BITMAP
0000
71c7
2082
2082
1144
1144
1144
1144
0a28
0a28
0a28
0410
0410
0410
0000
0000
ENDCHAR
STARTCHAR a3d8
ENCODING 41944
SWIDTH 256 0
DWIDTH 16 0
BBX 16 16 0 -2
BITMAP
0000
380e
0808
0410
0220
0220
0140
0080
0140
0220
0220
0410
0808
380e
0000
0000
ENDCHAR
STARTCHAR a3d9
ENCODING 41945
SWIDTH 256 0
DWIDTH 16 0
BBX 16 16 0 -2
BITMAP
0000
380e
1004
0808
0410
0410
0220
0140
0080
0080
0080
0080
0080
01c0
0000
0000
ENDCHAR
STARTCHAR a3da
ENCODING 41946
SWIDTH 256 0
DWIDTH 16 0
BBX 16 16 0 -2
BITMAP
0000
1ffc
1008
1010
0020
0020
0040
0080
0100
0200
0200
0404
0804
1ffc
0000
0000
ENDCHAR
STARTCHAR a3db
ENCODING 41947
SWIDTH 256 0
DWIDTH 16 0
BBX 16 16 0 -2
BITMAP
0000
0000
0000
0000
0000
0000
0000
0000
0000
0000
0000
0000
0000
0000
0000
0000
ENDCHAR
STARTCHAR a3dc
ENCODING 41948
SWIDTH 256 0
DWIDTH 16 0
BBX 16 16 0 -2
BITMAP
0000
0000
0000
0000
0000
0000
0000
0000
0000
0000
0000
0000
0000
0000
0000
0000
ENDCHAR
STARTCHAR a3dd
ENCODING 41949
SWIDTH 256 0
DWIDTH 16 0
BBX 16 16 0 -2
BITMAP
0000
0000
0000
0000
0000
0000
0000
0000
0000
0000
0000
0000
0000
0000
0000
0000
ENDCHAR
STARTCHAR a3de
ENCODING 41950
SWIDTH 256 0
DWIDTH 16 0
BBX 16 16 0 -2
BITMAP
0000
0000
0000
0000
0000
0000
0000
0000
0000
0000
0000
0000
0000
0000
0000
0000
ENDCHAR
STARTCHAR a3df
ENCODING 41951
SWIDTH 256 0
DWIDTH 16 0
BBX 16 16 0 -2
BITMAP
0000
0000
0000
0000
0000
0000
0000
0000
0000
0000
0000
0000
0000
0000
0000
0000
ENDCHAR
STARTCHAR a3e0
ENCODING 41952
SWIDTH 256 0
DWIDTH 16 0
BBX 16 16 0 -2
BITMAP
0000
0000
0000
0000
0000
0000
0000
0000
0000
0000
0000
0000
0000
0000
0000
0000
ENDCHAR
STARTCHAR a3e1
ENCODING 41953
SWIDTH 256 0
DWIDTH 16 0
BBX 16 16 0 -2
BITMAP
0000
0000
0000
0000
0000
03c0
0420
0810
01f0
0610
0810
0810
0830
07d8
0000
0000
ENDCHAR
STARTCHAR a3e2
ENCODING 41954
SWIDTH 256 0
DWIDTH 16 0
BBX 16 16 0 -2
BITMAP
0000
0c00
0400
0400
0400
05e0
0610
0408
0408
0408
0408
0408
0610
05e0
0000
0000
ENDCHAR
STARTCHAR a3e3
ENCODING 41955
SWIDTH 256 0
DWIDTH 16 0
BBX 16 16 0 -2
BITMAP
0000
0000
0000
0000
0000
03e0
0410
0808
0800
0800
0800
0808
0410
03e0
0000
0000
ENDCHAR
STARTCHAR a3e4
ENCODING 41956
SWIDTH 256 0
DWIDTH 16 0
BBX 16 16 0 -2
BITMAP
0000
0030
0010
0010
0010
01d0
0230
0410
0410
0410
0410
0410
0230
01d8
0000
0000
ENDCHAR
STARTCHAR a3e5
ENCODING 41957
SWIDTH 256 0
DWIDTH 16 0
BBX 16 16 0 -2
BITMAP
0000
0000
0000
0000
0000
03e0
0410
0808
0808
0ff8
0800
0800
0410
03e0
0000
0000
ENDCHAR
STARTCHAR a3e6
ENCODING 41958
SWIDTH 256 0
DWIDTH 16 0
BBX 16 16 0 -2
BITMAP
0000
00e0
0110
0100
0100
1ff0
0100
0100
0100
0100
0100
0100
0100
0380
0000
0000
ENDCHAR
STARTCHAR a3e7
ENCODING 41959
SWIDTH 256 0
DWIDTH 16 0
BBX 16 16 0 -2
BITMAP
0000
0000
0000
0000
0000
03ec
0418
0808
0808
0808
0808
0418
03e8
0008
0810
07e0
ENDCHAR
STARTCHAR a3e8
ENCODING 41960
SWIDTH 256 0
DWIDTH 16 0
BBX 16 16 0 -2
BITMAP
0000
0c00
0400
0400
0400
05e0
0610
0408
0408
0408
0408
0408
0408
0e1c
0000
0000
ENDCHAR
STARTCHAR a3e9
ENCODING 41961
SWIDTH 256 0
DWIDTH 16 0
BBX 16 16 0 -2
BITMAP
0000
0080
01c0
0080
0000
0000
0180
0080
0080
0080
0080
0080
0080
01c0
0000
0000
ENDCHAR
STARTCHAR a3ea
ENCODING 41962
SWIDTH 256 0
DWIDTH 16 0
BBX 16 16 0 -2
BITMAP
0000
0040
00e0
0040
0000
0000
00c0
0040
0040
0040
0040
0040
0040
0040
0440
0380
ENDCHAR
STARTCHAR a3eb
ENCODING 41963
SWIDTH 256 0
DWIDTH 16 0
BBX 16 16 0 -2
BITMAP
0000
0c00
0400
0400
0400
0438
0410
0460
0580
0640
0420
0420
0410
0e1c
0000
0000
ENDCHAR
STARTCHAR a3ec
ENCODING 41964
SWIDTH 256 0
DWIDTH 16 0
BBX 16 16 0 -2
BITMAP
0000
0180
0080
0080
0080
0080
0080
0080
0080
0080
0080
0080
0080
01c0
0000
0000
ENDCHAR
STARTCHAR a3ed
ENCODING 41965
SWIDTH 256 0
DWIDTH 16 0
BBX 16 16 0 -2
BITMAP
0000
0000
0000
0000
0000
3630
1948
1084
1084
1084
1084
1084
1084
39ce
0000
0000
ENDCHAR
STARTCHAR a3ee
ENCODING 41966
SWIDTH 256 0
DWIDTH 16 0
BBX 16 16 0 -2
BITMAP
0000
0000
0000
0000
0000
0de0
0610
0408
0408
0408
0408
0408
0408
0e1c
0000
0000
ENDCHAR
STARTCHAR a3ef
ENCODING 41967
SWIDTH 256 0
DWIDTH 16 0
BBX 16 16 0 -2
BITMAP
0000
0000
0000
0000
0000
03e0
0410
0808
0808
0808
0808
0808
0410
03e0
0000
0000
ENDCHAR
STARTCHAR a3f0
ENCODING 41968
SWIDTH 256 0
DWIDTH 16 0
BBX 16 16 0 -2
BITMAP
0000
0000
0000
0000
0000
0de0
0610
0408
0408
0408
0408
0610
05e0
0400
0400
0e00
ENDCHAR
STARTCHAR a3f1
ENCODING 41969
SWIDTH 256 0
DWIDTH 16 0
BBX 16 16 0 -2
BITMAP
0000
0000
0000
0000
0000
03d8
0430
0810
0810
0810
0810
0430
03d0
0010
0010
0038
ENDCHAR
STARTCHAR a3f2
ENCODING 41970
SWIDTH 256 0
DWIDTH 16 0
BBX 16 16 0 -2
BITMAP
0000
0000
0000
0000
0000
06e0
0310
0210
0200
0200
0200
0200
0200
0700
0000
0000
ENDCHAR
STARTCHAR a3f3
ENCODING 41971
SWIDTH 256 0
DWIDTH 16 0
BBX 16 16 0 -2
BITMAP
0000
0000
0000
0000
0000
07e0
0810
0810
0600
01c0
0030
0808
0808
07f0
0000
0000
ENDCHAR
STARTCHAR a3f4
ENCODING 41972
SWIDTH 256 0
DWIDTH 16 0
BBX 16 16 0 -2
BITMAP
0000
0000
0000
0100
0100
0100
0fe0
0100
0100
0100
0100
0100
0110
00e0
0000
0000
ENDCHAR
STARTCHAR a3f5
ENCODING 41973
SWIDTH 256 0
DWIDTH 16 0
BBX 16 16 0 -2
BITMAP
0000
0000
0000
0000
0000
1830
0810
0810
0810
0810
0810
0810
0430
03d8
0000
0000
ENDCHAR
STARTCHAR a3f6
ENCODING 41974
SWIDTH 256 0
DWIDTH 16 0
BBX 16 16 0 -2
BITMAP
0000
0000
0000
0000
0000
1c1c
0808
0410
0410
0220
0220
0140
0140
0080
0000
0000
ENDCHAR
STARTCHAR a3f7
ENCODING 41975
SWIDTH 256 0
DWIDTH 16 0
BBX 16 16 0 -2
BITMAP
0000
0000
0000
0000
0000
7087
2082
1144
1144
0a28
0a28
0a28
0410
0410
0000
0000
ENDCHAR
STARTCHAR a3f8
ENCODING 41976
SWIDTH 256 0
DWIDTH 16 0
BBX 16 16 0 -2
BITMAP
0000
0000
0000
0000
0000
1c1c
0410
0220
0140
0080
0140
0220
0410
1c1c
0000
0000
ENDCHAR
STARTCHAR a3f9
ENCODING 41977
SWIDTH 256 0
DWIDTH 16 0
BBX 16 16 0 -2
BITMAP
0000
0000
0000
0000
0000
1c1c
0808
0410
0410
0220
0220
0140
0180
0080
0900
0600
ENDCHAR
STARTCHAR a3fa
ENCODING 41978
SWIDTH 256 0
DWIDTH 16 0
BBX 16 16 0 -2
BITMAP
0000
0000
0000
0000
0000
0ff8
0808
0810
0060
0080
0300
0408
0808
0ff8
0000
0000
ENDCHAR
STARTCHAR a3fb
ENCODING 41979
SWIDTH 256 0
DWIDTH 16 0
BBX 16 16 0 -2
BITMAP
0000
0000
0000
0000
0000
0000
0000
0000
0000
0000
0000
0000
0000
0000
0000
0000
ENDCHAR
STARTCHAR a3fc
ENCODING 41980
SWIDTH 256 0
DWIDTH 16 0
BBX 16 16 0 -2
BITMAP
0000
0000
0000
0000
0000
0000
0000
0000
0000
0000
0000
0000
0000
0000
0000
0000
ENDCHAR
STARTCHAR a3fd
ENCODING 41981
SWIDTH 256 0
DWIDTH 16 0
BBX 16 16 0 -2
BITMAP
0000
0000
0000
0000
0000
0000
0000
0000
0000
0000
0000
0000
0000
0000
0000
0000
ENDCHAR
STARTCHAR a3fe
ENCODING 41982
SWIDTH 256 0
DWIDTH 16 0
BBX 16 16 0 -2
BITMAP
0000
0000
0000
0000
0000
0000
0000
0000
0000
0000
0000
0000
0000
0000
0000
0000
ENDCHAR
STARTCHAR a4a1
ENCODING 42145
SWIDTH 256 0
DWIDTH 16 0
BBX 16 16 0 -2
BITMAP
0000
0000
0000
0000
0400
0400
1fc0
0400
0780
1cc0
2520
2220
2520
1840
0180
0000
ENDCHAR
STARTCHAR a4a2
ENCODING 42146
SWIDTH 256 0
DWIDTH 16 0
BBX 16 16 0 -2
BITMAP
0000
0200
0108
1170
0f80
0200
02f0
074c
0a42
1242
1182
2182
2604
1818
00e0
0000
ENDCHAR
STARTCHAR a4a3
ENCODING 42147
SWIDTH 256 0
DWIDTH 16 0
BBX 16 16 0 -2
BITMAP
0000
0000
0000
0000
0000
2000
2040
2020
2020
2010
2010
2070
1410
1800
0800
0000
ENDCHAR
STARTCHAR a4a4
ENCODING 42148
SWIDTH 256 0
DWIDTH 16 0
BBX 16 16 0 -2
BITMAP
0000
0000
2000
1010
1008
2004
2004
2002
2002
221a
2406
1402
1800
0c00
0000
0000
ENDCHAR
STARTCHAR a4a5
ENCODING 42149
SWIDTH 256 0
DWIDTH 16 0
BBX 16 16 0 -2
BITMAP
0000
0000
0000
0400
0380
0100
0000
07c0
1820
0020
0020
0020
0040
0180
0600
0000
ENDCHAR
STARTCHAR a4a6
ENCODING 42150
SWIDTH 256 0
DWIDTH 16 0
BBX 16 16 0 -2
BITMAP
0200
01e0
0040
0000
01e0
1610
0808
0008
0008
0008
0010
0010
0020
00c0
0300
0000
ENDCHAR
STARTCHAR a4a7
ENCODING 42151
SWIDTH 256 0
DWIDTH 16 0
BBX 16 16 0 -2
BITMAP
0000
0000
0000
0400
0380
0100
0000
1fc0
0080
0100
0200
0700
0880
1080
2070
0000
ENDCHAR
STARTCHAR a4a8
ENCODING 42152
SWIDTH 256 0
DWIDTH 16 0
BBX 16 16 0 -2
BITMAP
0200
01e0
0040
0000
11f0
0e20
0040
0080
0100
01c0
0220
0420
0820
1020
201e
0000
ENDCHAR
STARTCHAR a4a9
ENCODING 42153
SWIDTH 256 0
DWIDTH 16 0
BBX 16 16 0 -2
BITMAP
0000
0000
0000
0000
0400
0440
3f20
0410
0400
05e0
0610
0c10
1410
2420
0cc0
0000
ENDCHAR
STARTCHAR a4aa
ENCODING 42154
SWIDTH 256 0
DWIDTH 16 0
BBX 16 16 0 -2
BITMAP
0000
0800
0400
0418
0484
2702
1c00
0470
0588
0604
0c04
1404
2518
0ce0
0400
0000
ENDCHAR
STARTCHAR a4ab
ENCODING 42155
SWIDTH 256 0
DWIDTH 16 0
BBX 16 16 0 -2
BITMAP
0000
0400
0200
0400
0590
4e48
3444
0444
0442
084e
0842
1040
1480
2280
4300
0000
ENDCHAR
STARTCHAR a4ac
ENCODING 42156
SWIDTH 256 0
DWIDTH 16 0
BBX 16 16 0 -2
BITMAP
0002
0411
0208
0400
0590
4e48
3444
0444
0442
084e
0842
1040
1480
2280
4300
0000
ENDCHAR
STARTCHAR a4ad
ENCODING 42157
SWIDTH 256 0
DWIDTH 16 0
BBX 16 16 0 -2
BITMAP
0000
0300
0088
08f0
0780
0044
1038
0fe0
0010
0010
07f8
0808
0800
0400
03e0
0000
ENDCHAR
STARTCHAR a4ae
ENCODING 42158
SWIDTH 256 0
DWIDTH 16 0
BBX 16 16 0 -2
BITMAP
0002
0601
0114
11e2
0f00
0088
2070
1fc0
0020
0020
0ff0
1010
1000
0800
07c0
0000
ENDCHAR
STARTCHAR a4af
ENCODING 42159
SWIDTH 256 0
DWIDTH 16 0
BBX 16 16 0 -2
BITMAP
0000
0020
0010
0020
0040
0180
0600
0800
0800
0600
0180
0040
0020
0010
0008
0008
ENDCHAR
STARTCHAR a4b0
ENCODING 42160
SWIDTH 256 0
DWIDTH 16 0
BBX 16 16 0 -2
BITMAP
0000
0020
0010
0022
0041
0188
0604
0800
0800
0600
0180
0040
0020
0010
0008
0008
ENDCHAR
STARTCHAR a4b1
ENCODING 42161
SWIDTH 256 0
DWIDTH 16 0
BBX 16 16 0 -2
BITMAP
0000
0020
2010
1010
1012
121c
21f0
2010
2010
2010
2810
2810
3020
10c0
0300
0000
ENDCHAR
STARTCHAR a4b2
ENCODING 42162
SWIDTH 256 0
DWIDTH 16 0
BBX 16 16 0 -2
BITMAP
0002
0041
4028
2024
2020
243c
43e0
4020
4020
4020
5020
5020
6040
2180
0600
0000
ENDCHAR
STARTCHAR a4b3
ENCODING 42163
SWIDTH 256 0
DWIDTH 16 0
BBX 16 16 0 -2
BITMAP
0000
0000
0418
03e0
0040
0080
0000
0000
0000
0800
1000
1000
0c04
03f8
0000
0000
ENDCHAR
STARTCHAR a4b4
ENCODING 42164
SWIDTH 256 0
DWIDTH 16 0
BBX 16 16 0 -2
BITMAP
0000
0000
0418
03e0
0044
0082
0010
0008
0000
0800
1000
1000
0c04
03f8
0000
0000
ENDCHAR
STARTCHAR a4b5
ENCODING 42165
SWIDTH 256 0
DWIDTH 16 0
BBX 16 16 0 -2
BITMAP
0000
0300
0080
0084
1078
0fc0
0040
0020
0020
0ff0
1010
1000
1000
0c00
03e0
0000
ENDCHAR
STARTCHAR a4b6
ENCODING 42166
SWIDTH 256 0
DWIDTH 16 0
BBX 16 16 0 -2
BITMAP
0012
0309
0080
0084
1078
0fc0
0040
0020
0020
0ff0
1010
1000
1000
0c00
03e0
0000
ENDCHAR
STARTCHAR a4b7
ENCODING 42167
SWIDTH 256 0
DWIDTH 16 0
BBX 16 16 0 -2
BITMAP
0000
1000
0800
0c00
0800
0800
0800
0800
0800
0804
0804
0808
0810
0460
0380
0000
ENDCHAR
STARTCHAR a4b8
ENCODING 42168
SWIDTH 256 0
DWIDTH 16 0
BBX 16 16 0 -2
BITMAP
0000
1000
0810
0c08
0840
0820
0800
0800
0800
0804
0804
0808
0810
0460
0380
0000
ENDCHAR
STARTCHAR a4b9
ENCODING 42169
SWIDTH 256 0
DWIDTH 16 0
BBX 16 16 0 -2
BITMAP
0000
0180
0040
407e
3fc0
0040
0040
07c0
0840
0840
07c0
0040
0080
0300
0c00
0000
ENDCHAR
STARTCHAR a4ba
ENCODING 42170
SWIDTH 256 0
DWIDTH 16 0
BBX 16 16 0 -2
BITMAP
0012
0189
0040
207e
1fc0
0040
0040
03c0
0440
0440
03c0
0040
0080
0300
0c00
0000
ENDCHAR
STARTCHAR a4bb
ENCODING 42171
SWIDTH 256 0
DWIDTH 16 0
BBX 16 16 0 -2
BITMAP
0000
0020
0810
0410
0410
041e
27f0
1c10
0410
0410
0450
0420
0400
0400
03f8
0000
ENDCHAR
STARTCHAR a4bc
ENCODING 42172
SWIDTH 256 0
DWIDTH 16 0
BBX 16 16 0 -2
BITMAP
0002
0041
1028
0824
0820
083c
4fe0
3820
0820
0820
08a0
0840
0800
0800
07f0
0000
ENDCHAR
STARTCHAR a4bd
ENCODING 42173
SWIDTH 256 0
DWIDTH 16 0
BBX 16 16 0 -2
BITMAP
0000
09f0
0620
0040
0180
0200
0c3e
11c0
3e80
0080
0100
0100
0100
0080
0078
0000
ENDCHAR
STARTCHAR a4be
ENCODING 42174
SWIDTH 256 0
DWIDTH 16 0
BBX 16 16 0 -2
BITMAP
0002
09f1
0620
0044
0182
0200
0c3e
11c0
3e80
0080
0100
0100
0100
0080
0078
0000
ENDCHAR
STARTCHAR a4bf
ENCODING 42175
SWIDTH 256 0
DWIDTH 16 0
BBX 16 16 0 -2
BITMAP
0000
0c00
0400
0480
4700
3c00
0878
088c
0810
1000
1000
1100
2100
2080
407c
0000
ENDCHAR
STARTCHAR a4c0
ENCODING 42176
SWIDTH 256 0
DWIDTH 16 0
BBX 16 16 0 -2
BITMAP
0002
0c01
0408
0484
4700
3c00
0878
088c
0810
1000
1000
1100
2100
2080
407c
0000
ENDCHAR
STARTCHAR a4c1
ENCODING 42177
SWIDTH 256 0
DWIDTH 16 0
BBX 16 16 0 -2
BITMAP
0000
0600
0200
0220
23c0
1e00
0200
0478
0584
0e04
0804
0004
0008
0030
03c0
0000
ENDCHAR
STARTCHAR a4c2
ENCODING 42178
SWIDTH 256 0
DWIDTH 16 0
BBX 16 16 0 -2
BITMAP
0002
0601
0208
0224
23c0
1e00
0200
0478
0584
0e04
0804
0004
0008
0030
03c0
0000
ENDCHAR
STARTCHAR a4c3
ENCODING 42179
SWIDTH 256 0
DWIDTH 16 0
BBX 16 16 0 -2
BITMAP
0000
0000
0000
0000
0000
0000
03c0
0c20
3010
0010
0010
0020
00c0
0700
0000
0000
ENDCHAR
STARTCHAR a4c4
ENCODING 42180
SWIDTH 256 0
DWIDTH 16 0
BBX 16 16 0 -2
BITMAP
0000
0000
0000
01e0
0618
5804
2002
0002
0002
0002
0004
0018
0060
0380
0000
0000
ENDCHAR
STARTCHAR a4c5
ENCODING 42181
SWIDTH 256 0
DWIDTH 16 0
BBX 16 16 0 -2
BITMAP
0002
0011
0008
01e0
0618
5804
2002
0002
0002
0002
0004
0018
0060
0380
0000
0000
ENDCHAR
STARTCHAR a4c6
ENCODING 42182
SWIDTH 256 0
DWIDTH 16 0
BBX 16 16 0 -2
BITMAP
0000
0000
007e
2398
1c20
0040
0080
0080
0100
0100
0100
0100
0080
007c
0000
0000
ENDCHAR
STARTCHAR a4c7
ENCODING 42183
SWIDTH 256 0
DWIDTH 16 0
BBX 16 16 0 -2
BITMAP
0000
0000
007e
2398
1c22
0041
0088
0084
0100
0100
0100
0100
0080
007c
0000
0000
ENDCHAR
STARTCHAR a4c8
ENCODING 42184
SWIDTH 256 0
DWIDTH 16 0
BBX 16 16 0 -2
BITMAP
0000
0400
0200
0200
0200
0208
0270
0180
0600
0800
1000
1000
1000
0c04
03f8
0000
ENDCHAR
STARTCHAR a4c9
ENCODING 42185
SWIDTH 256 0
DWIDTH 16 0
BBX 16 16 0 -2
BITMAP
0004
0422
0210
0200
0200
0208
0270
0180
0600
0800
1000
1000
1000
0c04
03f8
0000
ENDCHAR
STARTCHAR a4ca
ENCODING 42186
SWIDTH 256 0
DWIDTH 16 0
BBX 16 16 0 -2
BITMAP
0000
0c00
0480
4700
3c3c
0806
0808
1020
1020
2010
2010
41f0
021c
0212
01e0
0000
ENDCHAR
STARTCHAR a4cb
ENCODING 42187
SWIDTH 256 0
DWIDTH 16 0
BBX 16 16 0 -2
BITMAP
0000
0000
2000
113c
10c8
1010
1000
2000
2000
2100
2100
2900
2880
307c
1000
0000
ENDCHAR
STARTCHAR a4cc
ENCODING 42188
SWIDTH 256 0
DWIDTH 16 0
BBX 16 16 0 -2
BITMAP
0000
0100
0080
2100
11f0
1308
1504
1904
1104
2a04
2a04
247c
2a84
108a
0070
0000
ENDCHAR
STARTCHAR a4cd
ENCODING 42189
SWIDTH 256 0
DWIDTH 16 0
BBX 16 16 0 -2
BITMAP
0000
1000
0800
0838
0cc4
5904
2a04
0c04
0804
0804
187c
2884
488a
1870
0800
0000
ENDCHAR
STARTCHAR a4ce
ENCODING 42190
SWIDTH 256 0
DWIDTH 16 0
BBX 16 16 0 -2
BITMAP
0000
0000
01e0
0698
0884
1082
1082
2102
2102
2102
2204
1204
0c18
00e0
0000
0000
ENDCHAR
STARTCHAR a4cf
ENCODING 42191
SWIDTH 256 0
DWIDTH 16 0
BBX 16 16 0 -2
BITMAP
0000
0020
2010
1012
121c
11f0
1010
2010
2010
2008
2008
28f8
290c
310a
10f0
0000
ENDCHAR
STARTCHAR a4d0
ENCODING 42192
SWIDTH 256 0
DWIDTH 16 0
BBX 16 16 0 -2
BITMAP
0012
0049
4020
2024
2438
23e0
2020
4020
4020
4010
4010
51f0
5218
6214
21e0
0000
ENDCHAR
STARTCHAR a4d1
ENCODING 42193
SWIDTH 256 0
DWIDTH 16 0
BBX 16 16 0 -2
BITMAP
0006
0049
4029
2026
2438
23e0
2020
4020
4020
4010
4010
51f0
5218
6214
21e0
0000
ENDCHAR
STARTCHAR a4d2
ENCODING 42194
SWIDTH 256 0
DWIDTH 16 0
BBX 16 16 0 -2
BITMAP
0000
0000
0220
4420
3830
0830
1028
1026
2020
2020
2020
2040
2040
1080
0f00
0000
ENDCHAR
STARTCHAR a4d3
ENCODING 42195
SWIDTH 256 0
DWIDTH 16 0
BBX 16 16 0 -2
BITMAP
0002
0001
0224
4422
3830
0830
1028
1026
2020
2020
2020
2040
2040
1080
0f00
0000
ENDCHAR
STARTCHAR a4d4
ENCODING 42196
SWIDTH 256 0
DWIDTH 16 0
BBX 16 16 0 -2
BITMAP
0006
0009
0229
4426
3830
0830
1028
1026
2020
2020
2020
2040
2040
1080
0f00
0000
ENDCHAR
STARTCHAR a4d5
ENCODING 42197
SWIDTH 256 0
DWIDTH 16 0
BBX 16 16 0 -2
BITMAP
0000
0400
03c0
0080
0100
0200
0200
0100
00e0
0398
0c44
5042
6042
0440
0380
0000
ENDCHAR
STARTCHAR a4d6
ENCODING 42198
SWIDTH 256 0
DWIDTH 16 0
BBX 16 16 0 -2
BITMAP
0000
0404
03c2
0090
0108
0200
0200
0100
00e0
0398
0c44
5042
6042
0440
0380
0000
ENDCHAR
STARTCHAR a4d7
ENCODING 42199
SWIDTH 256 0
DWIDTH 16 0
BBX 16 16 0 -2
BITMAP
0000
0400
03cc
0092
0112
020c
0200
0100
00e0
0398
0c44
5042
6042
0440
0380
0000
ENDCHAR
STARTCHAR a4d8
ENCODING 42200
SWIDTH 256 0
DWIDTH 16 0
BBX 16 16 0 -2
BITMAP
0000
0000
0000
0000
0300
0480
0840
5040
2020
0010
0010
0008
0006
0000
0000
0000
ENDCHAR
STARTCHAR a4d9
ENCODING 42201
SWIDTH 256 0
DWIDTH 16 0
BBX 16 16 0 -2
BITMAP
0000
0004
0002
0010
0308
0480
0840
5040
2020
0010
0010
0008
0006
0000
0000
0000
ENDCHAR
STARTCHAR a4da
ENCODING 42202
SWIDTH 256 0
DWIDTH 16 0
BBX 16 16 0 -2
BITMAP
0000
0000
000c
0012
0312
048c
0840
5040
2020
0010
0010
0008
0006
0000
0000
0000
ENDCHAR
STARTCHAR a4db
ENCODING 42203
SWIDTH 256 0
DWIDTH 16 0
BBX 16 16 0 -2
BITMAP
0000
0000
210c
10f0
1010
1012
121c
21f0
2010
2008
2008
28f8
290c
310a
10f0
0000
ENDCHAR
STARTCHAR a4dc
ENCODING 42204
SWIDTH 256 0
DWIDTH 16 0
BBX 16 16 0 -2
BITMAP
0002
0001
4218
21e2
2021
2024
2438
43e0
4020
4010
4010
51f0
5218
6214
21e0
0000
ENDCHAR
STARTCHAR a4dd
ENCODING 42205
SWIDTH 256 0
DWIDTH 16 0
BBX 16 16 0 -2
BITMAP
0006
0009
2109
10f6
1010
1012
121c
21f0
2010
2008
2008
28f8
290c
310a
10f0
0000
ENDCHAR
STARTCHAR a4de
ENCODING 42206
SWIDTH 256 0
DWIDTH 16 0
BBX 16 16 0 -2
BITMAP
0000
00c0
0040
104c
0ff0
0040
0444
0858
07e0
0040
0020
07e0
0838
0824
07c0
0000
ENDCHAR
STARTCHAR a4df
ENCODING 42207
SWIDTH 256 0
DWIDTH 16 0
BBX 16 16 0 -2
BITMAP
0000
1380
0c40
0080
0080
0110
0108
0788
1968
2218
440c
4412
4810
3020
01c0
0000
ENDCHAR
STARTCHAR a4e0
ENCODING 42208
SWIDTH 256 0
DWIDTH 16 0
BBX 16 16 0 -2
BITMAP
0000
1000
0800
4900
3e18
0804
0802
3800
4810
4808
3008
1008
1008
0c30
03c0
0000
ENDCHAR
STARTCHAR a4e1
ENCODING 42209
SWIDTH 256 0
DWIDTH 16 0
BBX 16 16 0 -2
BITMAP
0000
0040
1020
0840
09f0
0e48
0884
1482
2502
2202
2304
2404
1818
00e0
0000
0000
ENDCHAR
STARTCHAR a4e2
ENCODING 42210
SWIDTH 256 0
DWIDTH 16 0
BBX 16 16 0 -2
BITMAP
0000
0200
0100
0100
1100
0fc0
0208
1204
2242
1f82
0402
0404
0404
0208
01f0
0000
ENDCHAR
STARTCHAR a4e3
ENCODING 42211
SWIDTH 256 0
DWIDTH 16 0
BBX 16 16 0 -2
BITMAP
0000
0000
0000
0000
0100
1080
0800
09e0
0e10
3810
0410
04e0
0200
0200
0200
0000
ENDCHAR
STARTCHAR a4e4
ENCODING 42212
SWIDTH 256 0
DWIDTH 16 0
BBX 16 16 0 -2
BITMAP
0000
0180
0040
1000
0878
0984
4e02
3802
0402
0484
0478
0200
0200
0200
0200
0000
ENDCHAR
STARTCHAR a4e5
ENCODING 42213
SWIDTH 256 0
DWIDTH 16 0
BBX 16 16 0 -2
BITMAP
0000
0000
0000
0000
0100
2080
23c0
24a0
2890
2890
3090
24a0
13c0
0100
0600
0000
ENDCHAR
STARTCHAR a4e6
ENCODING 42214
SWIDTH 256 0
DWIDTH 16 0
BBX 16 16 0 -2
BITMAP
0000
0040
2020
1020
10f8
1324
2422
2422
2822
2a22
31a4
1078
0040
0180
0600
0000
ENDCHAR
STARTCHAR a4e7
ENCODING 42215
SWIDTH 256 0
DWIDTH 16 0
BBX 16 16 0 -2
BITMAP
0000
0000
0000
0000
0200
0100
0100
01e0
0100
0100
0100
1f00
21e0
2110
1e00
0000
ENDCHAR
STARTCHAR a4e8
ENCODING 42216
SWIDTH 256 0
DWIDTH 16 0
BBX 16 16 0 -2
BITMAP
0000
0100
0080
0080
0084
00f8
0080
0080
0040
0040
1fc0
2070
204c
1882
0700
0000
ENDCHAR
STARTCHAR a4e9
ENCODING 42217
SWIDTH 256 0
DWIDTH 16 0
BBX 16 16 0 -2
BITMAP
0000
0400
03c0
0080
0000
0400
0800
08f0
0b08
0c04
0804
0004
0008
0070
0380
0000
ENDCHAR
STARTCHAR a4ea
ENCODING 42218
SWIDTH 256 0
DWIDTH 16 0
BBX 16 16 0 -2
BITMAP
0000
0800
0460
0490
0908
0908
0a08
0a08
0a08
0c08
0410
0010
0020
00c0
0300
0000
ENDCHAR
STARTCHAR a4eb
ENCODING 42219
SWIDTH 256 0
DWIDTH 16 0
BBX 16 16 0 -2
BITMAP
0000
0000
08f0
0720
0040
0080
0100
03f0
0608
0804
1004
01c4
0224
0228
01f0
0000
ENDCHAR
STARTCHAR a4ec
ENCODING 42220
SWIDTH 256 0
DWIDTH 16 0
BBX 16 16 0 -2
BITMAP
0000
1000
0800
0830
0cc8
5908
2a08
0c08
1810
1810
2810
4811
0812
180c
0800
0000
ENDCHAR
STARTCHAR a4ed
ENCODING 42221
SWIDTH 256 0
DWIDTH 16 0
BBX 16 16 0 -2
BITMAP
0000
0000
08f0
0720
0040
0080
0100
03f0
0608
0804
1004
0004
0008
0030
03c0
0000
ENDCHAR
STARTCHAR a4ee
ENCODING 42222
SWIDTH 256 0
DWIDTH 16 0
BBX 16 16 0 -2
BITMAP
0000
0000
0000
0000
0800
0800
38c0
0b20
0c10
0810
1810
2810
0820
19c0
0800
0000
ENDCHAR
STARTCHAR a4ef
ENCODING 42223
SWIDTH 256 0
DWIDTH 16 0
BBX 16 16 0 -2
BITMAP
0000
1000
0800
0800
0c70
598c
2a02
0c02
1802
1802
2802
4804
0818
18e0
0800
0000
ENDCHAR
STARTCHAR a4f0
ENCODING 42224
SWIDTH 256 0
DWIDTH 16 0
BBX 16 16 0 -2
BITMAP
0000
0000
09c0
0640
0080
0080
03f8
0d04
1102
2202
2202
24e2
2514
1918
00e0
0000
ENDCHAR
STARTCHAR a4f1
ENCODING 42225
SWIDTH 256 0
DWIDTH 16 0
BBX 16 16 0 -2
BITMAP
0000
09e0
0640
0080
0100
03f0
0608
0808
1188
0110
02e0
0400
0e38
1144
2082
0000
ENDCHAR
STARTCHAR a4f2
ENCODING 42226
SWIDTH 256 0
DWIDTH 16 0
BBX 16 16 0 -2
BITMAP
0000
0300
0120
21c0
1f00
0408
0984
0e58
1060
21c0
0240
0440
0400
0408
03f0
0000
ENDCHAR
STARTCHAR a4f3
ENCODING 42227
SWIDTH 256 0
DWIDTH 16 0
BBX 16 16 0 -2
BITMAP
0000
0100
0080
0100
0100
0200
0200
0400
0580
0e40
0842
1042
1044
2044
2038
0000
ENDCHAR
STARTCHAR a4f4
ENCODING 42228
SWIDTH 256 0
DWIDTH 16 0
BBX 16 16 0 -2
BITMAP
0000
0000
0000
0000
0000
0000
0000
0000
0000
0000
0000
0000
0000
0000
0000
0000
ENDCHAR
STARTCHAR a4f5
ENCODING 42229
SWIDTH 256 0
DWIDTH 16 0
BBX 16 16 0 -2
BITMAP
0000
0000
0000
0000
0000
0000
0000
0000
0000
0000
0000
0000
0000
0000
0000
0000
ENDCHAR
STARTCHAR a4f6
ENCODING 42230
SWIDTH 256 0
DWIDTH 16 0
BBX 16 16 0 -2
BITMAP
0000
0000
0000
0000
0000
0000
0000
0000
0000
0000
0000
0000
0000
0000
0000
0000
ENDCHAR
STARTCHAR a4f7
ENCODING 42231
SWIDTH 256 0
DWIDTH 16 0
BBX 16 16 0 -2
BITMAP
0000
0000
0000
0000
0000
0000
0000
0000
0000
0000
0000
0000
0000
0000
0000
0000
ENDCHAR
STARTCHAR a4f8
ENCODING 42232
SWIDTH 256 0
DWIDTH 16 0
BBX 16 16 0 -2
BITMAP
0000
0000
0000
0000
0000
0000
0000
0000
0000
0000
0000
0000
0000
0000
0000
0000
ENDCHAR
STARTCHAR a4f9
ENCODING 42233
SWIDTH 256 0
DWIDTH 16 0
BBX 16 16 0 -2
BITMAP
0000
0000
0000
0000
0000
0000
0000
0000
0000
0000
0000
0000
0000
0000
0000
0000
ENDCHAR
STARTCHAR a4fa
ENCODING 42234
SWIDTH 256 0
DWIDTH 16 0
BBX 16 16 0 -2
BITMAP
0000
0000
0000
0000
0000
0000
0000
0000
0000
0000
0000
0000
0000
0000
0000
0000
ENDCHAR
STARTCHAR a4fb
ENCODING 42235
SWIDTH 256 0
DWIDTH 16 0
BBX 16 16 0 -2
BITMAP
0000
0000
0000
0000
0000
0000
0000
0000
0000
0000
0000
0000
0000
0000
0000
0000
ENDCHAR
STARTCHAR a4fc
ENCODING 42236
SWIDTH 256 0
DWIDTH 16 0
BBX 16 16 0 -2
BITMAP
0000
0000
0000
0000
0000
0000
0000
0000
0000
0000
0000
0000
0000
0000
0000
0000
ENDCHAR
STARTCHAR a4fd
ENCODING 42237
SWIDTH 256 0
DWIDTH 16 0
BBX 16 16 0 -2
BITMAP
0000
0000
0000
0000
0000
0000
0000
0000
0000
0000
0000
0000
0000
0000
0000
0000
ENDCHAR
STARTCHAR a4fe
ENCODING 42238
SWIDTH 256 0
DWIDTH 16 0
BBX 16 16 0 -2
BITMAP
0000
0000
0000
0000
0000
0000
0000
0000
0000
0000
0000
0000
0000
0000
0000
0000
ENDCHAR
STARTCHAR a5a1
ENCODING 42401
SWIDTH 256 0
DWIDTH 16 0
BBX 16 16 0 -2
BITMAP
0000
0000
0000
0000
0000
7ff0
0010
0020
02c0
0300
0200
0200
0200
0400
1800
0000
ENDCHAR
STARTCHAR a5a2
ENCODING 42402
SWIDTH 256 0
DWIDTH 16 0
BBX 16 16 0 -2
BITMAP
0000
0000
7ffe
0002
0002
0084
0088
00b0
00c0
0080
0080
0100
0100
0600
1800
0000
ENDCHAR
STARTCHAR a5a3
ENCODING 42403
SWIDTH 256 0
DWIDTH 16 0
BBX 16 16 0 -2
BITMAP
0000
0000
0000
0000
0010
0010
0020
0020
0040
0180
0680
3880
0080
0080
0080
0000
ENDCHAR
STARTCHAR a5a4
ENCODING 42404
SWIDTH 256 0
DWIDTH 16 0
BBX 16 16 0 -2
BITMAP
0000
0004
0004
0008
0008
0010
0020
00c0
0740
3840
0040
0040
0040
0040
0040
0000
ENDCHAR
STARTCHAR a5a5
ENCODING 42405
SWIDTH 256 0
DWIDTH 16 0
BBX 16 16 0 -2
BITMAP
0000
0000
0000
0000
0100
0100
1ff0
1010
1010
1010
0020
0020
0040
0180
0600
0000
ENDCHAR
STARTCHAR a5a6
ENCODING 42406
SWIDTH 256 0
DWIDTH 16 0
BBX 16 16 0 -2
BITMAP
0000
0080
0080
1ffc
1004
1004
1004
1004
1004
0008
0008
0010
0020
00c0
0300
0000
ENDCHAR
STARTCHAR a5a7
ENCODING 42407
SWIDTH 256 0
DWIDTH 16 0
BBX 16 16 0 -2
BITMAP
0000
0000
0000
0000
0000
0000
1fc0
0200
0200
0200
0200
0200
0200
3fe0
0000
0000
ENDCHAR
STARTCHAR a5a8
ENCODING 42408
SWIDTH 256 0
DWIDTH 16 0
BBX 16 16 0 -2
BITMAP
0000
0000
0000
1ffc
0080
0080
0080
0080
0080
0080
0080
0080
0080
3ffe
0000
0000
ENDCHAR
STARTCHAR a5a9
ENCODING 42409
SWIDTH 256 0
DWIDTH 16 0
BBX 16 16 0 -2
BITMAP
0000
0000
0000
0000
0080
0080
3ff0
0080
0180
0280
0480
0880
1080
2080
0180
0000
ENDCHAR
STARTCHAR a5aa
ENCODING 42410
SWIDTH 256 0
DWIDTH 16 0
BBX 16 16 0 -2
BITMAP
0000
0020
0020
0020
3ffe
0020
0060
00a0
00a0
0120
0220
0c20
3020
0020
00e0
0000
ENDCHAR
STARTCHAR a5ab
ENCODING 42411
SWIDTH 256 0
DWIDTH 16 0
BBX 16 16 0 -2
BITMAP
0000
0100
0100
0100
3ffc
0104
0104
0104
0204
0204
0204
0404
0404
0804
3038
0000
ENDCHAR
STARTCHAR a5ac
ENCODING 42412
SWIDTH 256 0
DWIDTH 16 0
BBX 16 16 0 -2
BITMAP
0002
0111
0108
0100
3ffc
0104
0104
0104
0204
0204
0204
0404
0404
0804
3038
0000
ENDCHAR
STARTCHAR a5ad
ENCODING 42413
SWIDTH 256 0
DWIDTH 16 0
BBX 16 16 0 -2
BITMAP
0000
0100
0100
0100
1ffc
0080
0080
0080
0080
3ffe
0040
0040
0040
0040
0040
0000
ENDCHAR
STARTCHAR a5ae
ENCODING 42414
SWIDTH 256 0
DWIDTH 16 0
BBX 16 16 0 -2
BITMAP
0004
0112
0108
0100
1ffc
0080
0080
0080
0080
3ffe
0040
0040
0040
0040
0040
0000
ENDCHAR
STARTCHAR a5af
ENCODING 42415
SWIDTH 256 0
DWIDTH 16 0
BBX 16 16 0 -2
BITMAP
0000
0100
0100
01fc
0204
0204
0404
1808
0008
0010
0010
0020
0040
0180
0e00
0000
ENDCHAR
STARTCHAR a5b0
ENCODING 42416
SWIDTH 256 0
DWIDTH 16 0
BBX 16 16 0 -2
BITMAP
0012
0109
0100
01fc
0204
0204
0404
1808
0008
0010
0010
0020
0040
0180
0e00
0000
ENDCHAR
STARTCHAR a5b1
ENCODING 42417
SWIDTH 256 0
DWIDTH 16 0
BBX 16 16 0 -2
BITMAP
0000
0400
0400
0400
07fe
0820
0820
1020
2020
0020
0040
0040
0080
0300
0c00
0000
ENDCHAR
STARTCHAR a5b2
ENCODING 42418
SWIDTH 256 0
DWIDTH 16 0
BBX 16 16 0 -2
BITMAP
0002
0411
0408
0400
07fe
0820
0820
1020
2020
0020
0040
0040
0080
0300
0c00
0000
ENDCHAR
STARTCHAR a5b3
ENCODING 42419
SWIDTH 256 0
DWIDTH 16 0
BBX 16 16 0 -2
BITMAP
0000
0000
0000
1ffc
0004
0004
0004
0004
0004
0004
0004
0004
0004
1ffc
0000
0000
ENDCHAR
STARTCHAR a5b4
ENCODING 42420
SWIDTH 256 0
DWIDTH 16 0
BBX 16 16 0 -2
BITMAP
0024
0012
0000
1ffc
0004
0004
0004
0004
0004
0004
0004
0004
0004
1ffc
0000
0000
ENDCHAR
STARTCHAR a5b5
ENCODING 42421
SWIDTH 256 0
DWIDTH 16 0
BBX 16 16 0 -2
BITMAP
0000
0808
0808
0808
0808
3ffe
0808
0808
0808
0808
0010
0010
0020
00c0
0700
0000
ENDCHAR
STARTCHAR a5b6
ENCODING 42422
SWIDTH 256 0
DWIDTH 16 0
BBX 16 16 0 -2
BITMAP
0002
1011
1014
1012
1010
7ffc
1010
1010
1010
1010
0020
0020
0040
0180
0e00
0000
ENDCHAR
STARTCHAR a5b7
ENCODING 42423
SWIDTH 256 0
DWIDTH 16 0
BBX 16 16 0 -2
BITMAP
0000
1c00
0300
0000
0002
0002
1c02
0304
0004
0004
0008
0010
0060
0180
1e00
0000
ENDCHAR
STARTCHAR a5b8
ENCODING 42424
SWIDTH 256 0
DWIDTH 16 0
BBX 16 16 0 -2
BITMAP
0002
0001
1c08
0304
0000
0002
1c02
0302
0004
0004
0008
0010
0060
0180
1e00
0000
ENDCHAR
STARTCHAR a5b9
ENCODING 42425
SWIDTH 256 0
DWIDTH 16 0
BBX 16 16 0 -2
BITMAP
0000
0000
1ff8
0008
0008
0010
0010
0020
0020
0040
00a0
0110
0208
0c04
3002
0000
ENDCHAR
STARTCHAR a5ba
ENCODING 42426
SWIDTH 256 0
DWIDTH 16 0
BBX 16 16 0 -2
BITMAP
0012
0009
3ff0
0010
0010
0020
0020
0040
0040
0080
0140
0220
0410
1808
6004
0000
ENDCHAR
STARTCHAR a5bb
ENCODING 42427
SWIDTH 256 0
DWIDTH 16 0
BBX 16 16 0 -2
BITMAP
0000
0400
0400
0400
07fe
3c02
0404
0408
0410
0420
0400
0400
0400
03fc
0000
0000
ENDCHAR
STARTCHAR a5bc
ENCODING 42428
SWIDTH 256 0
DWIDTH 16 0
BBX 16 16 0 -2
BITMAP
0004
0412
0408
0400
07fe
3c02
0404
0408
0410
0420
0400
0400
0400
03fc
0000
0000
ENDCHAR
STARTCHAR a5bd
ENCODING 42429
SWIDTH 256 0
DWIDTH 16 0
BBX 16 16 0 -2
BITMAP
0000
0000
2004
1004
0804
0804
0404
0008
0008
0010
0010
0020
0040
0180
0e00
0000
ENDCHAR
STARTCHAR a5be
ENCODING 42430
SWIDTH 256 0
DWIDTH 16 0
BBX 16 16 0 -2
BITMAP
0012
0009
2000
1004
0804
0804
0404
0008
0008
0010
0010
0020
0040
0180
0e00
0000
ENDCHAR
STARTCHAR a5bf
ENCODING 42431
SWIDTH 256 0
DWIDTH 16 0
BBX 16 16 0 -2
BITMAP
0000
0100
0100
01fc
0204
0204
0404
1988
0068
0010
0010
0020
0040
0180
0e00
0000
ENDCHAR
STARTCHAR a5c0
ENCODING 42432
SWIDTH 256 0
DWIDTH 16 0
BBX 16 16 0 -2
BITMAP
0012
0109
0100
01fc
0204
0204
0404
1988
0068
0010
0010
0020
0040
0180
0e00
0000
ENDCHAR
STARTCHAR a5c1
ENCODING 42433
SWIDTH 256 0
DWIDTH 16 0
BBX 16 16 0 -2
BITMAP
0000
0008
0070
0f80
0080
0080
0080
3ffe
0080
0080
0080
0100
0100
0200
1c00
0000
ENDCHAR
STARTCHAR a5c2
ENCODING 42434
SWIDTH 256 0
DWIDTH 16 0
BBX 16 16 0 -2
BITMAP
0000
0008
0072
0f81
0088
0084
0080
3ffe
0080
0080
0080
0100
0100
0200
1c00
0000
ENDCHAR
STARTCHAR a5c3
ENCODING 42435
SWIDTH 256 0
DWIDTH 16 0
BBX 16 16 0 -2
BITMAP
0000
0000
0000
0000
0000
0410
2410
2210
1210
1010
0020
0020
0040
0180
0e00
0000
ENDCHAR
STARTCHAR a5c4
ENCODING 42436
SWIDTH 256 0
DWIDTH 16 0
BBX 16 16 0 -2
BITMAP
0000
0000
0200
2104
1104
1084
0884
0804
0004
0008
0008
0010
0020
00c0
0700
0000
ENDCHAR
STARTCHAR a5c5
ENCODING 42437
SWIDTH 256 0
DWIDTH 16 0
BBX 16 16 0 -2
BITMAP
0002
0011
0208
2100
1104
1084
0884
0804
0004
0008
0008
0010
0020
00c0
0700
0000
ENDCHAR
STARTCHAR a5c6
ENCODING 42438
SWIDTH 256 0
DWIDTH 16 0
BBX 16 16 0 -2
BITMAP
0000
0000
1ffc
0000
0000
0000
3ffe
0080
0080
0080
0080
0100
0100
0200
1c00
0000
ENDCHAR
STARTCHAR a5c7
ENCODING 42439
SWIDTH 256 0
DWIDTH 16 0
BBX 16 16 0 -2
BITMAP
0002
0001
3fe8
0004
0000
0000
7ffc
0100
0100
0100
0100
0200
0200
0400
3800
0000
ENDCHAR
STARTCHAR a5c8
ENCODING 42440
SWIDTH 256 0
DWIDTH 16 0
BBX 16 16 0 -2
BITMAP
0000
0400
0400
0400
0400
0600
0580
0460
0410
0408
0400
0400
0400
0400
0400
0000
ENDCHAR
STARTCHAR a5c9
ENCODING 42441
SWIDTH 256 0
DWIDTH 16 0
BBX 16 16 0 -2
BITMAP
0000
0408
0404
0420
0410
0600
0580
0460
0410
0408
0400
0400
0400
0400
0400
0000
ENDCHAR
STARTCHAR a5ca
ENCODING 42442
SWIDTH 256 0
DWIDTH 16 0
BBX 16 16 0 -2
BITMAP
0000
0040
0040
0040
0040
3ffe
0040
0040
0040
0080
0080
0080
0100
0600
1800
0000
ENDCHAR
STARTCHAR a5cb
ENCODING 42443
SWIDTH 256 0
DWIDTH 16 0
BBX 16 16 0 -2
BITMAP
0000
0000
0000
0ff8
0000
0000
0000
0000
0000
0000
0000
0000
3ffe
0000
0000
0000
ENDCHAR
STARTCHAR a5cc
ENCODING 42444
SWIDTH 256 0
DWIDTH 16 0
BBX 16 16 0 -2
BITMAP
0000
0000
1ff8
0008
0008
0008
0010
0c10
0320
00a0
0040
00b0
0308
0c04
3000
0000
ENDCHAR
STARTCHAR a5cd
ENCODING 42445
SWIDTH 256 0
DWIDTH 16 0
BBX 16 16 0 -2
BITMAP
0000
0300
00c0
0000
1ff8
0008
0010
0020
0040
01b0
068c
3882
0080
0080
0080
0000
ENDCHAR
STARTCHAR a5ce
ENCODING 42446
SWIDTH 256 0
DWIDTH 16 0
BBX 16 16 0 -2
BITMAP
0000
0000
0008
0008
0008
0008
0010
0010
0020
0020
0040
0080
0100
0600
1800
0000
ENDCHAR
STARTCHAR a5cf
ENCODING 42447
SWIDTH 256 0
DWIDTH 16 0
BBX 16 16 0 -2
BITMAP
0000
0000
0040
0420
0410
0410
0408
0808
0804
0804
1004
1002
2002
4002
0000
0000
ENDCHAR
STARTCHAR a5d0
ENCODING 42448
SWIDTH 256 0
DWIDTH 16 0
BBX 16 16 0 -2
BITMAP
0002
0009
0044
0420
0410
0410
0408
0808
0804
0804
1004
1002
2002
4002
0000
0000
ENDCHAR
STARTCHAR a5d1
ENCODING 42449
SWIDTH 256 0
DWIDTH 16 0
BBX 16 16 0 -2
BITMAP
0006
0009
0049
0426
0410
0410
0408
0808
0804
0804
1004
1002
2002
4002
0000
0000
ENDCHAR
STARTCHAR a5d2
ENCODING 42450
SWIDTH 256 0
DWIDTH 16 0
BBX 16 16 0 -2
BITMAP
0000
1000
1000
1008
1030
11c0
1e00
1000
1000
1000
1000
1000
1000
0ffc
0000
0000
ENDCHAR
STARTCHAR a5d3
ENCODING 42451
SWIDTH 256 0
DWIDTH 16 0
BBX 16 16 0 -2
BITMAP
0002
1001
1008
1004
1000
10f0
1f00
1000
1000
1000
1000
1000
1000
0ffc
0000
0000
ENDCHAR
STARTCHAR a5d4
ENCODING 42452
SWIDTH 256 0
DWIDTH 16 0
BBX 16 16 0 -2
BITMAP
0006
1009
1009
1006
1030
11c0
1e00
1000
1000
1000
1000
1000
1000
0ffc
0000
0000
ENDCHAR
STARTCHAR a5d5
ENCODING 42453
SWIDTH 256 0
DWIDTH 16 0
BBX 16 16 0 -2
BITMAP
0000
0000
0000
3ffc
0004
0004
0004
0008
0008
0010
0010
0020
00c0
0300
1c00
0000
ENDCHAR
STARTCHAR a5d6
ENCODING 42454
SWIDTH 256 0
DWIDTH 16 0
BBX 16 16 0 -2
BITMAP
0012
0009
0000
3ffc
0004
0004
0004
0008
0008
0010
0010
0020
00c0
0300
1c00
0000
ENDCHAR
STARTCHAR a5d7
ENCODING 42455
SWIDTH 256 0
DWIDTH 16 0
BBX 16 16 0 -2
BITMAP
0006
0009
0009
3ffe
0004
0004
0004
0008
0008
0010
0010
0020
00c0
0300
1c00
0000
ENDCHAR
STARTCHAR a5d8
ENCODING 42456
SWIDTH 256 0
DWIDTH 16 0
BBX 16 16 0 -2
BITMAP
0000
0000
0000
0000
0600
0900
1080
2040
4020
0010
0008
0004
0002
0001
0000
0000
ENDCHAR
STARTCHAR a5d9
ENCODING 42457
SWIDTH 256 0
DWIDTH 16 0
BBX 16 16 0 -2
BITMAP
0000
0000
0008
0004
0620
0910
1080
2040
4020
0010
0008
0004
0002
0001
0000
0000
ENDCHAR
STARTCHAR a5da
ENCODING 42458
SWIDTH 256 0
DWIDTH 16 0
BBX 16 16 0 -2
BITMAP
0000
0000
0018
0024
0624
0918
1080
2040
4020
0010
0008
0004
0002
0001
0000
0000
ENDCHAR
STARTCHAR a5db
ENCODING 42459
SWIDTH 256 0
DWIDTH 16 0
BBX 16 16 0 -2
BITMAP
0000
0080
0080
0080
3ffe
0080
0080
0490
0490
0888
0888
1084
1084
2082
0080
0000
ENDCHAR
STARTCHAR a5dc
ENCODING 42460
SWIDTH 256 0
DWIDTH 16 0
BBX 16 16 0 -2
BITMAP
0002
0091
0088
0080
3ffe
0080
0080
0490
0490
0888
0888
1084
1084
2082
0080
0000
ENDCHAR
STARTCHAR a5dd
ENCODING 42461
SWIDTH 256 0
DWIDTH 16 0
BBX 16 16 0 -2
BITMAP
0000
0086
0089
0089
3ffe
0080
0080
0490
0490
0888
0888
1084
1084
2082
0080
0000
ENDCHAR
STARTCHAR a5de
ENCODING 42462
SWIDTH 256 0
DWIDTH 16 0
BBX 16 16 0 -2
BITMAP
0000
0000
3ffe
0002
0002
0004
0004
0008
0c10
0360
0080
0040
0020
0010
0000
0000
ENDCHAR
STARTCHAR a5df
ENCODING 42463
SWIDTH 256 0
DWIDTH 16 0
BBX 16 16 0 -2
BITMAP
0000
0f80
0070
0008
0000
0000
0f00
00e0
0010
0000
0000
1f00
00e0
0018
0004
0000
ENDCHAR
STARTCHAR a5e0
ENCODING 42464
SWIDTH 256 0
DWIDTH 16 0
BBX 16 16 0 -2
BITMAP
0000
0080
0080
0080
0100
0100
0100
0220
0210
0408
0408
080c
0874
3f82
0002
0000
ENDCHAR
STARTCHAR a5e1
ENCODING 42465
SWIDTH 256 0
DWIDTH 16 0
BBX 16 16 0 -2
BITMAP
0000
0008
0008
0008
0008
0610
0190
0060
0020
0050
0088
0104
0200
0c00
0000
0000
ENDCHAR
STARTCHAR a5e2
ENCODING 42466
SWIDTH 256 0
DWIDTH 16 0
BBX 16 16 0 -2
BITMAP
0000
0000
3ffc
0200
0200
0200
0200
7ffe
0200
0200
0200
0200
0200
01fc
0000
0000
ENDCHAR
STARTCHAR a5e3
ENCODING 42467
SWIDTH 256 0
DWIDTH 16 0
BBX 16 16 0 -2
BITMAP
0000
0000
0000
0000
0400
0400
0400
07f0
3c10
0420
0440
0200
0200
0200
0200
0000
ENDCHAR
STARTCHAR a5e4
ENCODING 42468
SWIDTH 256 0
DWIDTH 16 0
BBX 16 16 0 -2
BITMAP
0000
0400
0400
0400
043e
07c2
7e04
0208
0210
0220
0100
0100
0100
0100
0100
0000
ENDCHAR
STARTCHAR a5e5
ENCODING 42469
SWIDTH 256 0
DWIDTH 16 0
BBX 16 16 0 -2
BITMAP
0000
0000
0000
0000
0000
0000
1f80
0080
0080
0080
0080
0080
0080
3ff0
0000
0000
ENDCHAR
STARTCHAR a5e6
ENCODING 42470
SWIDTH 256 0
DWIDTH 16 0
BBX 16 16 0 -2
BITMAP
0000
0000
1ff0
0010
0010
0010
0010
0010
0010
0010
0010
0010
0010
3ffe
0000
0000
ENDCHAR
STARTCHAR a5e7
ENCODING 42471
SWIDTH 256 0
DWIDTH 16 0
BBX 16 16 0 -2
BITMAP
0000
0000
0000
0000
0000
1fe0
0020
0020
0020
0fe0
0020
0020
0020
1fe0
0000
0000
ENDCHAR
STARTCHAR a5e8
ENCODING 42472
SWIDTH 256 0
DWIDTH 16 0
BBX 16 16 0 -2
BITMAP
0000
0000
1ffc
0004
0004
0004
0004
0ffc
0004
0004
0004
0004
0004
1ffc
0000
0000
ENDCHAR
STARTCHAR a5e9
ENCODING 42473
SWIDTH 256 0
DWIDTH 16 0
BBX 16 16 0 -2
BITMAP
0000
0000
1ffc
0000
0000
0000
3ffe
0002
0002
0004
0004
0008
0030
00c0
0700
0000
ENDCHAR
STARTCHAR a5ea
ENCODING 42474
SWIDTH 256 0
DWIDTH 16 0
BBX 16 16 0 -2
BITMAP
0000
0008
0808
0808
0808
0808
0808
0808
0808
0808
0010
0010
0020
00c0
0700
0000
ENDCHAR
STARTCHAR a5eb
ENCODING 42475
SWIDTH 256 0
DWIDTH 16 0
BBX 16 16 0 -2
BITMAP
0000
0000
0020
0420
0420
0420
0421
0421
0421
0422
0822
0824
1028
2010
4000
0000
ENDCHAR
STARTCHAR a5ec
ENCODING 42476
SWIDTH 256 0
DWIDTH 16 0
BBX 16 16 0 -2
BITMAP
0000
0800
0800
0800
0800
0800
0802
0802
0804
0804
0808
0810
0820
09c0
0e00
0000
ENDCHAR
STARTCHAR a5ed
ENCODING 42477
SWIDTH 256 0
DWIDTH 16 0
BBX 16 16 0 -2
BITMAP
0000
0000
0000
1ffc
1004
1004
1004
1004
1004
1004
1004
1004
1004
1ffc
0000
0000
ENDCHAR
STARTCHAR a5ee
ENCODING 42478
SWIDTH 256 0
DWIDTH 16 0
BBX 16 16 0 -2
BITMAP
0000
0000
0000
0000
0000
1ff0
1010
1010
1010
0010
0020
0020
0040
0180
0600
0000
ENDCHAR
STARTCHAR a5ef
ENCODING 42479
SWIDTH 256 0
DWIDTH 16 0
BBX 16 16 0 -2
BITMAP
0000
0000
1ffc
1004
1004
1004
1004
1004
0004
0008
0008
0010
0020
00c0
0700
0000
ENDCHAR
STARTCHAR a5f0
ENCODING 42480
SWIDTH 256 0
DWIDTH 16 0
BBX 16 16 0 -2
BITMAP
0000
0020
0020
0020
3ffe
0420
0420
0420
0420
0420
3ffe
0020
0020
0020
0020
0000
ENDCHAR
STARTCHAR a5f1
ENCODING 42481
SWIDTH 256 0
DWIDTH 16 0
BBX 16 16 0 -2
BITMAP
0000
0000
0000
1ffc
0004
0004
0088
00b0
00c0
0080
0080
0080
0080
3ffe
0000
0000
ENDCHAR
STARTCHAR a5f2
ENCODING 42482
SWIDTH 256 0
DWIDTH 16 0
BBX 16 16 0 -2
BITMAP
0000
0000
1ffc
0004
0004
0004
0ffc
0004
0004
0008
0008
0010
0020
01c0
0e00
0000
ENDCHAR
STARTCHAR a5f3
ENCODING 42483
SWIDTH 256 0
DWIDTH 16 0
BBX 16 16 0 -2
BITMAP
0000
0000
1800
0600
0100
0002
0002
0002
0004
0004
0008
0010
0060
0180
0e00
0000
ENDCHAR
STARTCHAR a5f4
ENCODING 42484
SWIDTH 256 0
DWIDTH 16 0
BBX 16 16 0 -2
BITMAP
0012
0089
0080
1ffc
1004
1004
1004
1004
1004
0008
0008
0010
0020
00c0
0300
0000
ENDCHAR
STARTCHAR a5f5
ENCODING 42485
SWIDTH 256 0
DWIDTH 16 0
BBX 16 16 0 -2
BITMAP
0000
0000
0000
0000
0200
0200
3fe0
0220
0220
0220
0420
0420
0820
1020
20c0
0000
ENDCHAR
STARTCHAR a5f6
ENCODING 42486
SWIDTH 256 0
DWIDTH 16 0
BBX 16 16 0 -2
BITMAP
0000
0000
0000
0000
0800
0800
0ff0
1080
1080
2080
0080
0100
0100
0200
0c00
0000
ENDCHAR
STARTCHAR a5f7
ENCODING 42487
SWIDTH 256 0
DWIDTH 16 0
BBX 16 16 0 -2
BITMAP
0000
0000
0000
0000
0000
0000
0000
0000
0000
0000
0000
0000
0000
0000
0000
0000
ENDCHAR
STARTCHAR a5f8
ENCODING 42488
SWIDTH 256 0
DWIDTH 16 0
BBX 16 16 0 -2
BITMAP
0000
0000
0000
0000
0000
0000
0000
0000
0000
0000
0000
0000
0000
0000
0000
0000
ENDCHAR
STARTCHAR a5f9
ENCODING 42489
SWIDTH 256 0
DWIDTH 16 0
BBX 16 16 0 -2
BITMAP
0000
0000
0000
0000
0000
0000
0000
0000
0000
0000
0000
0000
0000
0000
0000
0000
ENDCHAR
STARTCHAR a5fa
ENCODING 42490
SWIDTH 256 0
DWIDTH 16 0
BBX 16 16 0 -2
BITMAP
0000
0000
0000
0000
0000
0000
0000
0000
0000
0000
0000
0000
0000
0000
0000
0000
ENDCHAR
STARTCHAR a5fb
ENCODING 42491
SWIDTH 256 0
DWIDTH 16 0
BBX 16 16 0 -2
BITMAP
0000
0000
0000
0000
0000
0000
0000
0000
0000
0000
0000
0000
0000
0000
0000
0000
ENDCHAR
STARTCHAR a5fc
ENCODING 42492
SWIDTH 256 0
DWIDTH 16 0
BBX 16 16 0 -2
BITMAP
0000
0000
0000
0000
0000
0000
0000
0000
0000
0000
0000
0000
0000
0000
0000
0000
ENDCHAR
STARTCHAR a5fd
ENCODING 42493
SWIDTH 256 0
DWIDTH 16 0
BBX 16 16 0 -2
BITMAP
0000
0000
0000
0000
0000
0000
0000
0000
0000
0000
0000
0000
0000
0000
0000
0000
ENDCHAR
STARTCHAR a5fe
ENCODING 42494
SWIDTH 256 0
DWIDTH 16 0
BBX 16 16 0 -2
BITMAP
0000
0000
0000
0000
0000
0000
0000
0000
0000
0000
0000
0000
0000
0000
0000
0000
ENDCHAR
STARTCHAR a6a1
ENCODING 42657
SWIDTH 256 0
DWIDTH 16 0
BBX 16 16 0 -2
BITMAP
0000
0080
0080
0140
0140
0220
0220
0410
0410
0ff8
0808
1004
1004
380e
0000
0000
ENDCHAR
STARTCHAR a6a2
ENCODING 42658
SWIDTH 256 0
DWIDTH 16 0
BBX 16 16 0 -2
BITMAP
0000
1fe0
0818
0804
0804
0804
0818
0fe0
0818
0804
0804
0804
0818
1fe0
0000
0000
ENDCHAR
STARTCHAR a6a3
ENCODING 42659
SWIDTH 256 0
DWIDTH 16 0
BBX 16 16 0 -2
BITMAP
0000
1ffc
0804
0804
0800
0800
0800
0800
0800
0800
0800
0800
0800
1c00
0000
0000
ENDCHAR
STARTCHAR a6a4
ENCODING 42660
SWIDTH 256 0
DWIDTH 16 0
BBX 16 16 0 -2
BITMAP
0000
0080
0080
0140
0140
0220
0220
0410
0410
0808
0808
1004
1004
3ffe
0000
0000
ENDCHAR
STARTCHAR a6a5
ENCODING 42661
SWIDTH 256 0
DWIDTH 16 0
BBX 16 16 0 -2
BITMAP
0000
1ff8
0808
0808
0800
0800
0820
0fe0
0820
0800
0800
0808
0808
1ff8
0000
0000
ENDCHAR
STARTCHAR a6a6
ENCODING 42662
SWIDTH 256 0
DWIDTH 16 0
BBX 16 16 0 -2
BITMAP
0000
1ffc
1008
1010
0020
0020
0040
0080
0100
0200
0200
0404
0804
1ffc
0000
0000
ENDCHAR
STARTCHAR a6a7
ENCODING 42663
SWIDTH 256 0
DWIDTH 16 0
BBX 16 16 0 -2
BITMAP
0000
1c1c
0808
0808
0808
0808
0808
0ff8
0808
0808
0808
0808
0808
1c1c
0000
0000
ENDCHAR
STARTCHAR a6a8
ENCODING 42664
SWIDTH 256 0
DWIDTH 16 0
BBX 16 16 0 -2
BITMAP
0000
03e0
0c18
1004
1004
2412
2412
27f2
2412
2412
1004
1004
0c18
03e0
0000
0000
ENDCHAR
STARTCHAR a6a9
ENCODING 42665
SWIDTH 256 0
DWIDTH 16 0
BBX 16 16 0 -2
BITMAP
0000
01c0
0080
0080
0080
0080
0080
0080
0080
0080
0080
0080
0080
01c0
0000
0000
ENDCHAR
STARTCHAR a6aa
ENCODING 42666
SWIDTH 256 0
DWIDTH 16 0
BBX 16 16 0 -2
BITMAP
0000
1c1c
0810
0820
0840
0880
0900
0a80
0c40
0840
0820
0820
0810
1c1c
0000
0000
ENDCHAR
STARTCHAR a6ab
ENCODING 42667
SWIDTH 256 0
DWIDTH 16 0
BBX 16 16 0 -2
BITMAP
0000
0080
0080
0140
0140
0220
0220
0410
0410
0808
0808
1004
1004
380e
0000
0000
ENDCHAR
STARTCHAR a6ac
ENCODING 42668
SWIDTH 256 0
DWIDTH 16 0
BBX 16 16 0 -2
BITMAP
0000
7007
280a
280a
2412
2412
2412
2222
2222
2222
2142
2142
2082
7087
0000
0000
ENDCHAR
STARTCHAR a6ad
ENCODING 42669
SWIDTH 256 0
DWIDTH 16 0
BBX 16 16 0 -2
BITMAP
0000
380e
1404
1204
1204
1104
1084
1084
1044
1024
1024
1014
100c
380c
0000
0000
ENDCHAR
STARTCHAR a6ae
ENCODING 42670
SWIDTH 256 0
DWIDTH 16 0
BBX 16 16 0 -2
BITMAP
0000
1ffc
1004
1004
0000
0000
1004
1ffc
1004
0000
0000
1004
1004
1ffc
0000
0000
ENDCHAR
STARTCHAR a6af
ENCODING 42671
SWIDTH 256 0
DWIDTH 16 0
BBX 16 16 0 -2
BITMAP
0000
03e0
0c18
1004
1004
2002
2002
2002
2002
2002
2002
1004
1004
0c18
03e0
0000
ENDCHAR
STARTCHAR a6b0
ENCODING 42672
SWIDTH 256 0
DWIDTH 16 0
BBX 16 16 0 -2
BITMAP
0000
1ffc
0808
0808
0808
0808
0808
0808
0808
0808
0808
0808
0808
1c1c
0000
0000
ENDCHAR
STARTCHAR a6b1
ENCODING 42673
SWIDTH 256 0
DWIDTH 16 0
BBX 16 16 0 -2
BITMAP
0000
1fe0
0818
0804
0804
0804
0818
0fe0
0800
0800
0800
0800
0800
1c00
0000
0000
ENDCHAR
STARTCHAR a6b2
ENCODING 42674
SWIDTH 256 0
DWIDTH 16 0
BBX 16 16 0 -2
BITMAP
0000
1ffc
0804
0404
0200
0100
0080
0040
0080
0100
0200
0404
0804
1ffc
0000
0000
ENDCHAR
STARTCHAR a6b3
ENCODING 42675
SWIDTH 256 0
DWIDTH 16 0
BBX 16 16 0 -2
BITMAP
0000
3ffe
2082
2082
0080
0080
0080
0080
0080
0080
0080
0080
0080
01c0
0000
0000
ENDCHAR
STARTCHAR a6b4
ENCODING 42676
SWIDTH 256 0
DWIDTH 16 0
BBX 16 16 0 -2
BITMAP
0000
1e38
0144
0082
0080
0080
0080
0080
0080
0080
0080
0080
0080
01c0
0000
0000
ENDCHAR
STARTCHAR a6b5
ENCODING 42677
SWIDTH 256 0
DWIDTH 16 0
BBX 16 16 0 -2
BITMAP
0000
01c0
0080
0ff8
1084
2082
2082
2082
2082
2082
1084
0ff8
0080
01c0
0000
0000
ENDCHAR
STARTCHAR a6b6
ENCODING 42678
SWIDTH 256 0
DWIDTH 16 0
BBX 16 16 0 -2
BITMAP
0000
380e
0808
0410
0220
0220
0140
0080
0140
0220
0220
0410
0808
380e
0000
0000
ENDCHAR
STARTCHAR a6b7
ENCODING 42679
SWIDTH 256 0
DWIDTH 16 0
BBX 16 16 0 -2
BITMAP
0000
31c6
4889
0888
0888
0888
0888
0888
0888
0490
03e0
0080
0080
01c0
0000
0000
ENDCHAR
STARTCHAR a6b8
ENCODING 42680
SWIDTH 256 0
DWIDTH 16 0
BBX 16 16 0 -2
BITMAP
0000
03e0
0c18
1004
1004
2002
2002
2002
2002
1004
1004
0c18
2222
3e3e
0000
0000
ENDCHAR
STARTCHAR a6b9
ENCODING 42681
SWIDTH 256 0
DWIDTH 16 0
BBX 16 16 0 -2
BITMAP
0000
0000
0000
0000
0000
0000
0000
0000
0000
0000
0000
0000
0000
0000
0000
0000
ENDCHAR
STARTCHAR a6ba
ENCODING 42682
SWIDTH 256 0
DWIDTH 16 0
BBX 16 16 0 -2
BITMAP
0000
0000
0000
0000
0000
0000
0000
0000
0000
0000
0000
0000
0000
0000
0000
0000
ENDCHAR
STARTCHAR a6bb
ENCODING 42683
SWIDTH 256 0
DWIDTH 16 0
BBX 16 16 0 -2
BITMAP
0000
0000
0000
0000
0000
0000
0000
0000
0000
0000
0000
0000
0000
0000
0000
0000
ENDCHAR
STARTCHAR a6bc
ENCODING 42684
SWIDTH 256 0
DWIDTH 16 0
BBX 16 16 0 -2
BITMAP
0000
0000
0000
0000
0000
0000
0000
0000
0000
0000
0000
0000
0000
0000
0000
0000
ENDCHAR
STARTCHAR a6bd
ENCODING 42685
SWIDTH 256 0
DWIDTH 16 0
BBX 16 16 0 -2
BITMAP
0000
0000
0000
0000
0000
0000
0000
0000
0000
0000
0000
0000
0000
0000
0000
0000
ENDCHAR
STARTCHAR a6be
ENCODING 42686
SWIDTH 256 0
DWIDTH 16 0
BBX 16 16 0 -2
BITMAP
0000
0000
0000
0000
0000
0000
0000
0000
0000
0000
0000
0000
0000
0000
0000
0000
ENDCHAR
STARTCHAR a6bf
ENCODING 42687
SWIDTH 256 0
DWIDTH 16 0
BBX 16 16 0 -2
BITMAP
0000
0000
0000
0000
0000
0000
0000
0000
0000
0000
0000
0000
0000
0000
0000
0000
ENDCHAR
STARTCHAR a6c0
ENCODING 42688
SWIDTH 256 0
DWIDTH 16 0
BBX 16 16 0 -2
BITMAP
0000
0000
0000
0000
0000
0000
0000
0000
0000
0000
0000
0000
0000
0000
0000
0000
ENDCHAR
STARTCHAR a6c1
ENCODING 42689
SWIDTH 256 0
DWIDTH 16 0
BBX 16 16 0 -2
BITMAP
0000
0000
0000
0000
0000
00c0
0324
0414
0818
0810
0830
0850
0890
070c
0000
0000
ENDCHAR
STARTCHAR a6c2
ENCODING 42690
SWIDTH 256 0
DWIDTH 16 0
BBX 16 16 0 -2
BITMAP
0000
00e0
0110
0210
0210
0210
0210
05e0
0420
0410
0410
0410
0620
09c0
0800
0800
ENDCHAR
STARTCHAR a6c3
ENCODING 42691
SWIDTH 256 0
DWIDTH 16 0
BBX 16 16 0 -2
BITMAP
0000
0000
0000
0000
0000
0730
08c0
0080
0080
0100
0100
0100
0100
0200
0200
0200
ENDCHAR
STARTCHAR a6c4
ENCODING 42692
SWIDTH 256 0
DWIDTH 16 0
BBX 16 16 0 -2
BITMAP
0000
00e0
0110
0080
0040
01e0
0220
0210
0410
0410
0410
0420
0420
03c0
0000
0000
ENDCHAR
STARTCHAR a6c5
ENCODING 42693
SWIDTH 256 0
DWIDTH 16 0
BBX 16 16 0 -2
BITMAP
0000
0000
0000
0000
0000
01e0
0210
0200
01c0
0200
0400
0410
0420
03c0
0000
0000
ENDCHAR
STARTCHAR a6c6
ENCODING 42694
SWIDTH 256 0
DWIDTH 16 0
BBX 16 16 0 -2
BITMAP
0000
0100
0270
0280
0100
0200
0200
0400
0400
0400
0400
0400
03e0
0010
0010
00e0
ENDCHAR
STARTCHAR a6c7
ENCODING 42695
SWIDTH 256 0
DWIDTH 16 0
BBX 16 16 0 -2
BITMAP
0000
0000
0000
0000
0000
0e70
0188
0108
0108
0108
0210
0210
0410
0420
0020
0020
ENDCHAR
STARTCHAR a6c8
ENCODING 42696
SWIDTH 256 0
DWIDTH 16 0
BBX 16 16 0 -2
BITMAP
0000
00e0
0110
0210
0210
0410
0410
07e0
0820
0820
0840
0840
0880
0700
0000
0000
ENDCHAR
STARTCHAR a6c9
ENCODING 42697
SWIDTH 256 0
DWIDTH 16 0
BBX 16 16 0 -2
BITMAP
0000
0000
0000
0000
0000
0040
0040
0080
0080
0100
0100
0200
0240
0180
0000
0000
ENDCHAR
STARTCHAR a6ca
ENCODING 42698
SWIDTH 256 0
DWIDTH 16 0
BBX 16 16 0 -2
BITMAP
0000
0000
0000
0000
0000
0218
0260
0280
0300
0280
0480
0488
0890
0860
0000
0000
ENDCHAR
STARTCHAR a6cb
ENCODING 42699
SWIDTH 256 0
DWIDTH 16 0
BBX 16 16 0 -2
BITMAP
0000
01c0
0020
0020
0020
0040
0040
0080
00c0
0140
0140
0240
0440
0838
0000
0000
ENDCHAR
STARTCHAR a6cc
ENCODING 42700
SWIDTH 256 0
DWIDTH 16 0
BBX 16 16 0 -2
BITMAP
0000
0000
0000
0000
0000
0108
0108
0208
0210
0210
0420
0420
0464
0b98
0800
1000
ENDCHAR
STARTCHAR a6cd
ENCODING 42701
SWIDTH 256 0
DWIDTH 16 0
BBX 16 16 0 -2
BITMAP
0000
0000
0000
0000
0000
0808
0408
0408
0408
0410
0410
0420
04c0
0f00
0000
0000
ENDCHAR
STARTCHAR a6ce
ENCODING 42702
SWIDTH 256 0
DWIDTH 16 0
BBX 16 16 0 -2
BITMAP
0000
0080
0100
01f0
0200
0200
0100
01e0
0200
0400
0400
0400
0380
0040
0040
0380
ENDCHAR
STARTCHAR a6cf
ENCODING 42703
SWIDTH 256 0
DWIDTH 16 0
BBX 16 16 0 -2
BITMAP
0000
0000
0000
0000
0000
01e0
0210
0210
0410
0410
0410
0420
0420
03c0
0000
0000
ENDCHAR
STARTCHAR a6d0
ENCODING 42704
SWIDTH 256 0
DWIDTH 16 0
BBX 16 16 0 -2
BITMAP
0000
0000
0000
0000
0000
07f8
0920
0120
0120
0240
0240
0440
0440
0838
0000
0000
ENDCHAR
STARTCHAR a6d1
ENCODING 42705
SWIDTH 256 0
DWIDTH 16 0
BBX 16 16 0 -2
BITMAP
0000
0000
0000
0000
0000
01e0
0210
0210
0410
0410
0410
0420
0420
0bc0
0800
0800
ENDCHAR
STARTCHAR a6d2
ENCODING 42706
SWIDTH 256 0
DWIDTH 16 0
BBX 16 16 0 -2
BITMAP
0000
0000
0000
0000
0000
01fc
0210
0210
0410
0410
0410
0420
0420
03c0
0000
0000
ENDCHAR
STARTCHAR a6d3
ENCODING 42707
SWIDTH 256 0
DWIDTH 16 0
BBX 16 16 0 -2
BITMAP
0000
0000
0000
0000
0000
07f8
0880
0100
0100
0100
0200
0200
0240
0180
0000
0000
ENDCHAR
STARTCHAR a6d4
ENCODING 42708
SWIDTH 256 0
DWIDTH 16 0
BBX 16 16 0 -2
BITMAP
0000
0000
0000
0000
0000
0410
0210
0210
0210
0410
0420
0420
0440
0380
0000
0000
ENDCHAR
STARTCHAR a6d5
ENCODING 42709
SWIDTH 256 0
DWIDTH 16 0
BBX 16 16 0 -2
BITMAP
0000
0020
0020
0020
0020
01f0
0248
0444
0844
0884
0884
0888
0490
03e0
0100
0100
ENDCHAR
STARTCHAR a6d6
ENCODING 42710
SWIDTH 256 0
DWIDTH 16 0
BBX 16 16 0 -2
BITMAP
0000
0000
0000
0000
0300
0490
0090
00a0
00a0
00c0
0080
0080
0180
0280
0288
0470
ENDCHAR
STARTCHAR a6d7
ENCODING 42711
SWIDTH 256 0
DWIDTH 16 0
BBX 16 16 0 -2
BITMAP
0000
0040
0040
0040
0040
0c90
188c
0888
1088
1108
1110
1110
0960
0780
0200
0200
ENDCHAR
STARTCHAR a6d8
ENCODING 42712
SWIDTH 256 0
DWIDTH 16 0
BBX 16 16 0 -2
BITMAP
0000
0000
0000
0000
0000
0208
0444
0844
0884
1084
1108
1108
1110
0ee0
0000
0000
ENDCHAR
STARTCHAR a6d9
ENCODING 42713
SWIDTH 256 0
DWIDTH 16 0
BBX 16 16 0 -2
BITMAP
0000
0000
0000
0000
0000
0000
0000
0000
0000
0000
0000
0000
0000
0000
0000
0000
ENDCHAR
STARTCHAR a6da
ENCODING 42714
SWIDTH 256 0
DWIDTH 16 0
BBX 16 16 0 -2
BITMAP
0000
0000
0000
0000
0000
0000
0000
0000
0000
0000
0000
0000
0000
0000
0000
0000
ENDCHAR
STARTCHAR a6db
ENCODING 42715
SWIDTH 256 0
DWIDTH 16 0
BBX 16 16 0 -2
BITMAP
0000
0000
0000
0000
0000
0000
0000
0000
0000
0000
0000
0000
0000
0000
0000
0000
ENDCHAR
STARTCHAR a6dc
ENCODING 42716
SWIDTH 256 0
DWIDTH 16 0
BBX 16 16 0 -2
BITMAP
0000
0000
0000
0000
0000
0000
0000
0000
0000
0000
0000
0000
0000
0000
0000
0000
ENDCHAR
STARTCHAR a6dd
ENCODING 42717
SWIDTH 256 0
DWIDTH 16 0
BBX 16 16 0 -2
BITMAP
0000
0000
0000
0000
0000
0000
0000
0000
0000
0000
0000
0000
0000
0000
0000
0000
ENDCHAR
STARTCHAR a6de
ENCODING 42718
SWIDTH 256 0
DWIDTH 16 0
BBX 16 16 0 -2
BITMAP
0000
0000
0000
0000
0000
0000
0000
0000
0000
0000
0000
0000
0000
0000
0000
0000
ENDCHAR
STARTCHAR a6df
ENCODING 42719
SWIDTH 256 0
DWIDTH 16 0
BBX 16 16 0 -2
BITMAP
0000
0000
0000
0000
0000
0000
0000
0000
0000
0000
0000
0000
0000
0000
0000
0000
ENDCHAR
STARTCHAR a6e0
ENCODING 42720
SWIDTH 256 0
DWIDTH 16 0
BBX 16 16 0 -2
BITMAP
0000
0000
0000
0000
0000
0000
0000
0000
0000
0000
0000
0000
0000
0000
0000
0000
ENDCHAR
STARTCHAR a6e1
ENCODING 42721
SWIDTH 256 0
DWIDTH 16 0
BBX 16 16 0 -2
BITMAP
0000
0000
0000
0000
0000
0000
0000
0000
0000
0000
0000
0000
0000
0000
0000
0000
ENDCHAR
STARTCHAR a6e2
ENCODING 42722
SWIDTH 256 0
DWIDTH 16 0
BBX 16 16 0 -2
BITMAP
0000
0000
0000
0000
0000
0000
0000
0000
0000
0000
0000
0000
0000
0000
0000
0000
ENDCHAR
STARTCHAR a6e3
ENCODING 42723
SWIDTH 256 0
DWIDTH 16 0
BBX 16 16 0 -2
BITMAP
0000
0000
0000
0000
0000
0000
0000
0000
0000
0000
0000
0000
0000
0000
0000
0000
ENDCHAR
STARTCHAR a6e4
ENCODING 42724
SWIDTH 256 0
DWIDTH 16 0
BBX 16 16 0 -2
BITMAP
0000
0000
0000
0000
0000
0000
0000
0000
0000
0000
0000
0000
0000
0000
0000
0000
ENDCHAR
STARTCHAR a6e5
ENCODING 42725
SWIDTH 256 0
DWIDTH 16 0
BBX 16 16 0 -2
BITMAP
0000
0000
0000
0000
0000
0000
0000
0000
0000
0000
0000
0000
0000
0000
0000
0000
ENDCHAR
STARTCHAR a6e6
ENCODING 42726
SWIDTH 256 0
DWIDTH 16 0
BBX 16 16 0 -2
BITMAP
0000
0000
0000
0000
0000
0000
0000
0000
0000
0000
0000
0000
0000
0000
0000
0000
ENDCHAR
STARTCHAR a6e7
ENCODING 42727
SWIDTH 256 0
DWIDTH 16 0
BBX 16 16 0 -2
BITMAP
0000
0000
0000
0000
0000
0000
0000
0000
0000
0000
0000
0000
0000
0000
0000
0000
ENDCHAR
STARTCHAR a6e8
ENCODING 42728
SWIDTH 256 0
DWIDTH 16 0
BBX 16 16 0 -2
BITMAP
0000
0000
0000
0000
0000
0000
0000
0000
0000
0000
0000
0000
0000
0000
0000
0000
ENDCHAR
STARTCHAR a6e9
ENCODING 42729
SWIDTH 256 0
DWIDTH 16 0
BBX 16 16 0 -2
BITMAP
0000
0000
0000
0000
0000
0000
0000
0000
0000
0000
0000
0000
0000
0000
0000
0000
ENDCHAR
STARTCHAR a6ea
ENCODING 42730
SWIDTH 256 0
DWIDTH 16 0
BBX 16 16 0 -2
BITMAP
0000
0000
0000
0000
0000
0000
0000
0000
0000
0000
0000
0000
0000
0000
0000
0000
ENDCHAR
STARTCHAR a6eb
ENCODING 42731
SWIDTH 256 0
DWIDTH 16 0
BBX 16 16 0 -2
BITMAP
0000
0000
0000
0000
0000
0000
0000
0000
0000
0000
0000
0000
0000
0000
0000
0000
ENDCHAR
STARTCHAR a6ec
ENCODING 42732
SWIDTH 256 0
DWIDTH 16 0
BBX 16 16 0 -2
BITMAP
0000
0000
0000
0000
0000
0000
0000
0000
0000
0000
0000
0000
0000
0000
0000
0000
ENDCHAR
STARTCHAR a6ed
ENCODING 42733
SWIDTH 256 0
DWIDTH 16 0
BBX 16 16 0 -2
BITMAP
0000
0000
0000
0000
0000
0000
0000
0000
0000
0000
0000
0000
0000
0000
0000
0000
ENDCHAR
STARTCHAR a6ee
ENCODING 42734
SWIDTH 256 0
DWIDTH 16 0
BBX 16 16 0 -2
BITMAP
0000
0000
0000
0000
0000
0000
0000
0000
0000
0000
0000
0000
0000
0000
0000
0000
ENDCHAR
STARTCHAR a6ef
ENCODING 42735
SWIDTH 256 0
DWIDTH 16 0
BBX 16 16 0 -2
BITMAP
0000
0000
0000
0000
0000
0000
0000
0000
0000
0000
0000
0000
0000
0000
0000
0000
ENDCHAR
STARTCHAR a6f0
ENCODING 42736
SWIDTH 256 0
DWIDTH 16 0
BBX 16 16 0 -2
BITMAP
0000
0000
0000
0000
0000
0000
0000
0000
0000
0000
0000
0000
0000
0000
0000
0000
ENDCHAR
STARTCHAR a6f1
ENCODING 42737
SWIDTH 256 0
DWIDTH 16 0
BBX 16 16 0 -2
BITMAP
0000
0000
0000
0000
0000
0000
0000
0000
0000
0000
0000
0000
0000
0000
0000
0000
ENDCHAR
STARTCHAR a6f2
ENCODING 42738
SWIDTH 256 0
DWIDTH 16 0
BBX 16 16 0 -2
BITMAP
0000
0000
0000
0000
0000
0000
0000
0000
0000
0000
0000
0000
0000
0000
0000
0000
ENDCHAR
STARTCHAR a6f3
ENCODING 42739
SWIDTH 256 0
DWIDTH 16 0
BBX 16 16 0 -2
BITMAP
0000
0000
0000
0000
0000
0000
0000
0000
0000
0000
0000
0000
0000
0000
0000
0000
ENDCHAR
STARTCHAR a6f4
ENCODING 42740
SWIDTH 256 0
DWIDTH 16 0
BBX 16 16 0 -2
BITMAP
0000
0000
0000
0000
0000
0000
0000
0000
0000
0000
0000
0000
0000
0000
0000
0000
ENDCHAR
STARTCHAR a6f5
ENCODING 42741
SWIDTH 256 0
DWIDTH 16 0
BBX 16 16 0 -2
BITMAP
0000
0000
0000
0000
0000
0000
0000
0000
0000
0000
0000
0000
0000
0000
0000
0000
ENDCHAR
STARTCHAR a6f6
ENCODING 42742
SWIDTH 256 0
DWIDTH 16 0
BBX 16 16 0 -2
BITMAP
0000
0000
0000
0000
0000
0000
0000
0000
0000
0000
0000
0000
0000
0000
0000
0000
ENDCHAR
STARTCHAR a6f7
ENCODING 42743
SWIDTH 256 0
DWIDTH 16 0
BBX 16 16 0 -2
BITMAP
0000
0000
0000
0000
0000
0000
0000
0000
0000
0000
0000
0000
0000
0000
0000
0000
ENDCHAR
STARTCHAR a6f8
ENCODING 42744
SWIDTH 256 0
DWIDTH 16 0
BBX 16 16 0 -2
BITMAP
0000
0000
0000
0000
0000
0000
0000
0000
0000
0000
0000
0000
0000
0000
0000
0000
ENDCHAR
STARTCHAR a6f9
ENCODING 42745
SWIDTH 256 0
DWIDTH 16 0
BBX 16 16 0 -2
BITMAP
0000
0000
0000
0000
0000
0000
0000
0000
0000
0000
0000
0000
0000
0000
0000
0000
ENDCHAR
STARTCHAR a6fa
ENCODING 42746
SWIDTH 256 0
DWIDTH 16 0
BBX 16 16 0 -2
BITMAP
0000
0000
0000
0000
0000
0000
0000
0000
0000
0000
0000
0000
0000
0000
0000
0000
ENDCHAR
STARTCHAR a6fb
ENCODING 42747
SWIDTH 256 0
DWIDTH 16 0
BBX 16 16 0 -2
BITMAP
0000
0000
0000
0000
0000
0000
0000
0000
0000
0000
0000
0000
0000
0000
0000
0000
ENDCHAR
STARTCHAR a6fc
ENCODING 42748
SWIDTH 256 0
DWIDTH 16 0
BBX 16 16 0 -2
BITMAP
0000
0000
0000
0000
0000
0000
0000
0000
0000
0000
0000
0000
0000
0000
0000
0000
ENDCHAR
STARTCHAR a6fd
ENCODING 42749
SWIDTH 256 0
DWIDTH 16 0
BBX 16 16 0 -2
BITMAP
0000
0000
0000
0000
0000
0000
0000
0000
0000
0000
0000
0000
0000
0000
0000
0000
ENDCHAR
STARTCHAR a6fe
ENCODING 42750
SWIDTH 256 0
DWIDTH 16 0
BBX 16 16 0 -2
BITMAP
0000
0000
0000
0000
0000
0000
0000
0000
0000
0000
0000
0000
0000
0000
0000
0000
ENDCHAR
STARTCHAR a7a1
ENCODING 42913
SWIDTH 256 0
DWIDTH 16 0
BBX 16 16 0 -2
BITMAP
0000
0080
0080
0140
0140
0220
0220
0410
0410
0ff8
0808
1004
1004
380e
0000
0000
ENDCHAR
STARTCHAR a7a2
ENCODING 42914
SWIDTH 256 0
DWIDTH 16 0
BBX 16 16 0 -2
BITMAP
0000
1ff0
0808
0800
0800
0800
0800
0fe0
0818
0804
0804
0804
0818
1fe0
0000
0000
ENDCHAR
STARTCHAR a7a3
ENCODING 42915
SWIDTH 256 0
DWIDTH 16 0
BBX 16 16 0 -2
BITMAP
0000
1fe0
0818
0804
0804
0804
0818
0fe0
0818
0804
0804
0804
0818
1fe0
0000
0000
ENDCHAR
STARTCHAR a7a4
ENCODING 42916
SWIDTH 256 0
DWIDTH 16 0
BBX 16 16 0 -2
BITMAP
0000
1ff8
0804
0800
0800
0800
0800
0800
0800
0800
0800
0800
0800
1c00
0000
0000
ENDCHAR
STARTCHAR a7a5
ENCODING 42917
SWIDTH 256 0
DWIDTH 16 0
BBX 16 16 0 -2
BITMAP
0000
07fc
0208
0208
0208
0208
0408
0408
0408
0408
0408
0808
0808
3ffc
2004
0000
ENDCHAR
STARTCHAR a7a6
ENCODING 42918
SWIDTH 256 0
DWIDTH 16 0
BBX 16 16 0 -2
BITMAP
0000
1ff8
0808
0808
0800
0800
0820
0fe0
0820
0800
0800
0808
0808
1ff8
0000
0000
ENDCHAR
STARTCHAR a7a7
ENCODING 42919
SWIDTH 256 0
DWIDTH 16 0
BBX 16 16 0 -2
BITMAP
0660
0000
1ff8
0808
0808
0800
0820
0fe0
0820
0800
0800
0808
0808
1ff8
0000
0000
ENDCHAR
STARTCHAR a7a8
ENCODING 42920
SWIDTH 256 0
DWIDTH 16 0
BBX 16 16 0 -2
BITMAP
0000
31c6
0888
0888
0888
0888
0490
03e0
0490
0490
0888
0888
1084
39ce
0000
0000
ENDCHAR
STARTCHAR a7a9
ENCODING 42921
SWIDTH 256 0
DWIDTH 16 0
BBX 16 16 0 -2
BITMAP
0000
0fe0
1018
0004
0004
0004
0018
03e0
0018
0004
0004
0004
1018
0fe0
0000
0000
ENDCHAR
STARTCHAR a7aa
ENCODING 42922
SWIDTH 256 0
DWIDTH 16 0
BBX 16 16 0 -2
BITMAP
0000
380e
1004
100c
1014
1024
1044
1084
1104
1204
1404
1804
1004
380e
0000
0000
ENDCHAR
STARTCHAR a7ab
ENCODING 42923
SWIDTH 256 0
DWIDTH 16 0
BBX 16 16 0 -2
BITMAP
0220
39ce
1004
100c
1014
1024
1044
1084
1104
1204
1404
1804
1004
380e
0000
0000
ENDCHAR
STARTCHAR a7ac
ENCODING 42924
SWIDTH 256 0
DWIDTH 16 0
BBX 16 16 0 -2
BITMAP
0000
1c18
0824
0840
0840
0880
0880
0f00
0880
0840
0840
0820
0810
1c0c
0000
0000
ENDCHAR
STARTCHAR a7ad
ENCODING 42925
SWIDTH 256 0
DWIDTH 16 0
BBX 16 16 0 -2
BITMAP
0000
07fc
0108
0108
0108
0108
0208
0208
0208
0208
0408
0408
2408
181c
0000
0000
ENDCHAR
STARTCHAR a7ae
ENCODING 42926
SWIDTH 256 0
DWIDTH 16 0
BBX 16 16 0 -2
BITMAP
0000
7007
280a
280a
2412
2412
2412
2222
2222
2222
2142
2142
2082
7087
0000
0000
ENDCHAR
STARTCHAR a7af
ENCODING 42927
SWIDTH 256 0
DWIDTH 16 0
BBX 16 16 0 -2
BITMAP
0000
1c1c
0808
0808
0808
0808
0808
0ff8
0808
0808
0808
0808
0808
1c1c
0000
0000
ENDCHAR
STARTCHAR a7b0
ENCODING 42928
SWIDTH 256 0
DWIDTH 16 0
BBX 16 16 0 -2
BITMAP
0000
03e0
0c18
1004
1004
2002
2002
2002
2002
2002
1004
1004
0c18
03e0
0000
0000
ENDCHAR
STARTCHAR a7b1
ENCODING 42929
SWIDTH 256 0
DWIDTH 16 0
BBX 16 16 0 -2
BITMAP
0000
1ffc
0808
0808
0808
0808
0808
0808
0808
0808
0808
0808
0808
1c1c
0000
0000
ENDCHAR
STARTCHAR a7b2
ENCODING 42930
SWIDTH 256 0
DWIDTH 16 0
BBX 16 16 0 -2
BITMAP
0000
1fe0
0818
0804
0804
0804
0818
0fe0
0800
0800
0800
0800
0800
1c00
0000
0000
ENDCHAR
STARTCHAR a7b3
ENCODING 42931
SWIDTH 256 0
DWIDTH 16 0
BBX 16 16 0 -2
BITMAP
0000
01f0
0608
0804
0804
1000
1000
1000
1000
1000
0804
0804
0608
01f0
0000
0000
ENDCHAR
STARTCHAR a7b4
ENCODING 42932
SWIDTH 256 0
DWIDTH 16 0
BBX 16 16 0 -2
BITMAP
0000
3ffe
2082
2082
0080
0080
0080
0080
0080
0080
0080
0080
0080
01c0
0000
0000
ENDCHAR
STARTCHAR a7b5
ENCODING 42933
SWIDTH 256 0
DWIDTH 16 0
BBX 16 16 0 -2
BITMAP
0000
380e
1004
1004
0808
0808
0410
0410
0220
0220
0140
0880
0900
0600
0000
0000
ENDCHAR
STARTCHAR a7b6
ENCODING 42934
SWIDTH 256 0
DWIDTH 16 0
BBX 16 16 0 -2
BITMAP
0000
01c0
0080
0ff8
1084
2082
2082
2082
2082
2082
1084
0ff8
0080
01c0
0000
0000
ENDCHAR
STARTCHAR a7b7
ENCODING 42935
SWIDTH 256 0
DWIDTH 16 0
BBX 16 16 0 -2
BITMAP
0000
380e
0808
0410
0220
0220
0140
0080
0140
0220
0220
0410
0808
380e
0000
0000
ENDCHAR
STARTCHAR a7b8
ENCODING 42936
SWIDTH 256 0
DWIDTH 16 0
BBX 16 16 0 -2
BITMAP
0000
1c1c
0808
0808
0808
0808
0808
0808
0808
0808
0808
0808
0808
1ffc
0002
0000
ENDCHAR
STARTCHAR a7b9
ENCODING 42937
SWIDTH 256 0
DWIDTH 16 0
BBX 16 16 0 -2
BITMAP
0000
381c
1008
1008
1008
1008
1008
1008
0c18
03e8
0008
0008
0008
001c
0000
0000
ENDCHAR
STARTCHAR a7ba
ENCODING 42938
SWIDTH 256 0
DWIDTH 16 0
BBX 16 16 0 -2
BITMAP
0000
39ce
1084
1084
1084
1084
1084
1084
1084
1084
1084
1084
1084
3ffe
0000
0000
ENDCHAR
STARTCHAR a7bb
ENCODING 42939
SWIDTH 256 0
DWIDTH 16 0
BBX 16 16 0 -2
BITMAP
0000
39ce
1084
1084
1084
1084
1084
1084
1084
1084
1084
1084
1084
3ffe
0003
0000
ENDCHAR
STARTCHAR a7bc
ENCODING 42940
SWIDTH 256 0
DWIDTH 16 0
BBX 16 16 0 -2
BITMAP
0000
1f80
1100
1100
0100
0100
01f0
010c
0102
0102
0102
0102
010c
03f0
0000
0000
ENDCHAR
STARTCHAR a7bd
ENCODING 42941
SWIDTH 256 0
DWIDTH 16 0
BBX 16 16 0 -2
BITMAP
0000
380e
1004
1004
1004
1004
1f04
10c4
1024
1024
1024
1024
10c4
3f0e
0000
0000
ENDCHAR
STARTCHAR a7be
ENCODING 42942
SWIDTH 256 0
DWIDTH 16 0
BBX 16 16 0 -2
BITMAP
0000
1c00
0800
0800
0800
0800
0fe0
0818
0804
0804
0804
0804
0818
1fe0
0000
0000
ENDCHAR
STARTCHAR a7bf
ENCODING 42943
SWIDTH 256 0
DWIDTH 16 0
BBX 16 16 0 -2
BITMAP
0000
07c0
0830
1008
0008
0004
01e4
061c
0004
0004
0008
1008
0830
07c0
0000
0000
ENDCHAR
STARTCHAR a7c0
ENCODING 42944
SWIDTH 256 0
DWIDTH 16 0
BBX 16 16 0 -2
BITMAP
0000
38f0
1108
1108
1204
1204
1204
1e04
1204
1204
1204
1108
1108
38f0
0000
0000
ENDCHAR
STARTCHAR a7c1
ENCODING 42945
SWIDTH 256 0
DWIDTH 16 0
BBX 16 16 0 -2
BITMAP
0000
03fc
0c08
1008
1008
1008
0c08
03f8
0108
0108
0208
0208
0408
181c
0000
0000
ENDCHAR
STARTCHAR a7c2
ENCODING 42946
SWIDTH 256 0
DWIDTH 16 0
BBX 16 16 0 -2
BITMAP
0000
0000
0000
0000
0000
0000
0000
0000
0000
0000
0000
0000
0000
0000
0000
0000
ENDCHAR
STARTCHAR a7c3
ENCODING 42947
SWIDTH 256 0
DWIDTH 16 0
BBX 16 16 0 -2
BITMAP
0000
0000
0000
0000
0000
0000
0000
0000
0000
0000
0000
0000
0000
0000
0000
0000
ENDCHAR
STARTCHAR a7c4
ENCODING 42948
SWIDTH 256 0
DWIDTH 16 0
BBX 16 16 0 -2
BITMAP
0000
0000
0000
0000
0000
0000
0000
0000
0000
0000
0000
0000
0000
0000
0000
0000
ENDCHAR
STARTCHAR a7c5
ENCODING 42949
SWIDTH 256 0
DWIDTH 16 0
BBX 16 16 0 -2
BITMAP
0000
0000
0000
0000
0000
0000
0000
0000
0000
0000
0000
0000
0000
0000
0000
0000
ENDCHAR
STARTCHAR a7c6
ENCODING 42950
SWIDTH 256 0
DWIDTH 16 0
BBX 16 16 0 -2
BITMAP
0000
0000
0000
0000
0000
0000
0000
0000
0000
0000
0000
0000
0000
0000
0000
0000
ENDCHAR
STARTCHAR a7c7
ENCODING 42951
SWIDTH 256 0
DWIDTH 16 0
BBX 16 16 0 -2
BITMAP
0000
0000
0000
0000
0000
0000
0000
0000
0000
0000
0000
0000
0000
0000
0000
0000
ENDCHAR
STARTCHAR a7c8
ENCODING 42952
SWIDTH 256 0
DWIDTH 16 0
BBX 16 16 0 -2
BITMAP
0000
0000
0000
0000
0000
0000
0000
0000
0000
0000
0000
0000
0000
0000
0000
0000
ENDCHAR
STARTCHAR a7c9
ENCODING 42953
SWIDTH 256 0
DWIDTH 16 0
BBX 16 16 0 -2
BITMAP
0000
0000
0000
0000
0000
0000
0000
0000
0000
0000
0000
0000
0000
0000
0000
0000
ENDCHAR
STARTCHAR a7ca
ENCODING 42954
SWIDTH 256 0
DWIDTH 16 0
BBX 16 16 0 -2
BITMAP
0000
0000
0000
0000
0000
0000
0000
0000
0000
0000
0000
0000
0000
0000
0000
0000
ENDCHAR
STARTCHAR a7cb
ENCODING 42955
SWIDTH 256 0
DWIDTH 16 0
BBX 16 16 0 -2
BITMAP
0000
0000
0000
0000
0000
0000
0000
0000
0000
0000
0000
0000
0000
0000
0000
0000
ENDCHAR
STARTCHAR a7cc
ENCODING 42956
SWIDTH 256 0
DWIDTH 16 0
BBX 16 16 0 -2
BITMAP
0000
0000
0000
0000
0000
0000
0000
0000
0000
0000
0000
0000
0000
0000
0000
0000
ENDCHAR
STARTCHAR a7cd
ENCODING 42957
SWIDTH 256 0
DWIDTH 16 0
BBX 16 16 0 -2
BITMAP
0000
0000
0000
0000
0000
0000
0000
0000
0000
0000
0000
0000
0000
0000
0000
0000
ENDCHAR
STARTCHAR a7ce
ENCODING 42958
SWIDTH 256 0
DWIDTH 16 0
BBX 16 16 0 -2
BITMAP
0000
0000
0000
0000
0000
0000
0000
0000
0000
0000
0000
0000
0000
0000
0000
0000
ENDCHAR
STARTCHAR a7cf
ENCODING 42959
SWIDTH 256 0
DWIDTH 16 0
BBX 16 16 0 -2
BITMAP
0000
0000
0000
0000
0000
0000
0000
0000
0000
0000
0000
0000
0000
0000
0000
0000
ENDCHAR
STARTCHAR a7d0
ENCODING 42960
SWIDTH 256 0
DWIDTH 16 0
BBX 16 16 0 -2
BITMAP
0000
0000
0000
0000
0000
0000
0000
0000
0000
0000
0000
0000
0000
0000
0000
0000
ENDCHAR
STARTCHAR a7d1
ENCODING 42961
SWIDTH 256 0
DWIDTH 16 0
BBX 16 16 0 -2
BITMAP
0000
0000
0000
0000
0000
03c0
0420
0810
01f0
0610
0810
0810
0830
07d8
0000
0000
ENDCHAR
STARTCHAR a7d2
ENCODING 42962
SWIDTH 256 0
DWIDTH 16 0
BBX 16 16 0 -2
BITMAP
0000
0008
01f0
0200
0400
05e0
0610
0408
0408
0408
0408
0408
0210
01e0
0000
0000
ENDCHAR
STARTCHAR a7d3
ENCODING 42963
SWIDTH 256 0
DWIDTH 16 0
BBX 16 16 0 -2
BITMAP
0000
0000
0000
0000
0000
0fe0
0410
0408
0408
07f0
0408
0408
0410
0fe0
0000
0000
ENDCHAR
STARTCHAR a7d4
ENCODING 42964
SWIDTH 256 0
DWIDTH 16 0
BBX 16 16 0 -2
BITMAP
0000
0000
0000
0000
0000
0ff8
0408
0408
0400
0400
0400
0400
0400
0e00
0000
0000
ENDCHAR
STARTCHAR a7d5
ENCODING 42965
SWIDTH 256 0
DWIDTH 16 0
BBX 16 16 0 -2
BITMAP
0000
0000
0000
0000
0000
0ff8
0210
0210
0410
0410
0410
0810
0810
0ff0
1008
0000
ENDCHAR
STARTCHAR a7d6
ENCODING 42966
SWIDTH 256 0
DWIDTH 16 0
BBX 16 16 0 -2
BITMAP
0000
0000
0000
0000
0000
03e0
0410
0808
0808
0ff0
0800
0800
0410
03e0
0000
0000
ENDCHAR
STARTCHAR a7d7
ENCODING 42967
SWIDTH 256 0
DWIDTH 16 0
BBX 16 16 0 -2
BITMAP
0000
0000
0000
0220
0000
03e0
0410
0808
0808
0ff8
0800
0800
0410
03e0
0000
0000
ENDCHAR
STARTCHAR a7d8
ENCODING 42968
SWIDTH 256 0
DWIDTH 16 0
BBX 16 16 0 -2
BITMAP
0000
0000
0000
0000
0000
19cc
2492
0490
02a0
01c0
02a0
0490
0888
39ce
0000
0000
ENDCHAR
STARTCHAR a7d9
ENCODING 42969
SWIDTH 256 0
DWIDTH 16 0
BBX 16 16 0 -2
BITMAP
0000
0000
0000
0000
0000
07e0
0810
0008
0010
03e0
0010
0008
0810
07e0
0000
0000
ENDCHAR
STARTCHAR a7da
ENCODING 42970
SWIDTH 256 0
DWIDTH 16 0
BBX 16 16 0 -2
BITMAP
0000
0000
0000
0000
0000
0e38
0410
0430
0450
0490
0510
0610
0410
0e38
0000
0000
ENDCHAR
STARTCHAR a7db
ENCODING 42971
SWIDTH 256 0
DWIDTH 16 0
BBX 16 16 0 -2
BITMAP
0000
0000
0220
01c0
0000
0e38
0410
0430
0450
0490
0510
0610
0410
0e38
0000
0000
ENDCHAR
STARTCHAR a7dc
ENCODING 42972
SWIDTH 256 0
DWIDTH 16 0
BBX 16 16 0 -2
BITMAP
0000
0000
0000
0000
0000
0e30
0448
0440
0480
0700
0480
0440
0420
0e18
0000
0000
ENDCHAR
STARTCHAR a7dd
ENCODING 42973
SWIDTH 256 0
DWIDTH 16 0
BBX 16 16 0 -2
BITMAP
0000
0000
0000
0000
0000
07f8
0210
0210
0210
0210
0210
0410
2410
1838
0000
0000
ENDCHAR
STARTCHAR a7de
ENCODING 42974
SWIDTH 256 0
DWIDTH 16 0
BBX 16 16 0 -2
BITMAP
0000
0000
0000
0000
0000
1c1c
0a28
0a28
0a28
0948
0948
0948
0888
1c9c
0000
0000
ENDCHAR
STARTCHAR a7df
ENCODING 42975
SWIDTH 256 0
DWIDTH 16 0
BBX 16 16 0 -2
BITMAP
0000
0000
0000
0000
0000
0e38
0410
0410
0410
07f0
0410
0410
0410
0e38
0000
0000
ENDCHAR
STARTCHAR a7e0
ENCODING 42976
SWIDTH 256 0
DWIDTH 16 0
BBX 16 16 0 -2
BITMAP
0000
0000
0000
0000
0000
03e0
0410
0808
0808
0808
0808
0808
0410
03e0
0000
0000
ENDCHAR
STARTCHAR a7e1
ENCODING 42977
SWIDTH 256 0
DWIDTH 16 0
BBX 16 16 0 -2
BITMAP
0000
0000
0000
0000
0000
0ff8
0410
0410
0410
0410
0410
0410
0410
0e38
0000
0000
ENDCHAR
STARTCHAR a7e2
ENCODING 42978
SWIDTH 256 0
DWIDTH 16 0
BBX 16 16 0 -2
BITMAP
0000
0000
0000
0000
0000
0de0
0610
0408
0408
0408
0408
0610
05e0
0400
0400
0e00
ENDCHAR
STARTCHAR a7e3
ENCODING 42979
SWIDTH 256 0
DWIDTH 16 0
BBX 16 16 0 -2
BITMAP
0000
0000
0000
0000
0000
03e0
0410
0808
0800
0800
0800
0808
0410
03e0
0000
0000
ENDCHAR
STARTCHAR a7e4
ENCODING 42980
SWIDTH 256 0
DWIDTH 16 0
BBX 16 16 0 -2
BITMAP
0000
0000
0000
0000
0000
1ffc
1084
0080
0080
0080
0080
0080
0080
01c0
0000
0000
ENDCHAR
STARTCHAR a7e5
ENCODING 42981
SWIDTH 256 0
DWIDTH 16 0
BBX 16 16 0 -2
BITMAP
0000
0000
0000
0000
0000
1c1c
0808
0410
0410
0220
0220
0140
0140
0080
0900
0600
ENDCHAR
STARTCHAR a7e6
ENCODING 42982
SWIDTH 256 0
DWIDTH 16 0
BBX 16 16 0 -2
BITMAP
0000
0000
0000
0000
0000
01c0
0080
07f0
0888
0888
0888
07f0
0080
01c0
0000
0000
ENDCHAR
STARTCHAR a7e7
ENCODING 42983
SWIDTH 256 0
DWIDTH 16 0
BBX 16 16 0 -2
BITMAP
0000
0000
0000
0000
0000
1c1c
0410
0220
0140
0080
0140
0220
0410
1c1c
0000
0000
ENDCHAR
STARTCHAR a7e8
ENCODING 42984
SWIDTH 256 0
DWIDTH 16 0
BBX 16 16 0 -2
BITMAP
0000
0000
0000
0000
0000
0e38
0410
0410
0410
0410
0410
0410
0410
0ff0
0008
0000
ENDCHAR
STARTCHAR a7e9
ENCODING 42985
SWIDTH 256 0
DWIDTH 16 0
BBX 16 16 0 -2
BITMAP
0000
0000
0000
0000
0000
1c38
0810
0810
0810
0810
0430
03d0
0010
0038
0000
0000
ENDCHAR
STARTCHAR a7ea
ENCODING 42986
SWIDTH 256 0
DWIDTH 16 0
BBX 16 16 0 -2
BITMAP
0000
0000
0000
0000
0000
39ce
1084
1084
1084
1084
1084
1084
1084
3ffe
0000
0000
ENDCHAR
STARTCHAR a7eb
ENCODING 42987
SWIDTH 256 0
DWIDTH 16 0
BBX 16 16 0 -2
BITMAP
0000
0000
0000
0000
0000
39ce
1084
1084
1084
1084
1084
1084
1084
3ffc
0002
0000
ENDCHAR
STARTCHAR a7ec
ENCODING 42988
SWIDTH 256 0
DWIDTH 16 0
BBX 16 16 0 -2
BITMAP
0000
0000
0000
0000
0000
1f80
1200
0200
03e0
0210
0208
0208
0210
07e0
0000
0000
ENDCHAR
STARTCHAR a7ed
ENCODING 42989
SWIDTH 256 0
DWIDTH 16 0
BBX 16 16 0 -2
BITMAP
0000
0000
0000
0000
0000
1c1c
0808
0808
0f88
0848
0828
0828
0848
1f9c
0000
0000
ENDCHAR
STARTCHAR a7ee
ENCODING 42990
SWIDTH 256 0
DWIDTH 16 0
BBX 16 16 0 -2
BITMAP
0000
0000
0000
0000
0000
0e00
0400
0400
07e0
0410
0408
0408
0410
0fe0
0000
0000
ENDCHAR
STARTCHAR a7ef
ENCODING 42991
SWIDTH 256 0
DWIDTH 16 0
BBX 16 16 0 -2
BITMAP
0000
0000
0000
0000
0000
03e0
0410
0008
00c8
0338
0008
0008
0410
03e0
0000
0000
ENDCHAR
STARTCHAR a7f0
ENCODING 42992
SWIDTH 256 0
DWIDTH 16 0
BBX 16 16 0 -2
BITMAP
0000
0000
0000
0000
0000
1c70
0888
0904
0904
0f04
0904
0904
0888
1c70
0000
0000
ENDCHAR
STARTCHAR a7f1
ENCODING 42993
SWIDTH 256 0
DWIDTH 16 0
BBX 16 16 0 -2
BITMAP
0000
0000
0000
0000
0000
03f8
0410
0810
0810
0410
03f0
0110
0210
0c38
0000
0000
ENDCHAR
STARTCHAR a7f2
ENCODING 42994
SWIDTH 256 0
DWIDTH 16 0
BBX 16 16 0 -2
BITMAP
0000
0000
0000
0000
0000
0000
0000
0000
0000
0000
0000
0000
0000
0000
0000
0000
ENDCHAR
STARTCHAR a7f3
ENCODING 42995
SWIDTH 256 0
DWIDTH 16 0
BBX 16 16 0 -2
BITMAP
0000
0000
0000
0000
0000
0000
0000
0000
0000
0000
0000
0000
0000
0000
0000
0000
ENDCHAR
STARTCHAR a7f4
ENCODING 42996
SWIDTH 256 0
DWIDTH 16 0
BBX 16 16 0 -2
BITMAP
0000
0000
0000
0000
0000
0000
0000
0000
0000
0000
0000
0000
0000
0000
0000
0000
ENDCHAR
STARTCHAR a7f5
ENCODING 42997
SWIDTH 256 0
DWIDTH 16 0
BBX 16 16 0 -2
BITMAP
0000
0000
0000
0000
0000
0000
0000
0000
0000
0000
0000
0000
0000
0000
0000
0000
ENDCHAR
STARTCHAR a7f6
ENCODING 42998
SWIDTH 256 0
DWIDTH 16 0
BBX 16 16 0 -2
BITMAP
0000
0000
0000
0000
0000
0000
0000
0000
0000
0000
0000
0000
0000
0000
0000
0000
ENDCHAR
STARTCHAR a7f7
ENCODING 42999
SWIDTH 256 0
DWIDTH 16 0
BBX 16 16 0 -2
BITMAP
0000
0000
0000
0000
0000
0000
0000
0000
0000
0000
0000
0000
0000
0000
0000
0000
ENDCHAR
STARTCHAR a7f8
ENCODING 43000
SWIDTH 256 0
DWIDTH 16 0
BBX 16 16 0 -2
BITMAP
0000
0000
0000
0000
0000
0000
0000
0000
0000
0000
0000
0000
0000
0000
0000
0000
ENDCHAR
STARTCHAR a7f9
ENCODING 43001
SWIDTH 256 0
DWIDTH 16 0
BBX 16 16 0 -2
BITMAP
0000
0000
0000
0000
0000
0000
0000
0000
0000
0000
0000
0000
0000
0000
0000
0000
ENDCHAR
STARTCHAR a7fa
ENCODING 43002
SWIDTH 256 0
DWIDTH 16 0
BBX 16 16 0 -2
BITMAP
0000
0000
0000
0000
0000
0000
0000
0000
0000
0000
0000
0000
0000
0000
0000
0000
ENDCHAR
STARTCHAR a7fb
ENCODING 43003
SWIDTH 256 0
DWIDTH 16 0
BBX 16 16 0 -2
BITMAP
0000
0000
0000
0000
0000
0000
0000
0000
0000
0000
0000
0000
0000
0000
0000
0000
ENDCHAR
STARTCHAR a7fc
ENCODING 43004
SWIDTH 256 0
DWIDTH 16 0
BBX 16 16 0 -2
BITMAP
0000
0000
0000
0000
0000
0000
0000
0000
0000
0000
0000
0000
0000
0000
0000
0000
ENDCHAR
STARTCHAR a7fd
ENCODING 43005
SWIDTH 256 0
DWIDTH 16 0
BBX 16 16 0 -2
BITMAP
0000
0000
0000
0000
0000
0000
0000
0000
0000
0000
0000
0000
0000
0000
0000
0000
ENDCHAR
STARTCHAR a7fe
ENCODING 43006
SWIDTH 256 0
DWIDTH 16 0
BBX 16 16 0 -2
BITMAP
0000
0000
0000
0000
0000
0000
0000
0000
0000
0000
0000
0000
0000
0000
0000
0000
ENDCHAR
STARTCHAR a8a1
ENCODING 43169
SWIDTH 256 0
DWIDTH 16 0
BBX 16 16 0 -2
BITMAP
0000
0000
0000
0000
0000
0000
0000
0000
0000
0000
0000
0000
0000
0000
0000
0000
ENDCHAR
STARTCHAR a8a2
ENCODING 43170
SWIDTH 256 0
DWIDTH 16 0
BBX 16 16 0 -2
BITMAP
0000
0000
0000
0000
0000
0000
0000
0000
0000
0000
0000
0000
0000
0000
0000
0000
ENDCHAR
STARTCHAR a8a3
ENCODING 43171
SWIDTH 256 0
DWIDTH 16 0
BBX 16 16 0 -2
BITMAP
0000
0000
0000
0000
0000
0000
0000
0000
0000
0000
0000
0000
0000
0000
0000
0000
ENDCHAR
STARTCHAR a8a4
ENCODING 43172
SWIDTH 256 0
DWIDTH 16 0
BBX 16 16 0 -2
BITMAP
0000
0000
0000
0000
0000
0000
0000
0000
0000
0000
0000
0000
0000
0000
0000
0000
ENDCHAR
STARTCHAR a8a5
ENCODING 43173
SWIDTH 256 0
DWIDTH 16 0
BBX 16 16 0 -2
BITMAP
0000
0000
0000
0000
0000
0000
0000
0000
0000
0000
0000
0000
0000
0000
0000
0000
ENDCHAR
STARTCHAR a8a6
ENCODING 43174
SWIDTH 256 0
DWIDTH 16 0
BBX 16 16 0 -2
BITMAP
0000
0000
0000
0000
0000
0000
0000
0000
0000
0000
0000
0000
0000
0000
0000
0000
ENDCHAR
STARTCHAR a8a7
ENCODING 43175
SWIDTH 256 0
DWIDTH 16 0
BBX 16 16 0 -2
BITMAP
0000
0000
0000
0000
0000
0000
0000
0000
0000
0000
0000
0000
0000
0000
0000
0000
ENDCHAR
STARTCHAR a8a8
ENCODING 43176
SWIDTH 256 0
DWIDTH 16 0
BBX 16 16 0 -2
BITMAP
0000
0000
0000
0000
0000
0000
0000
0000
0000
0000
0000
0000
0000
0000
0000
0000
ENDCHAR
STARTCHAR a8a9
ENCODING 43177
SWIDTH 256 0
DWIDTH 16 0
BBX 16 16 0 -2
BITMAP
0000
0000
0000
0000
0000
0000
0000
0000
0000
0000
0000
0000
0000
0000
0000
0000
ENDCHAR
STARTCHAR a8aa
ENCODING 43178
SWIDTH 256 0
DWIDTH 16 0
BBX 16 16 0 -2
BITMAP
0000
0000
0000
0000
0000
0000
0000
0000
0000
0000
0000
0000
0000
0000
0000
0000
ENDCHAR
STARTCHAR a8ab
ENCODING 43179
SWIDTH 256 0
DWIDTH 16 0
BBX 16 16 0 -2
BITMAP
0000
0000
0000
0000
0000
0000
0000
0000
0000
0000
0000
0000
0000
0000
0000
0000
ENDCHAR
STARTCHAR a8ac
ENCODING 43180
SWIDTH 256 0
DWIDTH 16 0
BBX 16 16 0 -2
BITMAP
0000
0000
0000
0000
0000
0000
0000
0000
0000
0000
0000
0000
0000
0000
0000
0000
ENDCHAR
STARTCHAR a8ad
ENCODING 43181
SWIDTH 256 0
DWIDTH 16 0
BBX 16 16 0 -2
BITMAP
0000
0000
0000
0000
0000
0000
0000
0000
0000
0000
0000
0000
0000
0000
0000
0000
ENDCHAR
STARTCHAR a8ae
ENCODING 43182
SWIDTH 256 0
DWIDTH 16 0
BBX 16 16 0 -2
BITMAP
0000
0000
0000
0000
0000
0000
0000
0000
0000
0000
0000
0000
0000
0000
0000
0000
ENDCHAR
STARTCHAR a8af
ENCODING 43183
SWIDTH 256 0
DWIDTH 16 0
BBX 16 16 0 -2
BITMAP
0000
0000
0000
0000
0000
0000
0000
0000
0000
0000
0000
0000
0000
0000
0000
0000
ENDCHAR
STARTCHAR a8b0
ENCODING 43184
SWIDTH 256 0
DWIDTH 16 0
BBX 16 16 0 -2
BITMAP
0000
0000
0000
0000
0000
0000
0000
0000
0000
0000
0000
0000
0000
0000
0000
0000
ENDCHAR
STARTCHAR a8b1
ENCODING 43185
SWIDTH 256 0
DWIDTH 16 0
BBX 16 16 0 -2
BITMAP
0000
0000
0000
0000
0000
0000
0000
0000
0000
0000
0000
0000
0000
0000
0000
0000
ENDCHAR
STARTCHAR a8b2
ENCODING 43186
SWIDTH 256 0
DWIDTH 16 0
BBX 16 16 0 -2
BITMAP
0000
0000
0000
0000
0000
0000
0000
0000
0000
0000
0000
0000
0000
0000
0000
0000
ENDCHAR
STARTCHAR a8b3
ENCODING 43187
SWIDTH 256 0
DWIDTH 16 0
BBX 16 16 0 -2
BITMAP
0000
0000
0000
0000
0000
0000
0000
0000
0000
0000
0000
0000
0000
0000
0000
0000
ENDCHAR
STARTCHAR a8b4
ENCODING 43188
SWIDTH 256 0
DWIDTH 16 0
BBX 16 16 0 -2
BITMAP
0000
0000
0000
0000
0000
0000
0000
0000
0000
0000
0000
0000
0000
0000
0000
0000
ENDCHAR
STARTCHAR a8b5
ENCODING 43189
SWIDTH 256 0
DWIDTH 16 0
BBX 16 16 0 -2
BITMAP
0000
0000
0000
0000
0000
0000
0000
0000
0000
0000
0000
0000
0000
0000
0000
0000
ENDCHAR
STARTCHAR a8b6
ENCODING 43190
SWIDTH 256 0
DWIDTH 16 0
BBX 16 16 0 -2
BITMAP
0000
0000
0000
0000
0000
0000
0000
0000
0000
0000
0000
0000
0000
0000
0000
0000
ENDCHAR
STARTCHAR a8b7
ENCODING 43191
SWIDTH 256 0
DWIDTH 16 0
BBX 16 16 0 -2
BITMAP
0000
0000
0000
0000
0000
0000
0000
0000
0000
0000
0000
0000
0000
0000
0000
0000
ENDCHAR
STARTCHAR a8b8
ENCODING 43192
SWIDTH 256 0
DWIDTH 16 0
BBX 16 16 0 -2
BITMAP
0000
0000
0000
0000
0000
0000
0000
0000
0000
0000
0000
0000
0000
0000
0000
0000
ENDCHAR
STARTCHAR a8b9
ENCODING 43193
SWIDTH 256 0
DWIDTH 16 0
BBX 16 16 0 -2
BITMAP
0000
0000
0000
0000
0000
0000
0000
0000
0000
0000
0000
0000
0000
0000
0000
0000
ENDCHAR
STARTCHAR a8ba
ENCODING 43194
SWIDTH 256 0
DWIDTH 16 0
BBX 16 16 0 -2
BITMAP
0000
0000
0000
0000
0000
0000
0000
0000
0000
0000
0000
0000
0000
0000
0000
0000
ENDCHAR
STARTCHAR a8bb
ENCODING 43195
SWIDTH 256 0
DWIDTH 16 0
BBX 16 16 0 -2
BITMAP
0000
0000
0000
0000
0000
0000
0000
0000
0000
0000
0000
0000
0000
0000
0000
0000
ENDCHAR
STARTCHAR a8bc
ENCODING 43196
SWIDTH 256 0
DWIDTH 16 0
BBX 16 16 0 -2
BITMAP
0000
0000
0000
0000
0000
0000
0000
0000
0000
0000
0000
0000
0000
0000
0000
0000
ENDCHAR
STARTCHAR a8bd
ENCODING 43197
SWIDTH 256 0
DWIDTH 16 0
BBX 16 16 0 -2
BITMAP
0000
0000
0000
0000
0000
0000
0000
0000
0000
0000
0000
0000
0000
0000
0000
0000
ENDCHAR
STARTCHAR a8be
ENCODING 43198
SWIDTH 256 0
DWIDTH 16 0
BBX 16 16 0 -2
BITMAP
0000
0000
0000
0000
0000
0000
0000
0000
0000
0000
0000
0000
0000
0000
0000
0000
ENDCHAR
STARTCHAR a8bf
ENCODING 43199
SWIDTH 256 0
DWIDTH 16 0
BBX 16 16 0 -2
BITMAP
0000
0000
0000
0000
0000
0000
0000
0000
0000
0000
0000
0000
0000
0000
0000
0000
ENDCHAR
STARTCHAR a8c0
ENCODING 43200
SWIDTH 256 0
DWIDTH 16 0
BBX 16 16 0 -2
BITMAP
0000
0000
0000
0000
0000
0000
0000
0000
0000
0000
0000
0000
0000
0000
0000
0000
ENDCHAR
STARTCHAR a8c1
ENCODING 43201
SWIDTH 256 0
DWIDTH 16 0
BBX 16 16 0 -2
BITMAP
0000
0000
0000
0000
0000
0000
0000
0000
0000
0000
0000
0000
0000
0000
0000
0000
ENDCHAR
STARTCHAR a8c2
ENCODING 43202
SWIDTH 256 0
DWIDTH 16 0
BBX 16 16 0 -2
BITMAP
0000
0000
0000
0000
0000
0000
0000
0000
0000
0000
0000
0000
0000
0000
0000
0000
ENDCHAR
STARTCHAR a8c3
ENCODING 43203
SWIDTH 256 0
DWIDTH 16 0
BBX 16 16 0 -2
BITMAP
0000
0000
0000
0000
0000
0000
0000
0000
0000
0000
0000
0000
0000
0000
0000
0000
ENDCHAR
STARTCHAR a8c4
ENCODING 43204
SWIDTH 256 0
DWIDTH 16 0
BBX 16 16 0 -2
BITMAP
0000
0000
0000
0000
0000
0000
0000
0000
0000
0000
0000
0000
0000
0000
0000
0000
ENDCHAR
STARTCHAR a8c5
ENCODING 43205
SWIDTH 256 0
DWIDTH 16 0
BBX 16 16 0 -2
BITMAP
0000
0000
0000
0000
0000
0000
0000
0000
0000
0000
0000
0000
0000
0000
0000
0000
ENDCHAR
STARTCHAR a8c6
ENCODING 43206
SWIDTH 256 0
DWIDTH 16 0
BBX 16 16 0 -2
BITMAP
0000
0000
0000
0000
0000
0000
0000
0000
0000
0000
0000
0000
0000
0000
0000
0000
ENDCHAR
STARTCHAR a8c7
ENCODING 43207
SWIDTH 256 0
DWIDTH 16 0
BBX 16 16 0 -2
BITMAP
0000
0000
0000
0000
0000
0000
0000
0000
0000
0000
0000
0000
0000
0000
0000
0000
ENDCHAR
STARTCHAR a8c8
ENCODING 43208
SWIDTH 256 0
DWIDTH 16 0
BBX 16 16 0 -2
BITMAP
0000
0000
0000
0000
0000
0000
0000
0000
0000
0000
0000
0000
0000
0000
0000
0000
ENDCHAR
STARTCHAR a8c9
ENCODING 43209
SWIDTH 256 0
DWIDTH 16 0
BBX 16 16 0 -2
BITMAP
0000
0000
0000
0000
0000
0000
0000
0000
0000
0000
0000
0000
0000
0000
0000
0000
ENDCHAR
STARTCHAR a8ca
ENCODING 43210
SWIDTH 256 0
DWIDTH 16 0
BBX 16 16 0 -2
BITMAP
0000
0000
0000
0000
0000
0000
0000
0000
0000
0000
0000
0000
0000
0000
0000
0000
ENDCHAR
STARTCHAR a8cb
ENCODING 43211
SWIDTH 256 0
DWIDTH 16 0
BBX 16 16 0 -2
BITMAP
0000
0000
0000
0000
0000
0000
0000
0000
0000
0000
0000
0000
0000
0000
0000
0000
ENDCHAR
STARTCHAR a8cc
ENCODING 43212
SWIDTH 256 0
DWIDTH 16 0
BBX 16 16 0 -2
BITMAP
0000
0000
0000
0000
0000
0000
0000
0000
0000
0000
0000
0000
0000
0000
0000
0000
ENDCHAR
STARTCHAR a8cd
ENCODING 43213
SWIDTH 256 0
DWIDTH 16 0
BBX 16 16 0 -2
BITMAP
0000
0000
0000
0000
0000
0000
0000
0000
0000
0000
0000
0000
0000
0000
0000
0000
ENDCHAR
STARTCHAR a8ce
ENCODING 43214
SWIDTH 256 0
DWIDTH 16 0
BBX 16 16 0 -2
BITMAP
0000
0000
0000
0000
0000
0000
0000
0000
0000
0000
0000
0000
0000
0000
0000
0000
ENDCHAR
STARTCHAR a8cf
ENCODING 43215
SWIDTH 256 0
DWIDTH 16 0
BBX 16 16 0 -2
BITMAP
0000
0000
0000
0000
0000
0000
0000
0000
0000
0000
0000
0000
0000
0000
0000
0000
ENDCHAR
STARTCHAR a8d0
ENCODING 43216
SWIDTH 256 0
DWIDTH 16 0
BBX 16 16 0 -2
BITMAP
0000
0000
0000
0000
0000
0000
0000
0000
0000
0000
0000
0000
0000
0000
0000
0000
ENDCHAR
STARTCHAR a8d1
ENCODING 43217
SWIDTH 256 0
DWIDTH 16 0
BBX 16 16 0 -2
BITMAP
0000
0000
0000
0000
0000
0000
0000
0000
0000
0000
0000
0000
0000
0000
0000
0000
ENDCHAR
STARTCHAR a8d2
ENCODING 43218
SWIDTH 256 0
DWIDTH 16 0
BBX 16 16 0 -2
BITMAP
0000
0000
0000
0000
0000
0000
0000
0000
0000
0000
0000
0000
0000
0000
0000
0000
ENDCHAR
STARTCHAR a8d3
ENCODING 43219
SWIDTH 256 0
DWIDTH 16 0
BBX 16 16 0 -2
BITMAP
0000
0000
0000
0000
0000
0000
0000
0000
0000
0000
0000
0000
0000
0000
0000
0000
ENDCHAR
STARTCHAR a8d4
ENCODING 43220
SWIDTH 256 0
DWIDTH 16 0
BBX 16 16 0 -2
BITMAP
0000
0000
0000
0000
0000
0000
0000
0000
0000
0000
0000
0000
0000
0000
0000
0000
ENDCHAR
STARTCHAR a8d5
ENCODING 43221
SWIDTH 256 0
DWIDTH 16 0
BBX 16 16 0 -2
BITMAP
0000
0000
0000
0000
0000
0000
0000
0000
0000
0000
0000
0000
0000
0000
0000
0000
ENDCHAR
STARTCHAR a8d6
ENCODING 43222
SWIDTH 256 0
DWIDTH 16 0
BBX 16 16 0 -2
BITMAP
0000
0000
0000
0000
0000
0000
0000
0000
0000
0000
0000
0000
0000
0000
0000
0000
ENDCHAR
STARTCHAR a8d7
ENCODING 43223
SWIDTH 256 0
DWIDTH 16 0
BBX 16 16 0 -2
BITMAP
0000
0000
0000
0000
0000
0000
0000
0000
0000
0000
0000
0000
0000
0000
0000
0000
ENDCHAR
STARTCHAR a8d8
ENCODING 43224
SWIDTH 256 0
DWIDTH 16 0
BBX 16 16 0 -2
BITMAP
0000
0000
0000
0000
0000
0000
0000
0000
0000
0000
0000
0000
0000
0000
0000
0000
ENDCHAR
STARTCHAR a8d9
ENCODING 43225
SWIDTH 256 0
DWIDTH 16 0
BBX 16 16 0 -2
BITMAP
0000
0000
0000
0000
0000
0000
0000
0000
0000
0000
0000
0000
0000
0000
0000
0000
ENDCHAR
STARTCHAR a8da
ENCODING 43226
SWIDTH 256 0
DWIDTH 16 0
BBX 16 16 0 -2
BITMAP
0000
0000
0000
0000
0000
0000
0000
0000
0000
0000
0000
0000
0000
0000
0000
0000
ENDCHAR
STARTCHAR a8db
ENCODING 43227
SWIDTH 256 0
DWIDTH 16 0
BBX 16 16 0 -2
BITMAP
0000
0000
0000
0000
0000
0000
0000
0000
0000
0000
0000
0000
0000
0000
0000
0000
ENDCHAR
STARTCHAR a8dc
ENCODING 43228
SWIDTH 256 0
DWIDTH 16 0
BBX 16 16 0 -2
BITMAP
0000
0000
0000
0000
0000
0000
0000
0000
0000
0000
0000
0000
0000
0000
0000
0000
ENDCHAR
STARTCHAR a8dd
ENCODING 43229
SWIDTH 256 0
DWIDTH 16 0
BBX 16 16 0 -2
BITMAP
0000
0000
0000
0000
0000
0000
0000
0000
0000
0000
0000
0000
0000
0000
0000
0000
ENDCHAR
STARTCHAR a8de
ENCODING 43230
SWIDTH 256 0
DWIDTH 16 0
BBX 16 16 0 -2
BITMAP
0000
0000
0000
0000
0000
0000
0000
0000
0000
0000
0000
0000
0000
0000
0000
0000
ENDCHAR
STARTCHAR a8df
ENCODING 43231
SWIDTH 256 0
DWIDTH 16 0
BBX 16 16 0 -2
BITMAP
0000
0000
0000
0000
0000
0000
0000
0000
0000
0000
0000
0000
0000
0000
0000
0000
ENDCHAR
STARTCHAR a8e0
ENCODING 43232
SWIDTH 256 0
DWIDTH 16 0
BBX 16 16 0 -2
BITMAP
0000
0000
0000
0000
0000
0000
0000
0000
0000
0000
0000
0000
0000
0000
0000
0000
ENDCHAR
STARTCHAR a8e1
ENCODING 43233
SWIDTH 256 0
DWIDTH 16 0
BBX 16 16 0 -2
BITMAP
0000
0000
0000
0000
0000
0000
0000
0000
0000
0000
0000
0000
0000
0000
0000
0000
ENDCHAR
STARTCHAR a8e2
ENCODING 43234
SWIDTH 256 0
DWIDTH 16 0
BBX 16 16 0 -2
BITMAP
0000
0000
0000
0000
0000
0000
0000
0000
0000
0000
0000
0000
0000
0000
0000
0000
ENDCHAR
STARTCHAR a8e3
ENCODING 43235
SWIDTH 256 0
DWIDTH 16 0
BBX 16 16 0 -2
BITMAP
0000
0000
0000
0000
0000
0000
0000
0000
0000
0000
0000
0000
0000
0000
0000
0000
ENDCHAR
STARTCHAR a8e4
ENCODING 43236
SWIDTH 256 0
DWIDTH 16 0
BBX 16 16 0 -2
BITMAP
0000
0000
0000
0000
0000
0000
0000
0000
0000
0000
0000
0000
0000
0000
0000
0000
ENDCHAR
STARTCHAR a8e5
ENCODING 43237
SWIDTH 256 0
DWIDTH 16 0
BBX 16 16 0 -2
BITMAP
0000
0000
0000
0000
0000
0000
0000
0000
0000
0000
0000
0000
0000
0000
0000
0000
ENDCHAR
STARTCHAR a8e6
ENCODING 43238
SWIDTH 256 0
DWIDTH 16 0
BBX 16 16 0 -2
BITMAP
0000
0000
0000
0000
0000
0000
0000
0000
0000
0000
0000
0000
0000
0000
0000
0000
ENDCHAR
STARTCHAR a8e7
ENCODING 43239
SWIDTH 256 0
DWIDTH 16 0
BBX 16 16 0 -2
BITMAP
0000
0000
0000
0000
0000
0000
0000
0000
0000
0000
0000
0000
0000
0000
0000
0000
ENDCHAR
STARTCHAR a8e8
ENCODING 43240
SWIDTH 256 0
DWIDTH 16 0
BBX 16 16 0 -2
BITMAP
0000
0000
0000
0000
0000
0000
0000
0000
0000
0000
0000
0000
0000
0000
0000
0000
ENDCHAR
STARTCHAR a8e9
ENCODING 43241
SWIDTH 256 0
DWIDTH 16 0
BBX 16 16 0 -2
BITMAP
0000
0000
0000
0000
0000
0000
0000
0000
0000
0000
0000
0000
0000
0000
0000
0000
ENDCHAR
STARTCHAR a8ea
ENCODING 43242
SWIDTH 256 0
DWIDTH 16 0
BBX 16 16 0 -2
BITMAP
0000
0000
0000
0000
0000
0000
0000
0000
0000
0000
0000
0000
0000
0000
0000
0000
ENDCHAR
STARTCHAR a8eb
ENCODING 43243
SWIDTH 256 0
DWIDTH 16 0
BBX 16 16 0 -2
BITMAP
0000
0000
0000
0000
0000
0000
0000
0000
0000
0000
0000
0000
0000
0000
0000
0000
ENDCHAR
STARTCHAR a8ec
ENCODING 43244
SWIDTH 256 0
DWIDTH 16 0
BBX 16 16 0 -2
BITMAP
0000
0000
0000
0000
0000
0000
0000
0000
0000
0000
0000
0000
0000
0000
0000
0000
ENDCHAR
STARTCHAR a8ed
ENCODING 43245
SWIDTH 256 0
DWIDTH 16 0
BBX 16 16 0 -2
BITMAP
0000
0000
0000
0000
0000
0000
0000
0000
0000
0000
0000
0000
0000
0000
0000
0000
ENDCHAR
STARTCHAR a8ee
ENCODING 43246
SWIDTH 256 0
DWIDTH 16 0
BBX 16 16 0 -2
BITMAP
0000
0000
0000
0000
0000
0000
0000
0000
0000
0000
0000
0000
0000
0000
0000
0000
ENDCHAR
STARTCHAR a8ef
ENCODING 43247
SWIDTH 256 0
DWIDTH 16 0
BBX 16 16 0 -2
BITMAP
0000
0000
0000
0000
0000
0000
0000
0000
0000
0000
0000
0000
0000
0000
0000
0000
ENDCHAR
STARTCHAR a8f0
ENCODING 43248
SWIDTH 256 0
DWIDTH 16 0
BBX 16 16 0 -2
BITMAP
0000
0000
0000
0000
0000
0000
0000
0000
0000
0000
0000
0000
0000
0000
0000
0000
ENDCHAR
STARTCHAR a8f1
ENCODING 43249
SWIDTH 256 0
DWIDTH 16 0
BBX 16 16 0 -2
BITMAP
0000
0000
0000
0000
0000
0000
0000
0000
0000
0000
0000
0000
0000
0000
0000
0000
ENDCHAR
STARTCHAR a8f2
ENCODING 43250
SWIDTH 256 0
DWIDTH 16 0
BBX 16 16 0 -2
BITMAP
0000
0000
0000
0000
0000
0000
0000
0000
0000
0000
0000
0000
0000
0000
0000
0000
ENDCHAR
STARTCHAR a8f3
ENCODING 43251
SWIDTH 256 0
DWIDTH 16 0
BBX 16 16 0 -2
BITMAP
0000
0000
0000
0000
0000
0000
0000
0000
0000
0000
0000
0000
0000
0000
0000
0000
ENDCHAR
STARTCHAR a8f4
ENCODING 43252
SWIDTH 256 0
DWIDTH 16 0
BBX 16 16 0 -2
BITMAP
0000
0000
0000
0000
0000
0000
0000
0000
0000
0000
0000
0000
0000
0000
0000
0000
ENDCHAR
STARTCHAR a8f5
ENCODING 43253
SWIDTH 256 0
DWIDTH 16 0
BBX 16 16 0 -2
BITMAP
0000
0000
0000
0000
0000
0000
0000
0000
0000
0000
0000
0000
0000
0000
0000
0000
ENDCHAR
STARTCHAR a8f6
ENCODING 43254
SWIDTH 256 0
DWIDTH 16 0
BBX 16 16 0 -2
BITMAP
0000
0000
0000
0000
0000
0000
0000
0000
0000
0000
0000
0000
0000
0000
0000
0000
ENDCHAR
STARTCHAR a8f7
ENCODING 43255
SWIDTH 256 0
DWIDTH 16 0
BBX 16 16 0 -2
BITMAP
0000
0000
0000
0000
0000
0000
0000
0000
0000
0000
0000
0000
0000
0000
0000
0000
ENDCHAR
STARTCHAR a8f8
ENCODING 43256
SWIDTH 256 0
DWIDTH 16 0
BBX 16 16 0 -2
BITMAP
0000
0000
0000
0000
0000
0000
0000
0000
0000
0000
0000
0000
0000
0000
0000
0000
ENDCHAR
STARTCHAR a8f9
ENCODING 43257
SWIDTH 256 0
DWIDTH 16 0
BBX 16 16 0 -2
BITMAP
0000
0000
0000
0000
0000
0000
0000
0000
0000
0000
0000
0000
0000
0000
0000
0000
ENDCHAR
STARTCHAR a8fa
ENCODING 43258
SWIDTH 256 0
DWIDTH 16 0
BBX 16 16 0 -2
BITMAP
0000
0000
0000
0000
0000
0000
0000
0000
0000
0000
0000
0000
0000
0000
0000
0000
ENDCHAR
STARTCHAR a8fb
ENCODING 43259
SWIDTH 256 0
DWIDTH 16 0
BBX 16 16 0 -2
BITMAP
0000
0000
0000
0000
0000
0000
0000
0000
0000
0000
0000
0000
0000
0000
0000
0000
ENDCHAR
STARTCHAR a8fc
ENCODING 43260
SWIDTH 256 0
DWIDTH 16 0
BBX 16 16 0 -2
BITMAP
0000
0000
0000
0000
0000
0000
0000
0000
0000
0000
0000
0000
0000
0000
0000
0000
ENDCHAR
STARTCHAR a8fd
ENCODING 43261
SWIDTH 256 0
DWIDTH 16 0
BBX 16 16 0 -2
BITMAP
0000
0000
0000
0000
0000
0000
0000
0000
0000
0000
0000
0000
0000
0000
0000
0000
ENDCHAR
STARTCHAR a8fe
ENCODING 43262
SWIDTH 256 0
DWIDTH 16 0
BBX 16 16 0 -2
BITMAP
0000
0000
0000
0000
0000
0000
0000
0000
0000
0000
0000
0000
0000
0000
0000
0000
ENDCHAR
STARTCHAR a9a1
ENCODING 43425
SWIDTH 256 0
DWIDTH 16 0
BBX 16 16 0 -2
BITMAP
0000
0000
0000
0000
0000
0000
0000
0000
0000
0000
0000
0000
0000
0000
0000
0000
ENDCHAR
STARTCHAR a9a2
ENCODING 43426
SWIDTH 256 0
DWIDTH 16 0
BBX 16 16 0 -2
BITMAP
0000
0000
0000
0000
0000
0000
0000
0000
0000
0000
0000
0000
0000
0000
0000
0000
ENDCHAR
STARTCHAR a9a3
ENCODING 43427
SWIDTH 256 0
DWIDTH 16 0
BBX 16 16 0 -2
BITMAP
0000
0000
0000
0000
0000
0000
0000
0000
0000
0000
0000
0000
0000
0000
0000
0000
ENDCHAR
STARTCHAR a9a4
ENCODING 43428
SWIDTH 256 0
DWIDTH 16 0
BBX 16 16 0 -2
BITMAP
0000
0000
0000
0000
0000
0000
0000
0000
0000
0000
0000
0000
0000
0000
0000
0000
ENDCHAR
STARTCHAR a9a5
ENCODING 43429
SWIDTH 256 0
DWIDTH 16 0
BBX 16 16 0 -2
BITMAP
0000
0000
0000
0000
0000
0000
0000
0000
0000
0000
0000
0000
0000
0000
0000
0000
ENDCHAR
STARTCHAR a9a6
ENCODING 43430
SWIDTH 256 0
DWIDTH 16 0
BBX 16 16 0 -2
BITMAP
0000
0000
0000
0000
0000
0000
0000
0000
0000
0000
0000
0000
0000
0000
0000
0000
ENDCHAR
STARTCHAR a9a7
ENCODING 43431
SWIDTH 256 0
DWIDTH 16 0
BBX 16 16 0 -2
BITMAP
0000
0000
0000
0000
0000
0000
0000
0000
0000
0000
0000
0000
0000
0000
0000
0000
ENDCHAR
STARTCHAR a9a8
ENCODING 43432
SWIDTH 256 0
DWIDTH 16 0
BBX 16 16 0 -2
BITMAP
0000
0000
0000
0000
0000
0000
0000
0000
0000
0000
0000
0000
0000
0000
0000
0000
ENDCHAR
STARTCHAR a9a9
ENCODING 43433
SWIDTH 256 0
DWIDTH 16 0
BBX 16 16 0 -2
BITMAP
0000
0000
0000
0000
0000
0000
0000
0000
0000
0000
0000
0000
0000
0000
0000
0000
ENDCHAR
STARTCHAR a9aa
ENCODING 43434
SWIDTH 256 0
DWIDTH 16 0
BBX 16 16 0 -2
BITMAP
0000
0000
0000
0000
0000
0000
0000
0000
0000
0000
0000
0000
0000
0000
0000
0000
ENDCHAR
STARTCHAR a9ab
ENCODING 43435
SWIDTH 256 0
DWIDTH 16 0
BBX 16 16 0 -2
BITMAP
0000
0000
0000
0000
0000
0000
0000
0000
0000
0000
0000
0000
0000
0000
0000
0000
ENDCHAR
STARTCHAR a9ac
ENCODING 43436
SWIDTH 256 0
DWIDTH 16 0
BBX 16 16 0 -2
BITMAP
0000
0000
0000
0000
0000
0000
0000
0000
0000
0000
0000
0000
0000
0000
0000
0000
ENDCHAR
STARTCHAR a9ad
ENCODING 43437
SWIDTH 256 0
DWIDTH 16 0
BBX 16 16 0 -2
BITMAP
0000
0000
0000
0000
0000
0000
0000
0000
0000
0000
0000
0000
0000
0000
0000
0000
ENDCHAR
STARTCHAR a9ae
ENCODING 43438
SWIDTH 256 0
DWIDTH 16 0
BBX 16 16 0 -2
BITMAP
0000
0000
0000
0000
0000
0000
0000
0000
0000
0000
0000
0000
0000
0000
0000
0000
ENDCHAR
STARTCHAR a9af
ENCODING 43439
SWIDTH 256 0
DWIDTH 16 0
BBX 16 16 0 -2
BITMAP
0000
0000
0000
0000
0000
0000
0000
0000
0000
0000
0000
0000
0000
0000
0000
0000
ENDCHAR
STARTCHAR a9b0
ENCODING 43440
SWIDTH 256 0
DWIDTH 16 0
BBX 16 16 0 -2
BITMAP
0000
0000
0000
0000
0000
0000
0000
0000
0000
0000
0000
0000
0000
0000
0000
0000
ENDCHAR
STARTCHAR a9b1
ENCODING 43441
SWIDTH 256 0
DWIDTH 16 0
BBX 16 16 0 -2
BITMAP
0000
0000
0000
0000
0000
0000
0000
0000
0000
0000
0000
0000
0000
0000
0000
0000
ENDCHAR
STARTCHAR a9b2
ENCODING 43442
SWIDTH 256 0
DWIDTH 16 0
BBX 16 16 0 -2
BITMAP
0000
0000
0000
0000
0000
0000
0000
0000
0000
0000
0000
0000
0000
0000
0000
0000
ENDCHAR
STARTCHAR a9b3
ENCODING 43443
SWIDTH 256 0
DWIDTH 16 0
BBX 16 16 0 -2
BITMAP
0000
0000
0000
0000
0000
0000
0000
0000
0000
0000
0000
0000
0000
0000
0000
0000
ENDCHAR
STARTCHAR a9b4
ENCODING 43444
SWIDTH 256 0
DWIDTH 16 0
BBX 16 16 0 -2
BITMAP
0000
0000
0000
0000
0000
0000
0000
0000
0000
0000
0000
0000
0000
0000
0000
0000
ENDCHAR
STARTCHAR a9b5
ENCODING 43445
SWIDTH 256 0
DWIDTH 16 0
BBX 16 16 0 -2
BITMAP
0000
0000
0000
0000
0000
0000
0000
0000
0000
0000
0000
0000
0000
0000
0000
0000
ENDCHAR
STARTCHAR a9b6
ENCODING 43446
SWIDTH 256 0
DWIDTH 16 0
BBX 16 16 0 -2
BITMAP
0000
0000
0000
0000
0000
0000
0000
0000
0000
0000
0000
0000
0000
0000
0000
0000
ENDCHAR
STARTCHAR a9b7
ENCODING 43447
SWIDTH 256 0
DWIDTH 16 0
BBX 16 16 0 -2
BITMAP
0000
0000
0000
0000
0000
0000
0000
0000
0000
0000
0000
0000
0000
0000
0000
0000
ENDCHAR
STARTCHAR a9b8
ENCODING 43448
SWIDTH 256 0
DWIDTH 16 0
BBX 16 16 0 -2
BITMAP
0000
0000
0000
0000
0000
0000
0000
0000
0000
0000
0000
0000
0000
0000
0000
0000
ENDCHAR
STARTCHAR a9b9
ENCODING 43449
SWIDTH 256 0
DWIDTH 16 0
BBX 16 16 0 -2
BITMAP
0000
0000
0000
0000
0000
0000
0000
0000
0000
0000
0000
0000
0000
0000
0000
0000
ENDCHAR
STARTCHAR a9ba
ENCODING 43450
SWIDTH 256 0
DWIDTH 16 0
BBX 16 16 0 -2
BITMAP
0000
0000
0000
0000
0000
0000
0000
0000
0000
0000
0000
0000
0000
0000
0000
0000
ENDCHAR
STARTCHAR a9bb
ENCODING 43451
SWIDTH 256 0
DWIDTH 16 0
BBX 16 16 0 -2
BITMAP
0000
0000
0000
0000
0000
0000
0000
0000
0000
0000
0000
0000
0000
0000
0000
0000
ENDCHAR
STARTCHAR a9bc
ENCODING 43452
SWIDTH 256 0
DWIDTH 16 0
BBX 16 16 0 -2
BITMAP
0000
0000
0000
0000
0000
0000
0000
0000
0000
0000
0000
0000
0000
0000
0000
0000
ENDCHAR
STARTCHAR a9bd
ENCODING 43453
SWIDTH 256 0
DWIDTH 16 0
BBX 16 16 0 -2
BITMAP
0000
0000
0000
0000
0000
0000
0000
0000
0000
0000
0000
0000
0000
0000
0000
0000
ENDCHAR
STARTCHAR a9be
ENCODING 43454
SWIDTH 256 0
DWIDTH 16 0
BBX 16 16 0 -2
BITMAP
0000
0000
0000
0000
0000
0000
0000
0000
0000
0000
0000
0000
0000
0000
0000
0000
ENDCHAR
STARTCHAR a9bf
ENCODING 43455
SWIDTH 256 0
DWIDTH 16 0
BBX 16 16 0 -2
BITMAP
0000
0000
0000
0000
0000
0000
0000
0000
0000
0000
0000
0000
0000
0000
0000
0000
ENDCHAR
STARTCHAR a9c0
ENCODING 43456
SWIDTH 256 0
DWIDTH 16 0
BBX 16 16 0 -2
BITMAP
0000
0000
0000
0000
0000
0000
0000
0000
0000
0000
0000
0000
0000
0000
0000
0000
ENDCHAR
STARTCHAR a9c1
ENCODING 43457
SWIDTH 256 0
DWIDTH 16 0
BBX 16 16 0 -2
BITMAP
0000
0000
0000
0000
0000
0000
0000
0000
0000
0000
0000
0000
0000
0000
0000
0000
ENDCHAR
STARTCHAR a9c2
ENCODING 43458
SWIDTH 256 0
DWIDTH 16 0
BBX 16 16 0 -2
BITMAP
0000
0000
0000
0000
0000
0000
0000
0000
0000
0000
0000
0000
0000
0000
0000
0000
ENDCHAR
STARTCHAR a9c3
ENCODING 43459
SWIDTH 256 0
DWIDTH 16 0
BBX 16 16 0 -2
BITMAP
0000
0000
0000
0000
0000
0000
0000
0000
0000
0000
0000
0000
0000
0000
0000
0000
ENDCHAR
STARTCHAR a9c4
ENCODING 43460
SWIDTH 256 0
DWIDTH 16 0
BBX 16 16 0 -2
BITMAP
0000
0000
0000
0000
0000
0000
0000
0000
0000
0000
0000
0000
0000
0000
0000
0000
ENDCHAR
STARTCHAR a9c5
ENCODING 43461
SWIDTH 256 0
DWIDTH 16 0
BBX 16 16 0 -2
BITMAP
0000
0000
0000
0000
0000
0000
0000
0000
0000
0000
0000
0000
0000
0000
0000
0000
ENDCHAR
STARTCHAR a9c6
ENCODING 43462
SWIDTH 256 0
DWIDTH 16 0
BBX 16 16 0 -2
BITMAP
0000
0000
0000
0000
0000
0000
0000
0000
0000
0000
0000
0000
0000
0000
0000
0000
ENDCHAR
STARTCHAR a9c7
ENCODING 43463
SWIDTH 256 0
DWIDTH 16 0
BBX 16 16 0 -2
BITMAP
0000
0000
0000
0000
0000
0000
0000
0000
0000
0000
0000
0000
0000
0000
0000
0000
ENDCHAR
STARTCHAR a9c8
ENCODING 43464
SWIDTH 256 0
DWIDTH 16 0
BBX 16 16 0 -2
BITMAP
0000
0000
0000
0000
0000
0000
0000
0000
0000
0000
0000
0000
0000
0000
0000
0000
ENDCHAR
STARTCHAR a9c9
ENCODING 43465
SWIDTH 256 0
DWIDTH 16 0
BBX 16 16 0 -2
BITMAP
0000
0000
0000
0000
0000
0000
0000
0000
0000
0000
0000
0000
0000
0000
0000
0000
ENDCHAR
STARTCHAR a9ca
ENCODING 43466
SWIDTH 256 0
DWIDTH 16 0
BBX 16 16 0 -2
BITMAP
0000
0000
0000
0000
0000
0000
0000
0000
0000
0000
0000
0000
0000
0000
0000
0000
ENDCHAR
STARTCHAR a9cb
ENCODING 43467
SWIDTH 256 0
DWIDTH 16 0
BBX 16 16 0 -2
BITMAP
0000
0000
0000
0000
0000
0000
0000
0000
0000
0000
0000
0000
0000
0000
0000
0000
ENDCHAR
STARTCHAR a9cc
ENCODING 43468
SWIDTH 256 0
DWIDTH 16 0
BBX 16 16 0 -2
BITMAP
0000
0000
0000
0000
0000
0000
0000
0000
0000
0000
0000
0000
0000
0000
0000
0000
ENDCHAR
STARTCHAR a9cd
ENCODING 43469
SWIDTH 256 0
DWIDTH 16 0
BBX 16 16 0 -2
BITMAP
0000
0000
0000
0000
0000
0000
0000
0000
0000
0000
0000
0000
0000
0000
0000
0000
ENDCHAR
STARTCHAR a9ce
ENCODING 43470
SWIDTH 256 0
DWIDTH 16 0
BBX 16 16 0 -2
BITMAP
0000
0000
0000
0000
0000
0000
0000
0000
0000
0000
0000
0000
0000
0000
0000
0000
ENDCHAR
STARTCHAR a9cf
ENCODING 43471
SWIDTH 256 0
DWIDTH 16 0
BBX 16 16 0 -2
BITMAP
0000
0000
0000
0000
0000
0000
0000
0000
0000
0000
0000
0000
0000
0000
0000
0000
ENDCHAR
STARTCHAR a9d0
ENCODING 43472
SWIDTH 256 0
DWIDTH 16 0
BBX 16 16 0 -2
BITMAP
0000
0000
0000
0000
0000
0000
0000
0000
0000
0000
0000
0000
0000
0000
0000
0000
ENDCHAR
STARTCHAR a9d1
ENCODING 43473
SWIDTH 256 0
DWIDTH 16 0
BBX 16 16 0 -2
BITMAP
0000
0000
0000
0000
0000
0000
0000
0000
0000
0000
0000
0000
0000
0000
0000
0000
ENDCHAR
STARTCHAR a9d2
ENCODING 43474
SWIDTH 256 0
DWIDTH 16 0
BBX 16 16 0 -2
BITMAP
0000
0000
0000
0000
0000
0000
0000
0000
0000
0000
0000
0000
0000
0000
0000
0000
ENDCHAR
STARTCHAR a9d3
ENCODING 43475
SWIDTH 256 0
DWIDTH 16 0
BBX 16 16 0 -2
BITMAP
0000
0000
0000
0000
0000
0000
0000
0000
0000
0000
0000
0000
0000
0000
0000
0000
ENDCHAR
STARTCHAR a9d4
ENCODING 43476
SWIDTH 256 0
DWIDTH 16 0
BBX 16 16 0 -2
BITMAP
0000
0000
0000
0000
0000
0000
0000
0000
0000
0000
0000
0000
0000
0000
0000
0000
ENDCHAR
STARTCHAR a9d5
ENCODING 43477
SWIDTH 256 0
DWIDTH 16 0
BBX 16 16 0 -2
BITMAP
0000
0000
0000
0000
0000
0000
0000
0000
0000
0000
0000
0000
0000
0000
0000
0000
ENDCHAR
STARTCHAR a9d6
ENCODING 43478
SWIDTH 256 0
DWIDTH 16 0
BBX 16 16 0 -2
BITMAP
0000
0000
0000
0000
0000
0000
0000
0000
0000
0000
0000
0000
0000
0000
0000
0000
ENDCHAR
STARTCHAR a9d7
ENCODING 43479
SWIDTH 256 0
DWIDTH 16 0
BBX 16 16 0 -2
BITMAP
0000
0000
0000
0000
0000
0000
0000
0000
0000
0000
0000
0000
0000
0000
0000
0000
ENDCHAR
STARTCHAR a9d8
ENCODING 43480
SWIDTH 256 0
DWIDTH 16 0
BBX 16 16 0 -2
BITMAP
0000
0000
0000
0000
0000
0000
0000
0000
0000
0000
0000
0000
0000
0000
0000
0000
ENDCHAR
STARTCHAR a9d9
ENCODING 43481
SWIDTH 256 0
DWIDTH 16 0
BBX 16 16 0 -2
BITMAP
0000
0000
0000
0000
0000
0000
0000
0000
0000
0000
0000
0000
0000
0000
0000
0000
ENDCHAR
STARTCHAR a9da
ENCODING 43482
SWIDTH 256 0
DWIDTH 16 0
BBX 16 16 0 -2
BITMAP
0000
0000
0000
0000
0000
0000
0000
0000
0000
0000
0000
0000
0000
0000
0000
0000
ENDCHAR
STARTCHAR a9db
ENCODING 43483
SWIDTH 256 0
DWIDTH 16 0
BBX 16 16 0 -2
BITMAP
0000
0000
0000
0000
0000
0000
0000
0000
0000
0000
0000
0000
0000
0000
0000
0000
ENDCHAR
STARTCHAR a9dc
ENCODING 43484
SWIDTH 256 0
DWIDTH 16 0
BBX 16 16 0 -2
BITMAP
0000
0000
0000
0000
0000
0000
0000
0000
0000
0000
0000
0000
0000
0000
0000
0000
ENDCHAR
STARTCHAR a9dd
ENCODING 43485
SWIDTH 256 0
DWIDTH 16 0
BBX 16 16 0 -2
BITMAP
0000
0000
0000
0000
0000
0000
0000
0000
0000
0000
0000
0000
0000
0000
0000
0000
ENDCHAR
STARTCHAR a9de
ENCODING 43486
SWIDTH 256 0
DWIDTH 16 0
BBX 16 16 0 -2
BITMAP
0000
0000
0000
0000
0000
0000
0000
0000
0000
0000
0000
0000
0000
0000
0000
0000
ENDCHAR
STARTCHAR a9df
ENCODING 43487
SWIDTH 256 0
DWIDTH 16 0
BBX 16 16 0 -2
BITMAP
0000
0000
0000
0000
0000
0000
0000
0000
0000
0000
0000
0000
0000
0000
0000
0000
ENDCHAR
STARTCHAR a9e0
ENCODING 43488
SWIDTH 256 0
DWIDTH 16 0
BBX 16 16 0 -2
BITMAP
0000
0000
0000
0000
0000
0000
0000
0000
0000
0000
0000
0000
0000
0000
0000
0000
ENDCHAR
STARTCHAR a9e1
ENCODING 43489
SWIDTH 256 0
DWIDTH 16 0
BBX 16 16 0 -2
BITMAP
0000
0000
0000
0000
0000
0000
0000
0000
0000
0000
0000
0000
0000
0000
0000
0000
ENDCHAR
STARTCHAR a9e2
ENCODING 43490
SWIDTH 256 0
DWIDTH 16 0
BBX 16 16 0 -2
BITMAP
0000
0000
0000
0000
0000
0000
0000
0000
0000
0000
0000
0000
0000
0000
0000
0000
ENDCHAR
STARTCHAR a9e3
ENCODING 43491
SWIDTH 256 0
DWIDTH 16 0
BBX 16 16 0 -2
BITMAP
0000
0000
0000
0000
0000
0000
0000
0000
0000
0000
0000
0000
0000
0000
0000
0000
ENDCHAR
STARTCHAR a9e4
ENCODING 43492
SWIDTH 256 0
DWIDTH 16 0
BBX 16 16 0 -2
BITMAP
0000
0000
0000
0000
0000
0000
0000
0000
0000
0000
0000
0000
0000
0000
0000
0000
ENDCHAR
STARTCHAR a9e5
ENCODING 43493
SWIDTH 256 0
DWIDTH 16 0
BBX 16 16 0 -2
BITMAP
0000
0000
0000
0000
0000
0000
0000
0000
0000
0000
0000
0000
0000
0000
0000
0000
ENDCHAR
STARTCHAR a9e6
ENCODING 43494
SWIDTH 256 0
DWIDTH 16 0
BBX 16 16 0 -2
BITMAP
0000
0000
0000
0000
0000
0000
0000
0000
0000
0000
0000
0000
0000
0000
0000
0000
ENDCHAR
STARTCHAR a9e7
ENCODING 43495
SWIDTH 256 0
DWIDTH 16 0
BBX 16 16 0 -2
BITMAP
0000
0000
0000
0000
0000
0000
0000
0000
0000
0000
0000
0000
0000
0000
0000
0000
ENDCHAR
STARTCHAR a9e8
ENCODING 43496
SWIDTH 256 0
DWIDTH 16 0
BBX 16 16 0 -2
BITMAP
0000
0000
0000
0000
0000
0000
0000
0000
0000
0000
0000
0000
0000
0000
0000
0000
ENDCHAR
STARTCHAR a9e9
ENCODING 43497
SWIDTH 256 0
DWIDTH 16 0
BBX 16 16 0 -2
BITMAP
0000
0000
0000
0000
0000
0000
0000
0000
0000
0000
0000
0000
0000
0000
0000
0000
ENDCHAR
STARTCHAR a9ea
ENCODING 43498
SWIDTH 256 0
DWIDTH 16 0
BBX 16 16 0 -2
BITMAP
0000
0000
0000
0000
0000
0000
0000
0000
0000
0000
0000
0000
0000
0000
0000
0000
ENDCHAR
STARTCHAR a9eb
ENCODING 43499
SWIDTH 256 0
DWIDTH 16 0
BBX 16 16 0 -2
BITMAP
0000
0000
0000
0000
0000
0000
0000
0000
0000
0000
0000
0000
0000
0000
0000
0000
ENDCHAR
STARTCHAR a9ec
ENCODING 43500
SWIDTH 256 0
DWIDTH 16 0
BBX 16 16 0 -2
BITMAP
0000
0000
0000
0000
0000
0000
0000
0000
0000
0000
0000
0000
0000
0000
0000
0000
ENDCHAR
STARTCHAR a9ed
ENCODING 43501
SWIDTH 256 0
DWIDTH 16 0
BBX 16 16 0 -2
BITMAP
0000
0000
0000
0000
0000
0000
0000
0000
0000
0000
0000
0000
0000
0000
0000
0000
ENDCHAR
STARTCHAR a9ee
ENCODING 43502
SWIDTH 256 0
DWIDTH 16 0
BBX 16 16 0 -2
BITMAP
0000
0000
0000
0000
0000
0000
0000
0000
0000
0000
0000
0000
0000
0000
0000
0000
ENDCHAR
STARTCHAR a9ef
ENCODING 43503
SWIDTH 256 0
DWIDTH 16 0
BBX 16 16 0 -2
BITMAP
0000
0000
0000
0000
0000
0000
0000
0000
0000
0000
0000
0000
0000
0000
0000
0000
ENDCHAR
STARTCHAR a9f0
ENCODING 43504
SWIDTH 256 0
DWIDTH 16 0
BBX 16 16 0 -2
BITMAP
0000
0000
0000
0000
0000
0000
0000
0000
0000
0000
0000
0000
0000
0000
0000
0000
ENDCHAR
STARTCHAR a9f1
ENCODING 43505
SWIDTH 256 0
DWIDTH 16 0
BBX 16 16 0 -2
BITMAP
0000
0000
0000
0000
0000
0000
0000
0000
0000
0000
0000
0000
0000
0000
0000
0000
ENDCHAR
STARTCHAR a9f2
ENCODING 43506
SWIDTH 256 0
DWIDTH 16 0
BBX 16 16 0 -2
BITMAP
0000
0000
0000
0000
0000
0000
0000
0000
0000
0000
0000
0000
0000
0000
0000
0000
ENDCHAR
STARTCHAR a9f3
ENCODING 43507
SWIDTH 256 0
DWIDTH 16 0
BBX 16 16 0 -2
BITMAP
0000
0000
0000
0000
0000
0000
0000
0000
0000
0000
0000
0000
0000
0000
0000
0000
ENDCHAR
STARTCHAR a9f4
ENCODING 43508
SWIDTH 256 0
DWIDTH 16 0
BBX 16 16 0 -2
BITMAP
0000
0000
0000
0000
0000
0000
0000
0000
0000
0000
0000
0000
0000
0000
0000
0000
ENDCHAR
STARTCHAR a9f5
ENCODING 43509
SWIDTH 256 0
DWIDTH 16 0
BBX 16 16 0 -2
BITMAP
0000
0000
0000
0000
0000
0000
0000
0000
0000
0000
0000
0000
0000
0000
0000
0000
ENDCHAR
STARTCHAR a9f6
ENCODING 43510
SWIDTH 256 0
DWIDTH 16 0
BBX 16 16 0 -2
BITMAP
0000
0000
0000
0000
0000
0000
0000
0000
0000
0000
0000
0000
0000
0000
0000
0000
ENDCHAR
STARTCHAR a9f7
ENCODING 43511
SWIDTH 256 0
DWIDTH 16 0
BBX 16 16 0 -2
BITMAP
0000
0000
0000
0000
0000
0000
0000
0000
0000
0000
0000
0000
0000
0000
0000
0000
ENDCHAR
STARTCHAR a9f8
ENCODING 43512
SWIDTH 256 0
DWIDTH 16 0
BBX 16 16 0 -2
BITMAP
0000
0000
0000
0000
0000
0000
0000
0000
0000
0000
0000
0000
0000
0000
0000
0000
ENDCHAR
STARTCHAR a9f9
ENCODING 43513
SWIDTH 256 0
DWIDTH 16 0
BBX 16 16 0 -2
BITMAP
0000
0000
0000
0000
0000
0000
0000
0000
0000
0000
0000
0000
0000
0000
0000
0000
ENDCHAR
STARTCHAR a9fa
ENCODING 43514
SWIDTH 256 0
DWIDTH 16 0
BBX 16 16 0 -2
BITMAP
0000
0000
0000
0000
0000
0000
0000
0000
0000
0000
0000
0000
0000
0000
0000
0000
ENDCHAR
STARTCHAR a9fb
ENCODING 43515
SWIDTH 256 0
DWIDTH 16 0
BBX 16 16 0 -2
BITMAP
0000
0000
0000
0000
0000
0000
0000
0000
0000
0000
0000
0000
0000
0000
0000
0000
ENDCHAR
STARTCHAR a9fc
ENCODING 43516
SWIDTH 256 0
DWIDTH 16 0
BBX 16 16 0 -2
BITMAP
0000
0000
0000
0000
0000
0000
0000
0000
0000
0000
0000
0000
0000
0000
0000
0000
ENDCHAR
STARTCHAR a9fd
ENCODING 43517
SWIDTH 256 0
DWIDTH 16 0
BBX 16 16 0 -2
BITMAP
0000
0000
0000
0000
0000
0000
0000
0000
0000
0000
0000
0000
0000
0000
0000
0000
ENDCHAR
STARTCHAR a9fe
ENCODING 43518
SWIDTH 256 0
DWIDTH 16 0
BBX 16 16 0 -2
BITMAP
0000
0000
0000
0000
0000
0000
0000
0000
0000
0000
0000
0000
0000
0000
0000
0000
ENDCHAR
STARTCHAR aaa1
ENCODING 43681
SWIDTH 256 0
DWIDTH 16 0
BBX 16 16 0 -2
BITMAP
0000
0000
0000
0000
0000
0000
0000
0000
0000
0000
0000
0000
0000
0000
0000
0000
ENDCHAR
STARTCHAR aaa2
ENCODING 43682
SWIDTH 256 0
DWIDTH 16 0
BBX 16 16 0 -2
BITMAP
0000
0000
0000
0000
0000
0000
0000
0000
0000
0000
0000
0000
0000
0000
0000
0000
ENDCHAR
STARTCHAR aaa3
ENCODING 43683
SWIDTH 256 0
DWIDTH 16 0
BBX 16 16 0 -2
BITMAP
0000
0000
0000
0000
0000
0000
0000
0000
0000
0000
0000
0000
0000
0000
0000
0000
ENDCHAR
STARTCHAR aaa4
ENCODING 43684
SWIDTH 256 0
DWIDTH 16 0
BBX 16 16 0 -2
BITMAP
0000
0000
0000
0000
0000
0000
0000
0000
0000
0000
0000
0000
0000
0000
0000
0000
ENDCHAR
STARTCHAR aaa5
ENCODING 43685
SWIDTH 256 0
DWIDTH 16 0
BBX 16 16 0 -2
BITMAP
0000
0000
0000
0000
0000
0000
0000
0000
0000
0000
0000
0000
0000
0000
0000
0000
ENDCHAR
STARTCHAR aaa6
ENCODING 43686
SWIDTH 256 0
DWIDTH 16 0
BBX 16 16 0 -2
BITMAP
0000
0000
0000
0000
0000
0000
0000
0000
0000
0000
0000
0000
0000
0000
0000
0000
ENDCHAR
STARTCHAR aaa7
ENCODING 43687
SWIDTH 256 0
DWIDTH 16 0
BBX 16 16 0 -2
BITMAP
0000
0000
0000
0000
0000
0000
0000
0000
0000
0000
0000
0000
0000
0000
0000
0000
ENDCHAR
STARTCHAR aaa8
ENCODING 43688
SWIDTH 256 0
DWIDTH 16 0
BBX 16 16 0 -2
BITMAP
0000
0000
0000
0000
0000
0000
0000
0000
0000
0000
0000
0000
0000
0000
0000
0000
ENDCHAR
STARTCHAR aaa9
ENCODING 43689
SWIDTH 256 0
DWIDTH 16 0
BBX 16 16 0 -2
BITMAP
0000
0000
0000
0000
0000
0000
0000
0000
0000
0000
0000
0000
0000
0000
0000
0000
ENDCHAR
STARTCHAR aaaa
ENCODING 43690
SWIDTH 256 0
DWIDTH 16 0
BBX 16 16 0 -2
BITMAP
0000
0000
0000
0000
0000
0000
0000
0000
0000
0000
0000
0000
0000
0000
0000
0000
ENDCHAR
STARTCHAR aaab
ENCODING 43691
SWIDTH 256 0
DWIDTH 16 0
BBX 16 16 0 -2
BITMAP
0000
0000
0000
0000
0000
0000
0000
0000
0000
0000
0000
0000
0000
0000
0000
0000
ENDCHAR
STARTCHAR aaac
ENCODING 43692
SWIDTH 256 0
DWIDTH 16 0
BBX 16 16 0 -2
BITMAP
0000
0000
0000
0000
0000
0000
0000
0000
0000
0000
0000
0000
0000
0000
0000
0000
ENDCHAR
STARTCHAR aaad
ENCODING 43693
SWIDTH 256 0
DWIDTH 16 0
BBX 16 16 0 -2
BITMAP
0000
0000
0000
0000
0000
0000
0000
0000
0000
0000
0000
0000
0000
0000
0000
0000
ENDCHAR
STARTCHAR aaae
ENCODING 43694
SWIDTH 256 0
DWIDTH 16 0
BBX 16 16 0 -2
BITMAP
0000
0000
0000
0000
0000
0000
0000
0000
0000
0000
0000
0000
0000
0000
0000
0000
ENDCHAR
STARTCHAR aaaf
ENCODING 43695
SWIDTH 256 0
DWIDTH 16 0
BBX 16 16 0 -2
BITMAP
0000
0000
0000
0000
0000
0000
0000
0000
0000
0000
0000
0000
0000
0000
0000
0000
ENDCHAR
STARTCHAR aab0
ENCODING 43696
SWIDTH 256 0
DWIDTH 16 0
BBX 16 16 0 -2
BITMAP
0000
0000
0000
0000
0000
0000
0000
0000
0000
0000
0000
0000
0000
0000
0000
0000
ENDCHAR
STARTCHAR aab1
ENCODING 43697
SWIDTH 256 0
DWIDTH 16 0
BBX 16 16 0 -2
BITMAP
0000
0000
0000
0000
0000
0000
0000
0000
0000
0000
0000
0000
0000
0000
0000
0000
ENDCHAR
STARTCHAR aab2
ENCODING 43698
SWIDTH 256 0
DWIDTH 16 0
BBX 16 16 0 -2
BITMAP
0000
0000
0000
0000
0000
0000
0000
0000
0000
0000
0000
0000
0000
0000
0000
0000
ENDCHAR
STARTCHAR aab3
ENCODING 43699
SWIDTH 256 0
DWIDTH 16 0
BBX 16 16 0 -2
BITMAP
0000
0000
0000
0000
0000
0000
0000
0000
0000
0000
0000
0000
0000
0000
0000
0000
ENDCHAR
STARTCHAR aab4
ENCODING 43700
SWIDTH 256 0
DWIDTH 16 0
BBX 16 16 0 -2
BITMAP
0000
0000
0000
0000
0000
0000
0000
0000
0000
0000
0000
0000
0000
0000
0000
0000
ENDCHAR
STARTCHAR aab5
ENCODING 43701
SWIDTH 256 0
DWIDTH 16 0
BBX 16 16 0 -2
BITMAP
0000
0000
0000
0000
0000
0000
0000
0000
0000
0000
0000
0000
0000
0000
0000
0000
ENDCHAR
STARTCHAR aab6
ENCODING 43702
SWIDTH 256 0
DWIDTH 16 0
BBX 16 16 0 -2
BITMAP
0000
0000
0000
0000
0000
0000
0000
0000
0000
0000
0000
0000
0000
0000
0000
0000
ENDCHAR
STARTCHAR aab7
ENCODING 43703
SWIDTH 256 0
DWIDTH 16 0
BBX 16 16 0 -2
BITMAP
0000
0000
0000
0000
0000
0000
0000
0000
0000
0000
0000
0000
0000
0000
0000
0000
ENDCHAR
STARTCHAR aab8
ENCODING 43704
SWIDTH 256 0
DWIDTH 16 0
BBX 16 16 0 -2
BITMAP
0000
0000
0000
0000
0000
0000
0000
0000
0000
0000
0000
0000
0000
0000
0000
0000
ENDCHAR
STARTCHAR aab9
ENCODING 43705
SWIDTH 256 0
DWIDTH 16 0
BBX 16 16 0 -2
BITMAP
0000
0000
0000
0000
0000
0000
0000
0000
0000
0000
0000
0000
0000
0000
0000
0000
ENDCHAR
STARTCHAR aaba
ENCODING 43706
SWIDTH 256 0
DWIDTH 16 0
BBX 16 16 0 -2
BITMAP
0000
0000
0000
0000
0000
0000
0000
0000
0000
0000
0000
0000
0000
0000
0000
0000
ENDCHAR
STARTCHAR aabb
ENCODING 43707
SWIDTH 256 0
DWIDTH 16 0
BBX 16 16 0 -2
BITMAP
0000
0000
0000
0000
0000
0000
0000
0000
0000
0000
0000
0000
0000
0000
0000
0000
ENDCHAR
STARTCHAR aabc
ENCODING 43708
SWIDTH 256 0
DWIDTH 16 0
BBX 16 16 0 -2
BITMAP
0000
0000
0000
0000
0000
0000
0000
0000
0000
0000
0000
0000
0000
0000
0000
0000
ENDCHAR
STARTCHAR aabd
ENCODING 43709
SWIDTH 256 0
DWIDTH 16 0
BBX 16 16 0 -2
BITMAP
0000
0000
0000
0000
0000
0000
0000
0000
0000
0000
0000
0000
0000
0000
0000
0000
ENDCHAR
STARTCHAR aabe
ENCODING 43710
SWIDTH 256 0
DWIDTH 16 0
BBX 16 16 0 -2
BITMAP
0000
0000
0000
0000
0000
0000
0000
0000
0000
0000
0000
0000
0000
0000
0000
0000
ENDCHAR
STARTCHAR aabf
ENCODING 43711
SWIDTH 256 0
DWIDTH 16 0
BBX 16 16 0 -2
BITMAP
0000
0000
0000
0000
0000
0000
0000
0000
0000
0000
0000
0000
0000
0000
0000
0000
ENDCHAR
STARTCHAR aac0
ENCODING 43712
SWIDTH 256 0
DWIDTH 16 0
BBX 16 16 0 -2
BITMAP
0000
0000
0000
0000
0000
0000
0000
0000
0000
0000
0000
0000
0000
0000
0000
0000
ENDCHAR
STARTCHAR aac1
ENCODING 43713
SWIDTH 256 0
DWIDTH 16 0
BBX 16 16 0 -2
BITMAP
0000
0000
0000
0000
0000
0000
0000
0000
0000
0000
0000
0000
0000
0000
0000
0000
ENDCHAR
STARTCHAR aac2
ENCODING 43714
SWIDTH 256 0
DWIDTH 16 0
BBX 16 16 0 -2
BITMAP
0000
0000
0000
0000
0000
0000
0000
0000
0000
0000
0000
0000
0000
0000
0000
0000
ENDCHAR
STARTCHAR aac3
ENCODING 43715
SWIDTH 256 0
DWIDTH 16 0
BBX 16 16 0 -2
BITMAP
0000
0000
0000
0000
0000
0000
0000
0000
0000
0000
0000
0000
0000
0000
0000
0000
ENDCHAR
STARTCHAR aac4
ENCODING 43716
SWIDTH 256 0
DWIDTH 16 0
BBX 16 16 0 -2
BITMAP
0000
0000
0000
0000
0000
0000
0000
0000
0000
0000
0000
0000
0000
0000
0000
0000
ENDCHAR
STARTCHAR aac5
ENCODING 43717
SWIDTH 256 0
DWIDTH 16 0
BBX 16 16 0 -2
BITMAP
0000
0000
0000
0000
0000
0000
0000
0000
0000
0000
0000
0000
0000
0000
0000
0000
ENDCHAR
STARTCHAR aac6
ENCODING 43718
SWIDTH 256 0
DWIDTH 16 0
BBX 16 16 0 -2
BITMAP
0000
0000
0000
0000
0000
0000
0000
0000
0000
0000
0000
0000
0000
0000
0000
0000
ENDCHAR
STARTCHAR aac7
ENCODING 43719
SWIDTH 256 0
DWIDTH 16 0
BBX 16 16 0 -2
BITMAP
0000
0000
0000
0000
0000
0000
0000
0000
0000
0000
0000
0000
0000
0000
0000
0000
ENDCHAR
STARTCHAR aac8
ENCODING 43720
SWIDTH 256 0
DWIDTH 16 0
BBX 16 16 0 -2
BITMAP
0000
0000
0000
0000
0000
0000
0000
0000
0000
0000
0000
0000
0000
0000
0000
0000
ENDCHAR
STARTCHAR aac9
ENCODING 43721
SWIDTH 256 0
DWIDTH 16 0
BBX 16 16 0 -2
BITMAP
0000
0000
0000
0000
0000
0000
0000
0000
0000
0000
0000
0000
0000
0000
0000
0000
ENDCHAR
STARTCHAR aaca
ENCODING 43722
SWIDTH 256 0
DWIDTH 16 0
BBX 16 16 0 -2
BITMAP
0000
0000
0000
0000
0000
0000
0000
0000
0000
0000
0000
0000
0000
0000
0000
0000
ENDCHAR
STARTCHAR aacb
ENCODING 43723
SWIDTH 256 0
DWIDTH 16 0
BBX 16 16 0 -2
BITMAP
0000
0000
0000
0000
0000
0000
0000
0000
0000
0000
0000
0000
0000
0000
0000
0000
ENDCHAR
STARTCHAR aacc
ENCODING 43724
SWIDTH 256 0
DWIDTH 16 0
BBX 16 16 0 -2
BITMAP
0000
0000
0000
0000
0000
0000
0000
0000
0000
0000
0000
0000
0000
0000
0000
0000
ENDCHAR
STARTCHAR aacd
ENCODING 43725
SWIDTH 256 0
DWIDTH 16 0
BBX 16 16 0 -2
BITMAP
0000
0000
0000
0000
0000
0000
0000
0000
0000
0000
0000
0000
0000
0000
0000
0000
ENDCHAR
STARTCHAR aace
ENCODING 43726
SWIDTH 256 0
DWIDTH 16 0
BBX 16 16 0 -2
BITMAP
0000
0000
0000
0000
0000
0000
0000
0000
0000
0000
0000
0000
0000
0000
0000
0000
ENDCHAR
STARTCHAR aacf
ENCODING 43727
SWIDTH 256 0
DWIDTH 16 0
BBX 16 16 0 -2
BITMAP
0000
0000
0000
0000
0000
0000
0000
0000
0000
0000
0000
0000
0000
0000
0000
0000
ENDCHAR
STARTCHAR aad0
ENCODING 43728
SWIDTH 256 0
DWIDTH 16 0
BBX 16 16 0 -2
BITMAP
0000
0000
0000
0000
0000
0000
0000
0000
0000
0000
0000
0000
0000
0000
0000
0000
ENDCHAR
STARTCHAR aad1
ENCODING 43729
SWIDTH 256 0
DWIDTH 16 0
BBX 16 16 0 -2
BITMAP
0000
0000
0000
0000
0000
0000
0000
0000
0000
0000
0000
0000
0000
0000
0000
0000
ENDCHAR
STARTCHAR aad2
ENCODING 43730
SWIDTH 256 0
DWIDTH 16 0
BBX 16 16 0 -2
BITMAP
0000
0000
0000
0000
0000
0000
0000
0000
0000
0000
0000
0000
0000
0000
0000
0000
ENDCHAR
STARTCHAR aad3
ENCODING 43731
SWIDTH 256 0
DWIDTH 16 0
BBX 16 16 0 -2
BITMAP
0000
0000
0000
0000
0000
0000
0000
0000
0000
0000
0000
0000
0000
0000
0000
0000
ENDCHAR
STARTCHAR aad4
ENCODING 43732
SWIDTH 256 0
DWIDTH 16 0
BBX 16 16 0 -2
BITMAP
0000
0000
0000
0000
0000
0000
0000
0000
0000
0000
0000
0000
0000
0000
0000
0000
ENDCHAR
STARTCHAR aad5
ENCODING 43733
SWIDTH 256 0
DWIDTH 16 0
BBX 16 16 0 -2
BITMAP
0000
0000
0000
0000
0000
0000
0000
0000
0000
0000
0000
0000
0000
0000
0000
0000
ENDCHAR
STARTCHAR aad6
ENCODING 43734
SWIDTH 256 0
DWIDTH 16 0
BBX 16 16 0 -2
BITMAP
0000
0000
0000
0000
0000
0000
0000
0000
0000
0000
0000
0000
0000
0000
0000
0000
ENDCHAR
STARTCHAR aad7
ENCODING 43735
SWIDTH 256 0
DWIDTH 16 0
BBX 16 16 0 -2
BITMAP
0000
0000
0000
0000
0000
0000
0000
0000
0000
0000
0000
0000
0000
0000
0000
0000
ENDCHAR
STARTCHAR aad8
ENCODING 43736
SWIDTH 256 0
DWIDTH 16 0
BBX 16 16 0 -2
BITMAP
0000
0000
0000
0000
0000
0000
0000
0000
0000
0000
0000
0000
0000
0000
0000
0000
ENDCHAR
STARTCHAR aad9
ENCODING 43737
SWIDTH 256 0
DWIDTH 16 0
BBX 16 16 0 -2
BITMAP
0000
0000
0000
0000
0000
0000
0000
0000
0000
0000
0000
0000
0000
0000
0000
0000
ENDCHAR
STARTCHAR aada
ENCODING 43738
SWIDTH 256 0
DWIDTH 16 0
BBX 16 16 0 -2
BITMAP
0000
0000
0000
0000
0000
0000
0000
0000
0000
0000
0000
0000
0000
0000
0000
0000
ENDCHAR
STARTCHAR aadb
ENCODING 43739
SWIDTH 256 0
DWIDTH 16 0
BBX 16 16 0 -2
BITMAP
0000
0000
0000
0000
0000
0000
0000
0000
0000
0000
0000
0000
0000
0000
0000
0000
ENDCHAR
STARTCHAR aadc
ENCODING 43740
SWIDTH 256 0
DWIDTH 16 0
BBX 16 16 0 -2
BITMAP
0000
0000
0000
0000
0000
0000
0000
0000
0000
0000
0000
0000
0000
0000
0000
0000
ENDCHAR
STARTCHAR aadd
ENCODING 43741
SWIDTH 256 0
DWIDTH 16 0
BBX 16 16 0 -2
BITMAP
0000
0000
0000
0000
0000
0000
0000
0000
0000
0000
0000
0000
0000
0000
0000
0000
ENDCHAR
STARTCHAR aade
ENCODING 43742
SWIDTH 256 0
DWIDTH 16 0
BBX 16 16 0 -2
BITMAP
0000
0000
0000
0000
0000
0000
0000
0000
0000
0000
0000
0000
0000
0000
0000
0000
ENDCHAR
STARTCHAR aadf
ENCODING 43743
SWIDTH 256 0
DWIDTH 16 0
BBX 16 16 0 -2
BITMAP
0000
0000
0000
0000
0000
0000
0000
0000
0000
0000
0000
0000
0000
0000
0000
0000
ENDCHAR
STARTCHAR aae0
ENCODING 43744
SWIDTH 256 0
DWIDTH 16 0
BBX 16 16 0 -2
BITMAP
0000
0000
0000
0000
0000
0000
0000
0000
0000
0000
0000
0000
0000
0000
0000
0000
ENDCHAR
STARTCHAR aae1
ENCODING 43745
SWIDTH 256 0
DWIDTH 16 0
BBX 16 16 0 -2
BITMAP
0000
0000
0000
0000
0000
0000
0000
0000
0000
0000
0000
0000
0000
0000
0000
0000
ENDCHAR
STARTCHAR aae2
ENCODING 43746
SWIDTH 256 0
DWIDTH 16 0
BBX 16 16 0 -2
BITMAP
0000
0000
0000
0000
0000
0000
0000
0000
0000
0000
0000
0000
0000
0000
0000
0000
ENDCHAR
STARTCHAR aae3
ENCODING 43747
SWIDTH 256 0
DWIDTH 16 0
BBX 16 16 0 -2
BITMAP
0000
0000
0000
0000
0000
0000
0000
0000
0000
0000
0000
0000
0000
0000
0000
0000
ENDCHAR
STARTCHAR aae4
ENCODING 43748
SWIDTH 256 0
DWIDTH 16 0
BBX 16 16 0 -2
BITMAP
0000
0000
0000
0000
0000
0000
0000
0000
0000
0000
0000
0000
0000
0000
0000
0000
ENDCHAR
STARTCHAR aae5
ENCODING 43749
SWIDTH 256 0
DWIDTH 16 0
BBX 16 16 0 -2
BITMAP
0000
0000
0000
0000
0000
0000
0000
0000
0000
0000
0000
0000
0000
0000
0000
0000
ENDCHAR
STARTCHAR aae6
ENCODING 43750
SWIDTH 256 0
DWIDTH 16 0
BBX 16 16 0 -2
BITMAP
0000
0000
0000
0000
0000
0000
0000
0000
0000
0000
0000
0000
0000
0000
0000
0000
ENDCHAR
STARTCHAR aae7
ENCODING 43751
SWIDTH 256 0
DWIDTH 16 0
BBX 16 16 0 -2
BITMAP
0000
0000
0000
0000
0000
0000
0000
0000
0000
0000
0000
0000
0000
0000
0000
0000
ENDCHAR
STARTCHAR aae8
ENCODING 43752
SWIDTH 256 0
DWIDTH 16 0
BBX 16 16 0 -2
BITMAP
0000
0000
0000
0000
0000
0000
0000
0000
0000
0000
0000
0000
0000
0000
0000
0000
ENDCHAR
STARTCHAR aae9
ENCODING 43753
SWIDTH 256 0
DWIDTH 16 0
BBX 16 16 0 -2
BITMAP
0000
0000
0000
0000
0000
0000
0000
0000
0000
0000
0000
0000
0000
0000
0000
0000
ENDCHAR
STARTCHAR aaea
ENCODING 43754
SWIDTH 256 0
DWIDTH 16 0
BBX 16 16 0 -2
BITMAP
0000
0000
0000
0000
0000
0000
0000
0000
0000
0000
0000
0000
0000
0000
0000
0000
ENDCHAR
STARTCHAR aaeb
ENCODING 43755
SWIDTH 256 0
DWIDTH 16 0
BBX 16 16 0 -2
BITMAP
0000
0000
0000
0000
0000
0000
0000
0000
0000
0000
0000
0000
0000
0000
0000
0000
ENDCHAR
STARTCHAR aaec
ENCODING 43756
SWIDTH 256 0
DWIDTH 16 0
BBX 16 16 0 -2
BITMAP
0000
0000
0000
0000
0000
0000
0000
0000
0000
0000
0000
0000
0000
0000
0000
0000
ENDCHAR
STARTCHAR aaed
ENCODING 43757
SWIDTH 256 0
DWIDTH 16 0
BBX 16 16 0 -2
BITMAP
0000
0000
0000
0000
0000
0000
0000
0000
0000
0000
0000
0000
0000
0000
0000
0000
ENDCHAR
STARTCHAR aaee
ENCODING 43758
SWIDTH 256 0
DWIDTH 16 0
BBX 16 16 0 -2
BITMAP
0000
0000
0000
0000
0000
0000
0000
0000
0000
0000
0000
0000
0000
0000
0000
0000
ENDCHAR
STARTCHAR aaef
ENCODING 43759
SWIDTH 256 0
DWIDTH 16 0
BBX 16 16 0 -2
BITMAP
0000
0000
0000
0000
0000
0000
0000
0000
0000
0000
0000
0000
0000
0000
0000
0000
ENDCHAR
STARTCHAR aaf0
ENCODING 43760
SWIDTH 256 0
DWIDTH 16 0
BBX 16 16 0 -2
BITMAP
0000
0000
0000
0000
0000
0000
0000
0000
0000
0000
0000
0000
0000
0000
0000
0000
ENDCHAR
STARTCHAR aaf1
ENCODING 43761
SWIDTH 256 0
DWIDTH 16 0
BBX 16 16 0 -2
BITMAP
0000
0000
0000
0000
0000
0000
0000
0000
0000
0000
0000
0000
0000
0000
0000
0000
ENDCHAR
STARTCHAR aaf2
ENCODING 43762
SWIDTH 256 0
DWIDTH 16 0
BBX 16 16 0 -2
BITMAP
0000
0000
0000
0000
0000
0000
0000
0000
0000
0000
0000
0000
0000
0000
0000
0000
ENDCHAR
STARTCHAR aaf3
ENCODING 43763
SWIDTH 256 0
DWIDTH 16 0
BBX 16 16 0 -2
BITMAP
0000
0000
0000
0000
0000
0000
0000
0000
0000
0000
0000
0000
0000
0000
0000
0000
ENDCHAR
STARTCHAR aaf4
ENCODING 43764
SWIDTH 256 0
DWIDTH 16 0
BBX 16 16 0 -2
BITMAP
0000
0000
0000
0000
0000
0000
0000
0000
0000
0000
0000
0000
0000
0000
0000
0000
ENDCHAR
STARTCHAR aaf5
ENCODING 43765
SWIDTH 256 0
DWIDTH 16 0
BBX 16 16 0 -2
BITMAP
0000
0000
0000
0000
0000
0000
0000
0000
0000
0000
0000
0000
0000
0000
0000
0000
ENDCHAR
STARTCHAR aaf6
ENCODING 43766
SWIDTH 256 0
DWIDTH 16 0
BBX 16 16 0 -2
BITMAP
0000
0000
0000
0000
0000
0000
0000
0000
0000
0000
0000
0000
0000
0000
0000
0000
ENDCHAR
STARTCHAR aaf7
ENCODING 43767
SWIDTH 256 0
DWIDTH 16 0
BBX 16 16 0 -2
BITMAP
0000
0000
0000
0000
0000
0000
0000
0000
0000
0000
0000
0000
0000
0000
0000
0000
ENDCHAR
STARTCHAR aaf8
ENCODING 43768
SWIDTH 256 0
DWIDTH 16 0
BBX 16 16 0 -2
BITMAP
0000
0000
0000
0000
0000
0000
0000
0000
0000
0000
0000
0000
0000
0000
0000
0000
ENDCHAR
STARTCHAR aaf9
ENCODING 43769
SWIDTH 256 0
DWIDTH 16 0
BBX 16 16 0 -2
BITMAP
0000
0000
0000
0000
0000
0000
0000
0000
0000
0000
0000
0000
0000
0000
0000
0000
ENDCHAR
STARTCHAR aafa
ENCODING 43770
SWIDTH 256 0
DWIDTH 16 0
BBX 16 16 0 -2
BITMAP
0000
0000
0000
0000
0000
0000
0000
0000
0000
0000
0000
0000
0000
0000
0000
0000
ENDCHAR
STARTCHAR aafb
ENCODING 43771
SWIDTH 256 0
DWIDTH 16 0
BBX 16 16 0 -2
BITMAP
0000
0000
0000
0000
0000
0000
0000
0000
0000
0000
0000
0000
0000
0000
0000
0000
ENDCHAR
STARTCHAR aafc
ENCODING 43772
SWIDTH 256 0
DWIDTH 16 0
BBX 16 16 0 -2
BITMAP
0000
0000
0000
0000
0000
0000
0000
0000
0000
0000
0000
0000
0000
0000
0000
0000
ENDCHAR
STARTCHAR aafd
ENCODING 43773
SWIDTH 256 0
DWIDTH 16 0
BBX 16 16 0 -2
BITMAP
0000
0000
0000
0000
0000
0000
0000
0000
0000
0000
0000
0000
0000
0000
0000
0000
ENDCHAR
STARTCHAR aafe
ENCODING 43774
SWIDTH 256 0
DWIDTH 16 0
BBX 16 16 0 -2
BITMAP
0000
0000
0000
0000
0000
0000
0000
0000
0000
0000
0000
0000
0000
0000
0000
0000
ENDCHAR
STARTCHAR aba1
ENCODING 43937
SWIDTH 256 0
DWIDTH 16 0
BBX 16 16 0 -2
BITMAP
0000
0000
0000
0000
0000
0000
0000
0000
0000
0000
0000
0000
0000
0000
0000
0000
ENDCHAR
STARTCHAR aba2
ENCODING 43938
SWIDTH 256 0
DWIDTH 16 0
BBX 16 16 0 -2
BITMAP
0000
0000
0000
0000
0000
0000
0000
0000
0000
0000
0000
0000
0000
0000
0000
0000
ENDCHAR
STARTCHAR aba3
ENCODING 43939
SWIDTH 256 0
DWIDTH 16 0
BBX 16 16 0 -2
BITMAP
0000
0000
0000
0000
0000
0000
0000
0000
0000
0000
0000
0000
0000
0000
0000
0000
ENDCHAR
STARTCHAR aba4
ENCODING 43940
SWIDTH 256 0
DWIDTH 16 0
BBX 16 16 0 -2
BITMAP
0000
0000
0000
0000
0000
0000
0000
0000
0000
0000
0000
0000
0000
0000
0000
0000
ENDCHAR
STARTCHAR aba5
ENCODING 43941
SWIDTH 256 0
DWIDTH 16 0
BBX 16 16 0 -2
BITMAP
0000
0000
0000
0000
0000
0000
0000
0000
0000
0000
0000
0000
0000
0000
0000
0000
ENDCHAR
STARTCHAR aba6
ENCODING 43942
SWIDTH 256 0
DWIDTH 16 0
BBX 16 16 0 -2
BITMAP
0000
0000
0000
0000
0000
0000
0000
0000
0000
0000
0000
0000
0000
0000
0000
0000
ENDCHAR
STARTCHAR aba7
ENCODING 43943
SWIDTH 256 0
DWIDTH 16 0
BBX 16 16 0 -2
BITMAP
0000
0000
0000
0000
0000
0000
0000
0000
0000
0000
0000
0000
0000
0000
0000
0000
ENDCHAR
STARTCHAR aba8
ENCODING 43944
SWIDTH 256 0
DWIDTH 16 0
BBX 16 16 0 -2
BITMAP
0000
0000
0000
0000
0000
0000
0000
0000
0000
0000
0000
0000
0000
0000
0000
0000
ENDCHAR
STARTCHAR aba9
ENCODING 43945
SWIDTH 256 0
DWIDTH 16 0
BBX 16 16 0 -2
BITMAP
0000
0000
0000
0000
0000
0000
0000
0000
0000
0000
0000
0000
0000
0000
0000
0000
ENDCHAR
STARTCHAR abaa
ENCODING 43946
SWIDTH 256 0
DWIDTH 16 0
BBX 16 16 0 -2
BITMAP
0000
0000
0000
0000
0000
0000
0000
0000
0000
0000
0000
0000
0000
0000
0000
0000
ENDCHAR
STARTCHAR abab
ENCODING 43947
SWIDTH 256 0
DWIDTH 16 0
BBX 16 16 0 -2
BITMAP
0000
0000
0000
0000
0000
0000
0000
0000
0000
0000
0000
0000
0000
0000
0000
0000
ENDCHAR
STARTCHAR abac
ENCODING 43948
SWIDTH 256 0
DWIDTH 16 0
BBX 16 16 0 -2
BITMAP
0000
0000
0000
0000
0000
0000
0000
0000
0000
0000
0000
0000
0000
0000
0000
0000
ENDCHAR
STARTCHAR abad
ENCODING 43949
SWIDTH 256 0
DWIDTH 16 0
BBX 16 16 0 -2
BITMAP
0000
0000
0000
0000
0000
0000
0000
0000
0000
0000
0000
0000
0000
0000
0000
0000
ENDCHAR
STARTCHAR abae
ENCODING 43950
SWIDTH 256 0
DWIDTH 16 0
BBX 16 16 0 -2
BITMAP
0000
0000
0000
0000
0000
0000
0000
0000
0000
0000
0000
0000
0000
0000
0000
0000
ENDCHAR
STARTCHAR abaf
ENCODING 43951
SWIDTH 256 0
DWIDTH 16 0
BBX 16 16 0 -2
BITMAP
0000
0000
0000
0000
0000
0000
0000
0000
0000
0000
0000
0000
0000
0000
0000
0000
ENDCHAR
STARTCHAR abb0
ENCODING 43952
SWIDTH 256 0
DWIDTH 16 0
BBX 16 16 0 -2
BITMAP
0000
0000
0000
0000
0000
0000
0000
0000
0000
0000
0000
0000
0000
0000
0000
0000
ENDCHAR
STARTCHAR abb1
ENCODING 43953
SWIDTH 256 0
DWIDTH 16 0
BBX 16 16 0 -2
BITMAP
0000
0000
0000
0000
0000
0000
0000
0000
0000
0000
0000
0000
0000
0000
0000
0000
ENDCHAR
STARTCHAR abb2
ENCODING 43954
SWIDTH 256 0
DWIDTH 16 0
BBX 16 16 0 -2
BITMAP
0000
0000
0000
0000
0000
0000
0000
0000
0000
0000
0000
0000
0000
0000
0000
0000
ENDCHAR
STARTCHAR abb3
ENCODING 43955
SWIDTH 256 0
DWIDTH 16 0
BBX 16 16 0 -2
BITMAP
0000
0000
0000
0000
0000
0000
0000
0000
0000
0000
0000
0000
0000
0000
0000
0000
ENDCHAR
STARTCHAR abb4
ENCODING 43956
SWIDTH 256 0
DWIDTH 16 0
BBX 16 16 0 -2
BITMAP
0000
0000
0000
0000
0000
0000
0000
0000
0000
0000
0000
0000
0000
0000
0000
0000
ENDCHAR
STARTCHAR abb5
ENCODING 43957
SWIDTH 256 0
DWIDTH 16 0
BBX 16 16 0 -2
BITMAP
0000
0000
0000
0000
0000
0000
0000
0000
0000
0000
0000
0000
0000
0000
0000
0000
ENDCHAR
STARTCHAR abb6
ENCODING 43958
SWIDTH 256 0
DWIDTH 16 0
BBX 16 16 0 -2
BITMAP
0000
0000
0000
0000
0000
0000
0000
0000
0000
0000
0000
0000
0000
0000
0000
0000
ENDCHAR
STARTCHAR abb7
ENCODING 43959
SWIDTH 256 0
DWIDTH 16 0
BBX 16 16 0 -2
BITMAP
0000
0000
0000
0000
0000
0000
0000
0000
0000
0000
0000
0000
0000
0000
0000
0000
ENDCHAR
STARTCHAR abb8
ENCODING 43960
SWIDTH 256 0
DWIDTH 16 0
BBX 16 16 0 -2
BITMAP
0000
0000
0000
0000
0000
0000
0000
0000
0000
0000
0000
0000
0000
0000
0000
0000
ENDCHAR
STARTCHAR abb9
ENCODING 43961
SWIDTH 256 0
DWIDTH 16 0
BBX 16 16 0 -2
BITMAP
0000
0000
0000
0000
0000
0000
0000
0000
0000
0000
0000
0000
0000
0000
0000
0000
ENDCHAR
STARTCHAR abba
ENCODING 43962
SWIDTH 256 0
DWIDTH 16 0
BBX 16 16 0 -2
BITMAP
0000
0000
0000
0000
0000
0000
0000
0000
0000
0000
0000
0000
0000
0000
0000
0000
ENDCHAR
STARTCHAR abbb
ENCODING 43963
SWIDTH 256 0
DWIDTH 16 0
BBX 16 16 0 -2
BITMAP
0000
0000
0000
0000
0000
0000
0000
0000
0000
0000
0000
0000
0000
0000
0000
0000
ENDCHAR
STARTCHAR abbc
ENCODING 43964
SWIDTH 256 0
DWIDTH 16 0
BBX 16 16 0 -2
BITMAP
0000
0000
0000
0000
0000
0000
0000
0000
0000
0000
0000
0000
0000
0000
0000
0000
ENDCHAR
STARTCHAR abbd
ENCODING 43965
SWIDTH 256 0
DWIDTH 16 0
BBX 16 16 0 -2
BITMAP
0000
0000
0000
0000
0000
0000
0000
0000
0000
0000
0000
0000
0000
0000
0000
0000
ENDCHAR
STARTCHAR abbe
ENCODING 43966
SWIDTH 256 0
DWIDTH 16 0
BBX 16 16 0 -2
BITMAP
0000
0000
0000
0000
0000
0000
0000
0000
0000
0000
0000
0000
0000
0000
0000
0000
ENDCHAR
STARTCHAR abbf
ENCODING 43967
SWIDTH 256 0
DWIDTH 16 0
BBX 16 16 0 -2
BITMAP
0000
0000
0000
0000
0000
0000
0000
0000
0000
0000
0000
0000
0000
0000
0000
0000
ENDCHAR
STARTCHAR abc0
ENCODING 43968
SWIDTH 256 0
DWIDTH 16 0
BBX 16 16 0 -2
BITMAP
0000
0000
0000
0000
0000
0000
0000
0000
0000
0000
0000
0000
0000
0000
0000
0000
ENDCHAR
STARTCHAR abc1
ENCODING 43969
SWIDTH 256 0
DWIDTH 16 0
BBX 16 16 0 -2
BITMAP
0000
0000
0000
0000
0000
0000
0000
0000
0000
0000
0000
0000
0000
0000
0000
0000
ENDCHAR
STARTCHAR abc2
ENCODING 43970
SWIDTH 256 0
DWIDTH 16 0
BBX 16 16 0 -2
BITMAP
0000
0000
0000
0000
0000
0000
0000
0000
0000
0000
0000
0000
0000
0000
0000
0000
ENDCHAR
STARTCHAR abc3
ENCODING 43971
SWIDTH 256 0
DWIDTH 16 0
BBX 16 16 0 -2
BITMAP
0000
0000
0000
0000
0000
0000
0000
0000
0000
0000
0000
0000
0000
0000
0000
0000
ENDCHAR
STARTCHAR abc4
ENCODING 43972
SWIDTH 256 0
DWIDTH 16 0
BBX 16 16 0 -2
BITMAP
0000
0000
0000
0000
0000
0000
0000
0000
0000
0000
0000
0000
0000
0000
0000
0000
ENDCHAR
STARTCHAR abc5
ENCODING 43973
SWIDTH 256 0
DWIDTH 16 0
BBX 16 16 0 -2
BITMAP
0000
0000
0000
0000
0000
0000
0000
0000
0000
0000
0000
0000
0000
0000
0000
0000
ENDCHAR
STARTCHAR abc6
ENCODING 43974
SWIDTH 256 0
DWIDTH 16 0
BBX 16 16 0 -2
BITMAP
0000
0000
0000
0000
0000
0000
0000
0000
0000
0000
0000
0000
0000
0000
0000
0000
ENDCHAR
STARTCHAR abc7
ENCODING 43975
SWIDTH 256 0
DWIDTH 16 0
BBX 16 16 0 -2
BITMAP
0000
0000
0000
0000
0000
0000
0000
0000
0000
0000
0000
0000
0000
0000
0000
0000
ENDCHAR
STARTCHAR abc8
ENCODING 43976
SWIDTH 256 0
DWIDTH 16 0
BBX 16 16 0 -2
BITMAP
0000
0000
0000
0000
0000
0000
0000
0000
0000
0000
0000
0000
0000
0000
0000
0000
ENDCHAR
STARTCHAR abc9
ENCODING 43977
SWIDTH 256 0
DWIDTH 16 0
BBX 16 16 0 -2
BITMAP
0000
0000
0000
0000
0000
0000
0000
0000
0000
0000
0000
0000
0000
0000
0000
0000
ENDCHAR
STARTCHAR abca
ENCODING 43978
SWIDTH 256 0
DWIDTH 16 0
BBX 16 16 0 -2
BITMAP
0000
0000
0000
0000
0000
0000
0000
0000
0000
0000
0000
0000
0000
0000
0000
0000
ENDCHAR
STARTCHAR abcb
ENCODING 43979
SWIDTH 256 0
DWIDTH 16 0
BBX 16 16 0 -2
BITMAP
0000
0000
0000
0000
0000
0000
0000
0000
0000
0000
0000
0000
0000
0000
0000
0000
ENDCHAR
STARTCHAR abcc
ENCODING 43980
SWIDTH 256 0
DWIDTH 16 0
BBX 16 16 0 -2
BITMAP
0000
0000
0000
0000
0000
0000
0000
0000
0000
0000
0000
0000
0000
0000
0000
0000
ENDCHAR
STARTCHAR abcd
ENCODING 43981
SWIDTH 256 0
DWIDTH 16 0
BBX 16 16 0 -2
BITMAP
0000
0000
0000
0000
0000
0000
0000
0000
0000
0000
0000
0000
0000
0000
0000
0000
ENDCHAR
STARTCHAR abce
ENCODING 43982
SWIDTH 256 0
DWIDTH 16 0
BBX 16 16 0 -2
BITMAP
0000
0000
0000
0000
0000
0000
0000
0000
0000
0000
0000
0000
0000
0000
0000
0000
ENDCHAR
STARTCHAR abcf
ENCODING 43983
SWIDTH 256 0
DWIDTH 16 0
BBX 16 16 0 -2
BITMAP
0000
0000
0000
0000
0000
0000
0000
0000
0000
0000
0000
0000
0000
0000
0000
0000
ENDCHAR
STARTCHAR abd0
ENCODING 43984
SWIDTH 256 0
DWIDTH 16 0
BBX 16 16 0 -2
BITMAP
0000
0000
0000
0000
0000
0000
0000
0000
0000
0000
0000
0000
0000
0000
0000
0000
ENDCHAR
STARTCHAR abd1
ENCODING 43985
SWIDTH 256 0
DWIDTH 16 0
BBX 16 16 0 -2
BITMAP
0000
0000
0000
0000
0000
0000
0000
0000
0000
0000
0000
0000
0000
0000
0000
0000
ENDCHAR
STARTCHAR abd2
ENCODING 43986
SWIDTH 256 0
DWIDTH 16 0
BBX 16 16 0 -2
BITMAP
0000
0000
0000
0000
0000
0000
0000
0000
0000
0000
0000
0000
0000
0000
0000
0000
ENDCHAR
STARTCHAR abd3
ENCODING 43987
SWIDTH 256 0
DWIDTH 16 0
BBX 16 16 0 -2
BITMAP
0000
0000
0000
0000
0000
0000
0000
0000
0000
0000
0000
0000
0000
0000
0000
0000
ENDCHAR
STARTCHAR abd4
ENCODING 43988
SWIDTH 256 0
DWIDTH 16 0
BBX 16 16 0 -2
BITMAP
0000
0000
0000
0000
0000
0000
0000
0000
0000
0000
0000
0000
0000
0000
0000
0000
ENDCHAR
STARTCHAR abd5
ENCODING 43989
SWIDTH 256 0
DWIDTH 16 0
BBX 16 16 0 -2
BITMAP
0000
0000
0000
0000
0000
0000
0000
0000
0000
0000
0000
0000
0000
0000
0000
0000
ENDCHAR
STARTCHAR abd6
ENCODING 43990
SWIDTH 256 0
DWIDTH 16 0
BBX 16 16 0 -2
BITMAP
0000
0000
0000
0000
0000
0000
0000
0000
0000
0000
0000
0000
0000
0000
0000
0000
ENDCHAR
STARTCHAR abd7
ENCODING 43991
SWIDTH 256 0
DWIDTH 16 0
BBX 16 16 0 -2
BITMAP
0000
0000
0000
0000
0000
0000
0000
0000
0000
0000
0000
0000
0000
0000
0000
0000
ENDCHAR
STARTCHAR abd8
ENCODING 43992
SWIDTH 256 0
DWIDTH 16 0
BBX 16 16 0 -2
BITMAP
0000
0000
0000
0000
0000
0000
0000
0000
0000
0000
0000
0000
0000
0000
0000
0000
ENDCHAR
STARTCHAR abd9
ENCODING 43993
SWIDTH 256 0
DWIDTH 16 0
BBX 16 16 0 -2
BITMAP
0000
0000
0000
0000
0000
0000
0000
0000
0000
0000
0000
0000
0000
0000
0000
0000
ENDCHAR
STARTCHAR abda
ENCODING 43994
SWIDTH 256 0
DWIDTH 16 0
BBX 16 16 0 -2
BITMAP
0000
0000
0000
0000
0000
0000
0000
0000
0000
0000
0000
0000
0000
0000
0000
0000
ENDCHAR
STARTCHAR abdb
ENCODING 43995
SWIDTH 256 0
DWIDTH 16 0
BBX 16 16 0 -2
BITMAP
0000
0000
0000
0000
0000
0000
0000
0000
0000
0000
0000
0000
0000
0000
0000
0000
ENDCHAR
STARTCHAR abdc
ENCODING 43996
SWIDTH 256 0
DWIDTH 16 0
BBX 16 16 0 -2
BITMAP
0000
0000
0000
0000
0000
0000
0000
0000
0000
0000
0000
0000
0000
0000
0000
0000
ENDCHAR
STARTCHAR abdd
ENCODING 43997
SWIDTH 256 0
DWIDTH 16 0
BBX 16 16 0 -2
BITMAP
0000
0000
0000
0000
0000
0000
0000
0000
0000
0000
0000
0000
0000
0000
0000
0000
ENDCHAR
STARTCHAR abde
ENCODING 43998
SWIDTH 256 0
DWIDTH 16 0
BBX 16 16 0 -2
BITMAP
0000
0000
0000
0000
0000
0000
0000
0000
0000
0000
0000
0000
0000
0000
0000
0000
ENDCHAR
STARTCHAR abdf
ENCODING 43999
SWIDTH 256 0
DWIDTH 16 0
BBX 16 16 0 -2
BITMAP
0000
0000
0000
0000
0000
0000
0000
0000
0000
0000
0000
0000
0000
0000
0000
0000
ENDCHAR
STARTCHAR abe0
ENCODING 44000
SWIDTH 256 0
DWIDTH 16 0
BBX 16 16 0 -2
BITMAP
0000
0000
0000
0000
0000
0000
0000
0000
0000
0000
0000
0000
0000
0000
0000
0000
ENDCHAR
STARTCHAR abe1
ENCODING 44001
SWIDTH 256 0
DWIDTH 16 0
BBX 16 16 0 -2
BITMAP
0000
0000
0000
0000
0000
0000
0000
0000
0000
0000
0000
0000
0000
0000
0000
0000
ENDCHAR
STARTCHAR abe2
ENCODING 44002
SWIDTH 256 0
DWIDTH 16 0
BBX 16 16 0 -2
BITMAP
0000
0000
0000
0000
0000
0000
0000
0000
0000
0000
0000
0000
0000
0000
0000
0000
ENDCHAR
STARTCHAR abe3
ENCODING 44003
SWIDTH 256 0
DWIDTH 16 0
BBX 16 16 0 -2
BITMAP
0000
0000
0000
0000
0000
0000
0000
0000
0000
0000
0000
0000
0000
0000
0000
0000
ENDCHAR
STARTCHAR abe4
ENCODING 44004
SWIDTH 256 0
DWIDTH 16 0
BBX 16 16 0 -2
BITMAP
0000
0000
0000
0000
0000
0000
0000
0000
0000
0000
0000
0000
0000
0000
0000
0000
ENDCHAR
STARTCHAR abe5
ENCODING 44005
SWIDTH 256 0
DWIDTH 16 0
BBX 16 16 0 -2
BITMAP
0000
0000
0000
0000
0000
0000
0000
0000
0000
0000
0000
0000
0000
0000
0000
0000
ENDCHAR
STARTCHAR abe6
ENCODING 44006
SWIDTH 256 0
DWIDTH 16 0
BBX 16 16 0 -2
BITMAP
0000
0000
0000
0000
0000
0000
0000
0000
0000
0000
0000
0000
0000
0000
0000
0000
ENDCHAR
STARTCHAR abe7
ENCODING 44007
SWIDTH 256 0
DWIDTH 16 0
BBX 16 16 0 -2
BITMAP
0000
0000
0000
0000
0000
0000
0000
0000
0000
0000
0000
0000
0000
0000
0000
0000
ENDCHAR
STARTCHAR abe8
ENCODING 44008
SWIDTH 256 0
DWIDTH 16 0
BBX 16 16 0 -2
BITMAP
0000
0000
0000
0000
0000
0000
0000
0000
0000
0000
0000
0000
0000
0000
0000
0000
ENDCHAR
STARTCHAR abe9
ENCODING 44009
SWIDTH 256 0
DWIDTH 16 0
BBX 16 16 0 -2
BITMAP
0000
0000
0000
0000
0000
0000
0000
0000
0000
0000
0000
0000
0000
0000
0000
0000
ENDCHAR
STARTCHAR abea
ENCODING 44010
SWIDTH 256 0
DWIDTH 16 0
BBX 16 16 0 -2
BITMAP
0000
0000
0000
0000
0000
0000
0000
0000
0000
0000
0000
0000
0000
0000
0000
0000
ENDCHAR
STARTCHAR abeb
ENCODING 44011
SWIDTH 256 0
DWIDTH 16 0
BBX 16 16 0 -2
BITMAP
0000
0000
0000
0000
0000
0000
0000
0000
0000
0000
0000
0000
0000
0000
0000
0000
ENDCHAR
STARTCHAR abec
ENCODING 44012
SWIDTH 256 0
DWIDTH 16 0
BBX 16 16 0 -2
BITMAP
0000
0000
0000
0000
0000
0000
0000
0000
0000
0000
0000
0000
0000
0000
0000
0000
ENDCHAR
STARTCHAR abed
ENCODING 44013
SWIDTH 256 0
DWIDTH 16 0
BBX 16 16 0 -2
BITMAP
0000
0000
0000
0000
0000
0000
0000
0000
0000
0000
0000
0000
0000
0000
0000
0000
ENDCHAR
STARTCHAR abee
ENCODING 44014
SWIDTH 256 0
DWIDTH 16 0
BBX 16 16 0 -2
BITMAP
0000
0000
0000
0000
0000
0000
0000
0000
0000
0000
0000
0000
0000
0000
0000
0000
ENDCHAR
STARTCHAR abef
ENCODING 44015
SWIDTH 256 0
DWIDTH 16 0
BBX 16 16 0 -2
BITMAP
0000
0000
0000
0000
0000
0000
0000
0000
0000
0000
0000
0000
0000
0000
0000
0000
ENDCHAR
STARTCHAR abf0
ENCODING 44016
SWIDTH 256 0
DWIDTH 16 0
BBX 16 16 0 -2
BITMAP
0000
0000
0000
0000
0000
0000
0000
0000
0000
0000
0000
0000
0000
0000
0000
0000
ENDCHAR
STARTCHAR abf1
ENCODING 44017
SWIDTH 256 0
DWIDTH 16 0
BBX 16 16 0 -2
BITMAP
0000
0000
0000
0000
0000
0000
0000
0000
0000
0000
0000
0000
0000
0000
0000
0000
ENDCHAR
STARTCHAR abf2
ENCODING 44018
SWIDTH 256 0
DWIDTH 16 0
BBX 16 16 0 -2
BITMAP
0000
0000
0000
0000
0000
0000
0000
0000
0000
0000
0000
0000
0000
0000
0000
0000
ENDCHAR
STARTCHAR abf3
ENCODING 44019
SWIDTH 256 0
DWIDTH 16 0
BBX 16 16 0 -2
BITMAP
0000
0000
0000
0000
0000
0000
0000
0000
0000
0000
0000
0000
0000
0000
0000
0000
ENDCHAR
STARTCHAR abf4
ENCODING 44020
SWIDTH 256 0
DWIDTH 16 0
BBX 16 16 0 -2
BITMAP
0000
0000
0000
0000
0000
0000
0000
0000
0000
0000
0000
0000
0000
0000
0000
0000
ENDCHAR
STARTCHAR abf5
ENCODING 44021
SWIDTH 256 0
DWIDTH 16 0
BBX 16 16 0 -2
BITMAP
0000
0000
0000
0000
0000
0000
0000
0000
0000
0000
0000
0000
0000
0000
0000
0000
ENDCHAR
STARTCHAR abf6
ENCODING 44022
SWIDTH 256 0
DWIDTH 16 0
BBX 16 16 0 -2
BITMAP
0000
0000
0000
0000
0000
0000
0000
0000
0000
0000
0000
0000
0000
0000
0000
0000
ENDCHAR
STARTCHAR abf7
ENCODING 44023
SWIDTH 256 0
DWIDTH 16 0
BBX 16 16 0 -2
BITMAP
0000
0000
0000
0000
0000
0000
0000
0000
0000
0000
0000
0000
0000
0000
0000
0000
ENDCHAR
STARTCHAR abf8
ENCODING 44024
SWIDTH 256 0
DWIDTH 16 0
BBX 16 16 0 -2
BITMAP
0000
0000
0000
0000
0000
0000
0000
0000
0000
0000
0000
0000
0000
0000
0000
0000
ENDCHAR
STARTCHAR abf9
ENCODING 44025
SWIDTH 256 0
DWIDTH 16 0
BBX 16 16 0 -2
BITMAP
0000
0000
0000
0000
0000
0000
0000
0000
0000
0000
0000
0000
0000
0000
0000
0000
ENDCHAR
STARTCHAR abfa
ENCODING 44026
SWIDTH 256 0
DWIDTH 16 0
BBX 16 16 0 -2
BITMAP
0000
0000
0000
0000
0000
0000
0000
0000
0000
0000
0000
0000
0000
0000
0000
0000
ENDCHAR
STARTCHAR abfb
ENCODING 44027
SWIDTH 256 0
DWIDTH 16 0
BBX 16 16 0 -2
BITMAP
0000
0000
0000
0000
0000
0000
0000
0000
0000
0000
0000
0000
0000
0000
0000
0000
ENDCHAR
STARTCHAR abfc
ENCODING 44028
SWIDTH 256 0
DWIDTH 16 0
BBX 16 16 0 -2
BITMAP
0000
0000
0000
0000
0000
0000
0000
0000
0000
0000
0000
0000
0000
0000
0000
0000
ENDCHAR
STARTCHAR abfd
ENCODING 44029
SWIDTH 256 0
DWIDTH 16 0
BBX 16 16 0 -2
BITMAP
0000
0000
0000
0000
0000
0000
0000
0000
0000
0000
0000
0000
0000
0000
0000
0000
ENDCHAR
STARTCHAR abfe
ENCODING 44030
SWIDTH 256 0
DWIDTH 16 0
BBX 16 16 0 -2
BITMAP
0000
0000
0000
0000
0000
0000
0000
0000
0000
0000
0000
0000
0000
0000
0000
0000
ENDCHAR
STARTCHAR aca1
ENCODING 44193
SWIDTH 256 0
DWIDTH 16 0
BBX 16 16 0 -2
BITMAP
0000
0000
0000
0000
0000
0000
0000
0000
0000
0000
0000
0000
0000
0000
0000
0000
ENDCHAR
STARTCHAR aca2
ENCODING 44194
SWIDTH 256 0
DWIDTH 16 0
BBX 16 16 0 -2
BITMAP
0000
0000
0000
0000
0000
0000
0000
0000
0000
0000
0000
0000
0000
0000
0000
0000
ENDCHAR
STARTCHAR aca3
ENCODING 44195
SWIDTH 256 0
DWIDTH 16 0
BBX 16 16 0 -2
BITMAP
0000
0000
0000
0000
0000
0000
0000
0000
0000
0000
0000
0000
0000
0000
0000
0000
ENDCHAR
STARTCHAR aca4
ENCODING 44196
SWIDTH 256 0
DWIDTH 16 0
BBX 16 16 0 -2
BITMAP
0000
0000
0000
0000
0000
0000
0000
0000
0000
0000
0000
0000
0000
0000
0000
0000
ENDCHAR
STARTCHAR aca5
ENCODING 44197
SWIDTH 256 0
DWIDTH 16 0
BBX 16 16 0 -2
BITMAP
0000
0000
0000
0000
0000
0000
0000
0000
0000
0000
0000
0000
0000
0000
0000
0000
ENDCHAR
STARTCHAR aca6
ENCODING 44198
SWIDTH 256 0
DWIDTH 16 0
BBX 16 16 0 -2
BITMAP
0000
0000
0000
0000
0000
0000
0000
0000
0000
0000
0000
0000
0000
0000
0000
0000
ENDCHAR
STARTCHAR aca7
ENCODING 44199
SWIDTH 256 0
DWIDTH 16 0
BBX 16 16 0 -2
BITMAP
0000
0000
0000
0000
0000
0000
0000
0000
0000
0000
0000
0000
0000
0000
0000
0000
ENDCHAR
STARTCHAR aca8
ENCODING 44200
SWIDTH 256 0
DWIDTH 16 0
BBX 16 16 0 -2
BITMAP
0000
0000
0000
0000
0000
0000
0000
0000
0000
0000
0000
0000
0000
0000
0000
0000
ENDCHAR
STARTCHAR aca9
ENCODING 44201
SWIDTH 256 0
DWIDTH 16 0
BBX 16 16 0 -2
BITMAP
0000
0000
0000
0000
0000
0000
0000
0000
0000
0000
0000
0000
0000
0000
0000
0000
ENDCHAR
STARTCHAR acaa
ENCODING 44202
SWIDTH 256 0
DWIDTH 16 0
BBX 16 16 0 -2
BITMAP
0000
0000
0000
0000
0000
0000
0000
0000
0000
0000
0000
0000
0000
0000
0000
0000
ENDCHAR
STARTCHAR acab
ENCODING 44203
SWIDTH 256 0
DWIDTH 16 0
BBX 16 16 0 -2
BITMAP
0000
0000
0000
0000
0000
0000
0000
0000
0000
0000
0000
0000
0000
0000
0000
0000
ENDCHAR
STARTCHAR acac
ENCODING 44204
SWIDTH 256 0
DWIDTH 16 0
BBX 16 16 0 -2
BITMAP
0000
0000
0000
0000
0000
0000
0000
0000
0000
0000
0000
0000
0000
0000
0000
0000
ENDCHAR
STARTCHAR acad
ENCODING 44205
SWIDTH 256 0
DWIDTH 16 0
BBX 16 16 0 -2
BITMAP
0000
0000
0000
0000
0000
0000
0000
0000
0000
0000
0000
0000
0000
0000
0000
0000
ENDCHAR
STARTCHAR acae
ENCODING 44206
SWIDTH 256 0
DWIDTH 16 0
BBX 16 16 0 -2
BITMAP
0000
0000
0000
0000
0000
0000
0000
0000
0000
0000
0000
0000
0000
0000
0000
0000
ENDCHAR
STARTCHAR acaf
ENCODING 44207
SWIDTH 256 0
DWIDTH 16 0
BBX 16 16 0 -2
BITMAP
0000
0000
0000
0000
0000
0000
0000
0000
0000
0000
0000
0000
0000
0000
0000
0000
ENDCHAR
STARTCHAR acb0
ENCODING 44208
SWIDTH 256 0
DWIDTH 16 0
BBX 16 16 0 -2
BITMAP
0000
0000
0000
0000
0000
0000
0000
0000
0000
0000
0000
0000
0000
0000
0000
0000
ENDCHAR
STARTCHAR acb1
ENCODING 44209
SWIDTH 256 0
DWIDTH 16 0
BBX 16 16 0 -2
BITMAP
0000
0000
0000
0000
0000
0000
0000
0000
0000
0000
0000
0000
0000
0000
0000
0000
ENDCHAR
STARTCHAR acb2
ENCODING 44210
SWIDTH 256 0
DWIDTH 16 0
BBX 16 16 0 -2
BITMAP
0000
0000
0000
0000
0000
0000
0000
0000
0000
0000
0000
0000
0000
0000
0000
0000
ENDCHAR
STARTCHAR acb3
ENCODING 44211
SWIDTH 256 0
DWIDTH 16 0
BBX 16 16 0 -2
BITMAP
0000
0000
0000
0000
0000
0000
0000
0000
0000
0000
0000
0000
0000
0000
0000
0000
ENDCHAR
STARTCHAR acb4
ENCODING 44212
SWIDTH 256 0
DWIDTH 16 0
BBX 16 16 0 -2
BITMAP
0000
0000
0000
0000
0000
0000
0000
0000
0000
0000
0000
0000
0000
0000
0000
0000
ENDCHAR
STARTCHAR acb5
ENCODING 44213
SWIDTH 256 0
DWIDTH 16 0
BBX 16 16 0 -2
BITMAP
0000
0000
0000
0000
0000
0000
0000
0000
0000
0000
0000
0000
0000
0000
0000
0000
ENDCHAR
STARTCHAR acb6
ENCODING 44214
SWIDTH 256 0
DWIDTH 16 0
BBX 16 16 0 -2
BITMAP
0000
0000
0000
0000
0000
0000
0000
0000
0000
0000
0000
0000
0000
0000
0000
0000
ENDCHAR
STARTCHAR acb7
ENCODING 44215
SWIDTH 256 0
DWIDTH 16 0
BBX 16 16 0 -2
BITMAP
0000
0000
0000
0000
0000
0000
0000
0000
0000
0000
0000
0000
0000
0000
0000
0000
ENDCHAR
STARTCHAR acb8
ENCODING 44216
SWIDTH 256 0
DWIDTH 16 0
BBX 16 16 0 -2
BITMAP
0000
0000
0000
0000
0000
0000
0000
0000
0000
0000
0000
0000
0000
0000
0000
0000
ENDCHAR
STARTCHAR acb9
ENCODING 44217
SWIDTH 256 0
DWIDTH 16 0
BBX 16 16 0 -2
BITMAP
0000
0000
0000
0000
0000
0000
0000
0000
0000
0000
0000
0000
0000
0000
0000
0000
ENDCHAR
STARTCHAR acba
ENCODING 44218
SWIDTH 256 0
DWIDTH 16 0
BBX 16 16 0 -2
BITMAP
0000
0000
0000
0000
0000
0000
0000
0000
0000
0000
0000
0000
0000
0000
0000
0000
ENDCHAR
STARTCHAR acbb
ENCODING 44219
SWIDTH 256 0
DWIDTH 16 0
BBX 16 16 0 -2
BITMAP
0000
0000
0000
0000
0000
0000
0000
0000
0000
0000
0000
0000
0000
0000
0000
0000
ENDCHAR
STARTCHAR acbc
ENCODING 44220
SWIDTH 256 0
DWIDTH 16 0
BBX 16 16 0 -2
BITMAP
0000
0000
0000
0000
0000
0000
0000
0000
0000
0000
0000
0000
0000
0000
0000
0000
ENDCHAR
STARTCHAR acbd
ENCODING 44221
SWIDTH 256 0
DWIDTH 16 0
BBX 16 16 0 -2
BITMAP
0000
0000
0000
0000
0000
0000
0000
0000
0000
0000
0000
0000
0000
0000
0000
0000
ENDCHAR
STARTCHAR acbe
ENCODING 44222
SWIDTH 256 0
DWIDTH 16 0
BBX 16 16 0 -2
BITMAP
0000
0000
0000
0000
0000
0000
0000
0000
0000
0000
0000
0000
0000
0000
0000
0000
ENDCHAR
STARTCHAR acbf
ENCODING 44223
SWIDTH 256 0
DWIDTH 16 0
BBX 16 16 0 -2
BITMAP
0000
0000
0000
0000
0000
0000
0000
0000
0000
0000
0000
0000
0000
0000
0000
0000
ENDCHAR
STARTCHAR acc0
ENCODING 44224
SWIDTH 256 0
DWIDTH 16 0
BBX 16 16 0 -2
BITMAP
0000
0000
0000
0000
0000
0000
0000
0000
0000
0000
0000
0000
0000
0000
0000
0000
ENDCHAR
STARTCHAR acc1
ENCODING 44225
SWIDTH 256 0
DWIDTH 16 0
BBX 16 16 0 -2
BITMAP
0000
0000
0000
0000
0000
0000
0000
0000
0000
0000
0000
0000
0000
0000
0000
0000
ENDCHAR
STARTCHAR acc2
ENCODING 44226
SWIDTH 256 0
DWIDTH 16 0
BBX 16 16 0 -2
BITMAP
0000
0000
0000
0000
0000
0000
0000
0000
0000
0000
0000
0000
0000
0000
0000
0000
ENDCHAR
STARTCHAR acc3
ENCODING 44227
SWIDTH 256 0
DWIDTH 16 0
BBX 16 16 0 -2
BITMAP
0000
0000
0000
0000
0000
0000
0000
0000
0000
0000
0000
0000
0000
0000
0000
0000
ENDCHAR
STARTCHAR acc4
ENCODING 44228
SWIDTH 256 0
DWIDTH 16 0
BBX 16 16 0 -2
BITMAP
0000
0000
0000
0000
0000
0000
0000
0000
0000
0000
0000
0000
0000
0000
0000
0000
ENDCHAR
STARTCHAR acc5
ENCODING 44229
SWIDTH 256 0
DWIDTH 16 0
BBX 16 16 0 -2
BITMAP
0000
0000
0000
0000
0000
0000
0000
0000
0000
0000
0000
0000
0000
0000
0000
0000
ENDCHAR
STARTCHAR acc6
ENCODING 44230
SWIDTH 256 0
DWIDTH 16 0
BBX 16 16 0 -2
BITMAP
0000
0000
0000
0000
0000
0000
0000
0000
0000
0000
0000
0000
0000
0000
0000
0000
ENDCHAR
STARTCHAR acc7
ENCODING 44231
SWIDTH 256 0
DWIDTH 16 0
BBX 16 16 0 -2
BITMAP
0000
0000
0000
0000
0000
0000
0000
0000
0000
0000
0000
0000
0000
0000
0000
0000
ENDCHAR
STARTCHAR acc8
ENCODING 44232
SWIDTH 256 0
DWIDTH 16 0
BBX 16 16 0 -2
BITMAP
0000
0000
0000
0000
0000
0000
0000
0000
0000
0000
0000
0000
0000
0000
0000
0000
ENDCHAR
STARTCHAR acc9
ENCODING 44233
SWIDTH 256 0
DWIDTH 16 0
BBX 16 16 0 -2
BITMAP
0000
0000
0000
0000
0000
0000
0000
0000
0000
0000
0000
0000
0000
0000
0000
0000
ENDCHAR
STARTCHAR acca
ENCODING 44234
SWIDTH 256 0
DWIDTH 16 0
BBX 16 16 0 -2
BITMAP
0000
0000
0000
0000
0000
0000
0000
0000
0000
0000
0000
0000
0000
0000
0000
0000
ENDCHAR
STARTCHAR accb
ENCODING 44235
SWIDTH 256 0
DWIDTH 16 0
BBX 16 16 0 -2
BITMAP
0000
0000
0000
0000
0000
0000
0000
0000
0000
0000
0000
0000
0000
0000
0000
0000
ENDCHAR
STARTCHAR accc
ENCODING 44236
SWIDTH 256 0
DWIDTH 16 0
BBX 16 16 0 -2
BITMAP
0000
0000
0000
0000
0000
0000
0000
0000
0000
0000
0000
0000
0000
0000
0000
0000
ENDCHAR
STARTCHAR accd
ENCODING 44237
SWIDTH 256 0
DWIDTH 16 0
BBX 16 16 0 -2
BITMAP
0000
0000
0000
0000
0000
0000
0000
0000
0000
0000
0000
0000
0000
0000
0000
0000
ENDCHAR
STARTCHAR acce
ENCODING 44238
SWIDTH 256 0
DWIDTH 16 0
BBX 16 16 0 -2
BITMAP
0000
0000
0000
0000
0000
0000
0000
0000
0000
0000
0000
0000
0000
0000
0000
0000
ENDCHAR
STARTCHAR accf
ENCODING 44239
SWIDTH 256 0
DWIDTH 16 0
BBX 16 16 0 -2
BITMAP
0000
0000
0000
0000
0000
0000
0000
0000
0000
0000
0000
0000
0000
0000
0000
0000
ENDCHAR
STARTCHAR acd0
ENCODING 44240
SWIDTH 256 0
DWIDTH 16 0
BBX 16 16 0 -2
BITMAP
0000
0000
0000
0000
0000
0000
0000
0000
0000
0000
0000
0000
0000
0000
0000
0000
ENDCHAR
STARTCHAR acd1
ENCODING 44241
SWIDTH 256 0
DWIDTH 16 0
BBX 16 16 0 -2
BITMAP
0000
0000
0000
0000
0000
0000
0000
0000
0000
0000
0000
0000
0000
0000
0000
0000
ENDCHAR
STARTCHAR acd2
ENCODING 44242
SWIDTH 256 0
DWIDTH 16 0
BBX 16 16 0 -2
BITMAP
0000
0000
0000
0000
0000
0000
0000
0000
0000
0000
0000
0000
0000
0000
0000
0000
ENDCHAR
STARTCHAR acd3
ENCODING 44243
SWIDTH 256 0
DWIDTH 16 0
BBX 16 16 0 -2
BITMAP
0000
0000
0000
0000
0000
0000
0000
0000
0000
0000
0000
0000
0000
0000
0000
0000
ENDCHAR
STARTCHAR acd4
ENCODING 44244
SWIDTH 256 0
DWIDTH 16 0
BBX 16 16 0 -2
BITMAP
0000
0000
0000
0000
0000
0000
0000
0000
0000
0000
0000
0000
0000
0000
0000
0000
ENDCHAR
STARTCHAR acd5
ENCODING 44245
SWIDTH 256 0
DWIDTH 16 0
BBX 16 16 0 -2
BITMAP
0000
0000
0000
0000
0000
0000
0000
0000
0000
0000
0000
0000
0000
0000
0000
0000
ENDCHAR
STARTCHAR acd6
ENCODING 44246
SWIDTH 256 0
DWIDTH 16 0
BBX 16 16 0 -2
BITMAP
0000
0000
0000
0000
0000
0000
0000
0000
0000
0000
0000
0000
0000
0000
0000
0000
ENDCHAR
STARTCHAR acd7
ENCODING 44247
SWIDTH 256 0
DWIDTH 16 0
BBX 16 16 0 -2
BITMAP
0000
0000
0000
0000
0000
0000
0000
0000
0000
0000
0000
0000
0000
0000
0000
0000
ENDCHAR
STARTCHAR acd8
ENCODING 44248
SWIDTH 256 0
DWIDTH 16 0
BBX 16 16 0 -2
BITMAP
0000
0000
0000
0000
0000
0000
0000
0000
0000
0000
0000
0000
0000
0000
0000
0000
ENDCHAR
STARTCHAR acd9
ENCODING 44249
SWIDTH 256 0
DWIDTH 16 0
BBX 16 16 0 -2
BITMAP
0000
0000
0000
0000
0000
0000
0000
0000
0000
0000
0000
0000
0000
0000
0000
0000
ENDCHAR
STARTCHAR acda
ENCODING 44250
SWIDTH 256 0
DWIDTH 16 0
BBX 16 16 0 -2
BITMAP
0000
0000
0000
0000
0000
0000
0000
0000
0000
0000
0000
0000
0000
0000
0000
0000
ENDCHAR
STARTCHAR acdb
ENCODING 44251
SWIDTH 256 0
DWIDTH 16 0
BBX 16 16 0 -2
BITMAP
0000
0000
0000
0000
0000
0000
0000
0000
0000
0000
0000
0000
0000
0000
0000
0000
ENDCHAR
STARTCHAR acdc
ENCODING 44252
SWIDTH 256 0
DWIDTH 16 0
BBX 16 16 0 -2
BITMAP
0000
0000
0000
0000
0000
0000
0000
0000
0000
0000
0000
0000
0000
0000
0000
0000
ENDCHAR
STARTCHAR acdd
ENCODING 44253
SWIDTH 256 0
DWIDTH 16 0
BBX 16 16 0 -2
BITMAP
0000
0000
0000
0000
0000
0000
0000
0000
0000
0000
0000
0000
0000
0000
0000
0000
ENDCHAR
STARTCHAR acde
ENCODING 44254
SWIDTH 256 0
DWIDTH 16 0
BBX 16 16 0 -2
BITMAP
0000
0000
0000
0000
0000
0000
0000
0000
0000
0000
0000
0000
0000
0000
0000
0000
ENDCHAR
STARTCHAR acdf
ENCODING 44255
SWIDTH 256 0
DWIDTH 16 0
BBX 16 16 0 -2
BITMAP
0000
0000
0000
0000
0000
0000
0000
0000
0000
0000
0000
0000
0000
0000
0000
0000
ENDCHAR
STARTCHAR ace0
ENCODING 44256
SWIDTH 256 0
DWIDTH 16 0
BBX 16 16 0 -2
BITMAP
0000
0000
0000
0000
0000
0000
0000
0000
0000
0000
0000
0000
0000
0000
0000
0000
ENDCHAR
STARTCHAR ace1
ENCODING 44257
SWIDTH 256 0
DWIDTH 16 0
BBX 16 16 0 -2
BITMAP
0000
0000
0000
0000
0000
0000
0000
0000
0000
0000
0000
0000
0000
0000
0000
0000
ENDCHAR
STARTCHAR ace2
ENCODING 44258
SWIDTH 256 0
DWIDTH 16 0
BBX 16 16 0 -2
BITMAP
0000
0000
0000
0000
0000
0000
0000
0000
0000
0000
0000
0000
0000
0000
0000
0000
ENDCHAR
STARTCHAR ace3
ENCODING 44259
SWIDTH 256 0
DWIDTH 16 0
BBX 16 16 0 -2
BITMAP
0000
0000
0000
0000
0000
0000
0000
0000
0000
0000
0000
0000
0000
0000
0000
0000
ENDCHAR
STARTCHAR ace4
ENCODING 44260
SWIDTH 256 0
DWIDTH 16 0
BBX 16 16 0 -2
BITMAP
0000
0000
0000
0000
0000
0000
0000
0000
0000
0000
0000
0000
0000
0000
0000
0000
ENDCHAR
STARTCHAR ace5
ENCODING 44261
SWIDTH 256 0
DWIDTH 16 0
BBX 16 16 0 -2
BITMAP
0000
0000
0000
0000
0000
0000
0000
0000
0000
0000
0000
0000
0000
0000
0000
0000
ENDCHAR
STARTCHAR ace6
ENCODING 44262
SWIDTH 256 0
DWIDTH 16 0
BBX 16 16 0 -2
BITMAP
0000
0000
0000
0000
0000
0000
0000
0000
0000
0000
0000
0000
0000
0000
0000
0000
ENDCHAR
STARTCHAR ace7
ENCODING 44263
SWIDTH 256 0
DWIDTH 16 0
BBX 16 16 0 -2
BITMAP
0000
0000
0000
0000
0000
0000
0000
0000
0000
0000
0000
0000
0000
0000
0000
0000
ENDCHAR
STARTCHAR ace8
ENCODING 44264
SWIDTH 256 0
DWIDTH 16 0
BBX 16 16 0 -2
BITMAP
0000
0000
0000
0000
0000
0000
0000
0000
0000
0000
0000
0000
0000
0000
0000
0000
ENDCHAR
STARTCHAR ace9
ENCODING 44265
SWIDTH 256 0
DWIDTH 16 0
BBX 16 16 0 -2
BITMAP
0000
0000
0000
0000
0000
0000
0000
0000
0000
0000
0000
0000
0000
0000
0000
0000
ENDCHAR
STARTCHAR acea
ENCODING 44266
SWIDTH 256 0
DWIDTH 16 0
BBX 16 16 0 -2
BITMAP
0000
0000
0000
0000
0000
0000
0000
0000
0000
0000
0000
0000
0000
0000
0000
0000
ENDCHAR
STARTCHAR aceb
ENCODING 44267
SWIDTH 256 0
DWIDTH 16 0
BBX 16 16 0 -2
BITMAP
0000
0000
0000
0000
0000
0000
0000
0000
0000
0000
0000
0000
0000
0000
0000
0000
ENDCHAR
STARTCHAR acec
ENCODING 44268
SWIDTH 256 0
DWIDTH 16 0
BBX 16 16 0 -2
BITMAP
0000
0000
0000
0000
0000
0000
0000
0000
0000
0000
0000
0000
0000
0000
0000
0000
ENDCHAR
STARTCHAR aced
ENCODING 44269
SWIDTH 256 0
DWIDTH 16 0
BBX 16 16 0 -2
BITMAP
0000
0000
0000
0000
0000
0000
0000
0000
0000
0000
0000
0000
0000
0000
0000
0000
ENDCHAR
STARTCHAR acee
ENCODING 44270
SWIDTH 256 0
DWIDTH 16 0
BBX 16 16 0 -2
BITMAP
0000
0000
0000
0000
0000
0000
0000
0000
0000
0000
0000
0000
0000
0000
0000
0000
ENDCHAR
STARTCHAR acef
ENCODING 44271
SWIDTH 256 0
DWIDTH 16 0
BBX 16 16 0 -2
BITMAP
0000
0000
0000
0000
0000
0000
0000
0000
0000
0000
0000
0000
0000
0000
0000
0000
ENDCHAR
STARTCHAR acf0
ENCODING 44272
SWIDTH 256 0
DWIDTH 16 0
BBX 16 16 0 -2
BITMAP
0000
0000
0000
0000
0000
0000
0000
0000
0000
0000
0000
0000
0000
0000
0000
0000
ENDCHAR
STARTCHAR acf1
ENCODING 44273
SWIDTH 256 0
DWIDTH 16 0
BBX 16 16 0 -2
BITMAP
0000
0000
0000
0000
0000
0000
0000
0000
0000
0000
0000
0000
0000
0000
0000
0000
ENDCHAR
STARTCHAR acf2
ENCODING 44274
SWIDTH 256 0
DWIDTH 16 0
BBX 16 16 0 -2
BITMAP
0000
0000
0000
0000
0000
0000
0000
0000
0000
0000
0000
0000
0000
0000
0000
0000
ENDCHAR
STARTCHAR acf3
ENCODING 44275
SWIDTH 256 0
DWIDTH 16 0
BBX 16 16 0 -2
BITMAP
0000
0000
0000
0000
0000
0000
0000
0000
0000
0000
0000
0000
0000
0000
0000
0000
ENDCHAR
STARTCHAR acf4
ENCODING 44276
SWIDTH 256 0
DWIDTH 16 0
BBX 16 16 0 -2
BITMAP
0000
0000
0000
0000
0000
0000
0000
0000
0000
0000
0000
0000
0000
0000
0000
0000
ENDCHAR
STARTCHAR acf5
ENCODING 44277
SWIDTH 256 0
DWIDTH 16 0
BBX 16 16 0 -2
BITMAP
0000
0000
0000
0000
0000
0000
0000
0000
0000
0000
0000
0000
0000
0000
0000
0000
ENDCHAR
STARTCHAR acf6
ENCODING 44278
SWIDTH 256 0
DWIDTH 16 0
BBX 16 16 0 -2
BITMAP
0000
0000
0000
0000
0000
0000
0000
0000
0000
0000
0000
0000
0000
0000
0000
0000
ENDCHAR
STARTCHAR acf7
ENCODING 44279
SWIDTH 256 0
DWIDTH 16 0
BBX 16 16 0 -2
BITMAP
0000
0000
0000
0000
0000
0000
0000
0000
0000
0000
0000
0000
0000
0000
0000
0000
ENDCHAR
STARTCHAR acf8
ENCODING 44280
SWIDTH 256 0
DWIDTH 16 0
BBX 16 16 0 -2
BITMAP
0000
0000
0000
0000
0000
0000
0000
0000
0000
0000
0000
0000
0000
0000
0000
0000
ENDCHAR
STARTCHAR acf9
ENCODING 44281
SWIDTH 256 0
DWIDTH 16 0
BBX 16 16 0 -2
BITMAP
0000
0000
0000
0000
0000
0000
0000
0000
0000
0000
0000
0000
0000
0000
0000
0000
ENDCHAR
STARTCHAR acfa
ENCODING 44282
SWIDTH 256 0
DWIDTH 16 0
BBX 16 16 0 -2
BITMAP
0000
0000
0000
0000
0000
0000
0000
0000
0000
0000
0000
0000
0000
0000
0000
0000
ENDCHAR
STARTCHAR acfb
ENCODING 44283
SWIDTH 256 0
DWIDTH 16 0
BBX 16 16 0 -2
BITMAP
0000
0000
0000
0000
0000
0000
0000
0000
0000
0000
0000
0000
0000
0000
0000
0000
ENDCHAR
STARTCHAR acfc
ENCODING 44284
SWIDTH 256 0
DWIDTH 16 0
BBX 16 16 0 -2
BITMAP
0000
0000
0000
0000
0000
0000
0000
0000
0000
0000
0000
0000
0000
0000
0000
0000
ENDCHAR
STARTCHAR acfd
ENCODING 44285
SWIDTH 256 0
DWIDTH 16 0
BBX 16 16 0 -2
BITMAP
0000
0000
0000
0000
0000
0000
0000
0000
0000
0000
0000
0000
0000
0000
0000
0000
ENDCHAR
STARTCHAR acfe
ENCODING 44286
SWIDTH 256 0
DWIDTH 16 0
BBX 16 16 0 -2
BITMAP
0000
0000
0000
0000
0000
0000
0000
0000
0000
0000
0000
0000
0000
0000
0000
0000
ENDCHAR
STARTCHAR ada1
ENCODING 44449
SWIDTH 256 0
DWIDTH 16 0
BBX 16 16 0 -2
BITMAP
0000
0000
0000
0000
0000
0000
0000
0000
0000
0000
0000
0000
0000
0000
0000
0000
ENDCHAR
STARTCHAR ada2
ENCODING 44450
SWIDTH 256 0
DWIDTH 16 0
BBX 16 16 0 -2
BITMAP
0000
0000
0000
0000
0000
0000
0000
0000
0000
0000
0000
0000
0000
0000
0000
0000
ENDCHAR
STARTCHAR ada3
ENCODING 44451
SWIDTH 256 0
DWIDTH 16 0
BBX 16 16 0 -2
BITMAP
0000
0000
0000
0000
0000
0000
0000
0000
0000
0000
0000
0000
0000
0000
0000
0000
ENDCHAR
STARTCHAR ada4
ENCODING 44452
SWIDTH 256 0
DWIDTH 16 0
BBX 16 16 0 -2
BITMAP
0000
0000
0000
0000
0000
0000
0000
0000
0000
0000
0000
0000
0000
0000
0000
0000
ENDCHAR
STARTCHAR ada5
ENCODING 44453
SWIDTH 256 0
DWIDTH 16 0
BBX 16 16 0 -2
BITMAP
0000
0000
0000
0000
0000
0000
0000
0000
0000
0000
0000
0000
0000
0000
0000
0000
ENDCHAR
STARTCHAR ada6
ENCODING 44454
SWIDTH 256 0
DWIDTH 16 0
BBX 16 16 0 -2
BITMAP
0000
0000
0000
0000
0000
0000
0000
0000
0000
0000
0000
0000
0000
0000
0000
0000
ENDCHAR
STARTCHAR ada7
ENCODING 44455
SWIDTH 256 0
DWIDTH 16 0
BBX 16 16 0 -2
BITMAP
0000
0000
0000
0000
0000
0000
0000
0000
0000
0000
0000
0000
0000
0000
0000
0000
ENDCHAR
STARTCHAR ada8
ENCODING 44456
SWIDTH 256 0
DWIDTH 16 0
BBX 16 16 0 -2
BITMAP
0000
0000
0000
0000
0000
0000
0000
0000
0000
0000
0000
0000
0000
0000
0000
0000
ENDCHAR
STARTCHAR ada9
ENCODING 44457
SWIDTH 256 0
DWIDTH 16 0
BBX 16 16 0 -2
BITMAP
0000
0000
0000
0000
0000
0000
0000
0000
0000
0000
0000
0000
0000
0000
0000
0000
ENDCHAR
STARTCHAR adaa
ENCODING 44458
SWIDTH 256 0
DWIDTH 16 0
BBX 16 16 0 -2
BITMAP
0000
0000
0000
0000
0000
0000
0000
0000
0000
0000
0000
0000
0000
0000
0000
0000
ENDCHAR
STARTCHAR adab
ENCODING 44459
SWIDTH 256 0
DWIDTH 16 0
BBX 16 16 0 -2
BITMAP
0000
0000
0000
0000
0000
0000
0000
0000
0000
0000
0000
0000
0000
0000
0000
0000
ENDCHAR
STARTCHAR adac
ENCODING 44460
SWIDTH 256 0
DWIDTH 16 0
BBX 16 16 0 -2
BITMAP
0000
0000
0000
0000
0000
0000
0000
0000
0000
0000
0000
0000
0000
0000
0000
0000
ENDCHAR
STARTCHAR adad
ENCODING 44461
SWIDTH 256 0
DWIDTH 16 0
BBX 16 16 0 -2
BITMAP
0000
0000
0000
0000
0000
0000
0000
0000
0000
0000
0000
0000
0000
0000
0000
0000
ENDCHAR
STARTCHAR adae
ENCODING 44462
SWIDTH 256 0
DWIDTH 16 0
BBX 16 16 0 -2
BITMAP
0000
0000
0000
0000
0000
0000
0000
0000
0000
0000
0000
0000
0000
0000
0000
0000
ENDCHAR
STARTCHAR adaf
ENCODING 44463
SWIDTH 256 0
DWIDTH 16 0
BBX 16 16 0 -2
BITMAP
0000
0000
0000
0000
0000
0000
0000
0000
0000
0000
0000
0000
0000
0000
0000
0000
ENDCHAR
STARTCHAR adb0
ENCODING 44464
SWIDTH 256 0
DWIDTH 16 0
BBX 16 16 0 -2
BITMAP
0000
0000
0000
0000
0000
0000
0000
0000
0000
0000
0000
0000
0000
0000
0000
0000
ENDCHAR
STARTCHAR adb1
ENCODING 44465
SWIDTH 256 0
DWIDTH 16 0
BBX 16 16 0 -2
BITMAP
0000
0000
0000
0000
0000
0000
0000
0000
0000
0000
0000
0000
0000
0000
0000
0000
ENDCHAR
STARTCHAR adb2
ENCODING 44466
SWIDTH 256 0
DWIDTH 16 0
BBX 16 16 0 -2
BITMAP
0000
0000
0000
0000
0000
0000
0000
0000
0000
0000
0000
0000
0000
0000
0000
0000
ENDCHAR
STARTCHAR adb3
ENCODING 44467
SWIDTH 256 0
DWIDTH 16 0
BBX 16 16 0 -2
BITMAP
0000
0000
0000
0000
0000
0000
0000
0000
0000
0000
0000
0000
0000
0000
0000
0000
ENDCHAR
STARTCHAR adb4
ENCODING 44468
SWIDTH 256 0
DWIDTH 16 0
BBX 16 16 0 -2
BITMAP
0000
0000
0000
0000
0000
0000
0000
0000
0000
0000
0000
0000
0000
0000
0000
0000
ENDCHAR
STARTCHAR adb5
ENCODING 44469
SWIDTH 256 0
DWIDTH 16 0
BBX 16 16 0 -2
BITMAP
0000
0000
0000
0000
0000
0000
0000
0000
0000
0000
0000
0000
0000
0000
0000
0000
ENDCHAR
STARTCHAR adb6
ENCODING 44470
SWIDTH 256 0
DWIDTH 16 0
BBX 16 16 0 -2
BITMAP
0000
0000
0000
0000
0000
0000
0000
0000
0000
0000
0000
0000
0000
0000
0000
0000
ENDCHAR
STARTCHAR adb7
ENCODING 44471
SWIDTH 256 0
DWIDTH 16 0
BBX 16 16 0 -2
BITMAP
0000
0000
0000
0000
0000
0000
0000
0000
0000
0000
0000
0000
0000
0000
0000
0000
ENDCHAR
STARTCHAR adb8
ENCODING 44472
SWIDTH 256 0
DWIDTH 16 0
BBX 16 16 0 -2
BITMAP
0000
0000
0000
0000
0000
0000
0000
0000
0000
0000
0000
0000
0000
0000
0000
0000
ENDCHAR
STARTCHAR adb9
ENCODING 44473
SWIDTH 256 0
DWIDTH 16 0
BBX 16 16 0 -2
BITMAP
0000
0000
0000
0000
0000
0000
0000
0000
0000
0000
0000
0000
0000
0000
0000
0000
ENDCHAR
STARTCHAR adba
ENCODING 44474
SWIDTH 256 0
DWIDTH 16 0
BBX 16 16 0 -2
BITMAP
0000
0000
0000
0000
0000
0000
0000
0000
0000
0000
0000
0000
0000
0000
0000
0000
ENDCHAR
STARTCHAR adbb
ENCODING 44475
SWIDTH 256 0
DWIDTH 16 0
BBX 16 16 0 -2
BITMAP
0000
0000
0000
0000
0000
0000
0000
0000
0000
0000
0000
0000
0000
0000
0000
0000
ENDCHAR
STARTCHAR adbc
ENCODING 44476
SWIDTH 256 0
DWIDTH 16 0
BBX 16 16 0 -2
BITMAP
0000
0000
0000
0000
0000
0000
0000
0000
0000
0000
0000
0000
0000
0000
0000
0000
ENDCHAR
STARTCHAR adbd
ENCODING 44477
SWIDTH 256 0
DWIDTH 16 0
BBX 16 16 0 -2
BITMAP
0000
0000
0000
0000
0000
0000
0000
0000
0000
0000
0000
0000
0000
0000
0000
0000
ENDCHAR
STARTCHAR adbe
ENCODING 44478
SWIDTH 256 0
DWIDTH 16 0
BBX 16 16 0 -2
BITMAP
0000
0000
0000
0000
0000
0000
0000
0000
0000
0000
0000
0000
0000
0000
0000
0000
ENDCHAR
STARTCHAR adbf
ENCODING 44479
SWIDTH 256 0
DWIDTH 16 0
BBX 16 16 0 -2
BITMAP
0000
0000
0000
0000
0000
0000
0000
0000
0000
0000
0000
0000
0000
0000
0000
0000
ENDCHAR
STARTCHAR adc0
ENCODING 44480
SWIDTH 256 0
DWIDTH 16 0
BBX 16 16 0 -2
BITMAP
0000
0000
0000
0000
0000
0000
0000
0000
0000
0000
0000
0000
0000
0000
0000
0000
ENDCHAR
STARTCHAR adc1
ENCODING 44481
SWIDTH 256 0
DWIDTH 16 0
BBX 16 16 0 -2
BITMAP
0000
0000
0000
0000
0000
0000
0000
0000
0000
0000
0000
0000
0000
0000
0000
0000
ENDCHAR
STARTCHAR adc2
ENCODING 44482
SWIDTH 256 0
DWIDTH 16 0
BBX 16 16 0 -2
BITMAP
0000
0000
0000
0000
0000
0000
0000
0000
0000
0000
0000
0000
0000
0000
0000
0000
ENDCHAR
STARTCHAR adc3
ENCODING 44483
SWIDTH 256 0
DWIDTH 16 0
BBX 16 16 0 -2
BITMAP
0000
0000
0000
0000
0000
0000
0000
0000
0000
0000
0000
0000
0000
0000
0000
0000
ENDCHAR
STARTCHAR adc4
ENCODING 44484
SWIDTH 256 0
DWIDTH 16 0
BBX 16 16 0 -2
BITMAP
0000
0000
0000
0000
0000
0000
0000
0000
0000
0000
0000
0000
0000
0000
0000
0000
ENDCHAR
STARTCHAR adc5
ENCODING 44485
SWIDTH 256 0
DWIDTH 16 0
BBX 16 16 0 -2
BITMAP
0000
0000
0000
0000
0000
0000
0000
0000
0000
0000
0000
0000
0000
0000
0000
0000
ENDCHAR
STARTCHAR adc6
ENCODING 44486
SWIDTH 256 0
DWIDTH 16 0
BBX 16 16 0 -2
BITMAP
0000
0000
0000
0000
0000
0000
0000
0000
0000
0000
0000
0000
0000
0000
0000
0000
ENDCHAR
STARTCHAR adc7
ENCODING 44487
SWIDTH 256 0
DWIDTH 16 0
BBX 16 16 0 -2
BITMAP
0000
0000
0000
0000
0000
0000
0000
0000
0000
0000
0000
0000
0000
0000
0000
0000
ENDCHAR
STARTCHAR adc8
ENCODING 44488
SWIDTH 256 0
DWIDTH 16 0
BBX 16 16 0 -2
BITMAP
0000
0000
0000
0000
0000
0000
0000
0000
0000
0000
0000
0000
0000
0000
0000
0000
ENDCHAR
STARTCHAR adc9
ENCODING 44489
SWIDTH 256 0
DWIDTH 16 0
BBX 16 16 0 -2
BITMAP
0000
0000
0000
0000
0000
0000
0000
0000
0000
0000
0000
0000
0000
0000
0000
0000
ENDCHAR
STARTCHAR adca
ENCODING 44490
SWIDTH 256 0
DWIDTH 16 0
BBX 16 16 0 -2
BITMAP
0000
0000
0000
0000
0000
0000
0000
0000
0000
0000
0000
0000
0000
0000
0000
0000
ENDCHAR
STARTCHAR adcb
ENCODING 44491
SWIDTH 256 0
DWIDTH 16 0
BBX 16 16 0 -2
BITMAP
0000
0000
0000
0000
0000
0000
0000
0000
0000
0000
0000
0000
0000
0000
0000
0000
ENDCHAR
STARTCHAR adcc
ENCODING 44492
SWIDTH 256 0
DWIDTH 16 0
BBX 16 16 0 -2
BITMAP
0000
0000
0000
0000
0000
0000
0000
0000
0000
0000
0000
0000
0000
0000
0000
0000
ENDCHAR
STARTCHAR adcd
ENCODING 44493
SWIDTH 256 0
DWIDTH 16 0
BBX 16 16 0 -2
BITMAP
0000
0000
0000
0000
0000
0000
0000
0000
0000
0000
0000
0000
0000
0000
0000
0000
ENDCHAR
STARTCHAR adce
ENCODING 44494
SWIDTH 256 0
DWIDTH 16 0
BBX 16 16 0 -2
BITMAP
0000
0000
0000
0000
0000
0000
0000
0000
0000
0000
0000
0000
0000
0000
0000
0000
ENDCHAR
STARTCHAR adcf
ENCODING 44495
SWIDTH 256 0
DWIDTH 16 0
BBX 16 16 0 -2
BITMAP
0000
0000
0000
0000
0000
0000
0000
0000
0000
0000
0000
0000
0000
0000
0000
0000
ENDCHAR
STARTCHAR add0
ENCODING 44496
SWIDTH 256 0
DWIDTH 16 0
BBX 16 16 0 -2
BITMAP
0000
0000
0000
0000
0000
0000
0000
0000
0000
0000
0000
0000
0000
0000
0000
0000
ENDCHAR
STARTCHAR add1
ENCODING 44497
SWIDTH 256 0
DWIDTH 16 0
BBX 16 16 0 -2
BITMAP
0000
0000
0000
0000
0000
0000
0000
0000
0000
0000
0000
0000
0000
0000
0000
0000
ENDCHAR
STARTCHAR add2
ENCODING 44498
SWIDTH 256 0
DWIDTH 16 0
BBX 16 16 0 -2
BITMAP
0000
0000
0000
0000
0000
0000
0000
0000
0000
0000
0000
0000
0000
0000
0000
0000
ENDCHAR
STARTCHAR add3
ENCODING 44499
SWIDTH 256 0
DWIDTH 16 0
BBX 16 16 0 -2
BITMAP
0000
0000
0000
0000
0000
0000
0000
0000
0000
0000
0000
0000
0000
0000
0000
0000
ENDCHAR
STARTCHAR add4
ENCODING 44500
SWIDTH 256 0
DWIDTH 16 0
BBX 16 16 0 -2
BITMAP
0000
0000
0000
0000
0000
0000
0000
0000
0000
0000
0000
0000
0000
0000
0000
0000
ENDCHAR
STARTCHAR add5
ENCODING 44501
SWIDTH 256 0
DWIDTH 16 0
BBX 16 16 0 -2
BITMAP
0000
0000
0000
0000
0000
0000
0000
0000
0000
0000
0000
0000
0000
0000
0000
0000
ENDCHAR
STARTCHAR add6
ENCODING 44502
SWIDTH 256 0
DWIDTH 16 0
BBX 16 16 0 -2
BITMAP
0000
0000
0000
0000
0000
0000
0000
0000
0000
0000
0000
0000
0000
0000
0000
0000
ENDCHAR
STARTCHAR add7
ENCODING 44503
SWIDTH 256 0
DWIDTH 16 0
BBX 16 16 0 -2
BITMAP
0000
0000
0000
0000
0000
0000
0000
0000
0000
0000
0000
0000
0000
0000
0000
0000
ENDCHAR
STARTCHAR add8
ENCODING 44504
SWIDTH 256 0
DWIDTH 16 0
BBX 16 16 0 -2
BITMAP
0000
0000
0000
0000
0000
0000
0000
0000
0000
0000
0000
0000
0000
0000
0000
0000
ENDCHAR
STARTCHAR add9
ENCODING 44505
SWIDTH 256 0
DWIDTH 16 0
BBX 16 16 0 -2
BITMAP
0000
0000
0000
0000
0000
0000
0000
0000
0000
0000
0000
0000
0000
0000
0000
0000
ENDCHAR
STARTCHAR adda
ENCODING 44506
SWIDTH 256 0
DWIDTH 16 0
BBX 16 16 0 -2
BITMAP
0000
0000
0000
0000
0000
0000
0000
0000
0000
0000
0000
0000
0000
0000
0000
0000
ENDCHAR
STARTCHAR addb
ENCODING 44507
SWIDTH 256 0
DWIDTH 16 0
BBX 16 16 0 -2
BITMAP
0000
0000
0000
0000
0000
0000
0000
0000
0000
0000
0000
0000
0000
0000
0000
0000
ENDCHAR
STARTCHAR addc
ENCODING 44508
SWIDTH 256 0
DWIDTH 16 0
BBX 16 16 0 -2
BITMAP
0000
0000
0000
0000
0000
0000
0000
0000
0000
0000
0000
0000
0000
0000
0000
0000
ENDCHAR
STARTCHAR addd
ENCODING 44509
SWIDTH 256 0
DWIDTH 16 0
BBX 16 16 0 -2
BITMAP
0000
0000
0000
0000
0000
0000
0000
0000
0000
0000
0000
0000
0000
0000
0000
0000
ENDCHAR
STARTCHAR adde
ENCODING 44510
SWIDTH 256 0
DWIDTH 16 0
BBX 16 16 0 -2
BITMAP
0000
0000
0000
0000
0000
0000
0000
0000
0000
0000
0000
0000
0000
0000
0000
0000
ENDCHAR
STARTCHAR addf
ENCODING 44511
SWIDTH 256 0
DWIDTH 16 0
BBX 16 16 0 -2
BITMAP
0000
0000
0000
0000
0000
0000
0000
0000
0000
0000
0000
0000
0000
0000
0000
0000
ENDCHAR
STARTCHAR ade0
ENCODING 44512
SWIDTH 256 0
DWIDTH 16 0
BBX 16 16 0 -2
BITMAP
0000
0000
0000
0000
0000
0000
0000
0000
0000
0000
0000
0000
0000
0000
0000
0000
ENDCHAR
STARTCHAR ade1
ENCODING 44513
SWIDTH 256 0
DWIDTH 16 0
BBX 16 16 0 -2
BITMAP
0000
0000
0000
0000
0000
0000
0000
0000
0000
0000
0000
0000
0000
0000
0000
0000
ENDCHAR
STARTCHAR ade2
ENCODING 44514
SWIDTH 256 0
DWIDTH 16 0
BBX 16 16 0 -2
BITMAP
0000
0000
0000
0000
0000
0000
0000
0000
0000
0000
0000
0000
0000
0000
0000
0000
ENDCHAR
STARTCHAR ade3
ENCODING 44515
SWIDTH 256 0
DWIDTH 16 0
BBX 16 16 0 -2
BITMAP
0000
0000
0000
0000
0000
0000
0000
0000
0000
0000
0000
0000
0000
0000
0000
0000
ENDCHAR
STARTCHAR ade4
ENCODING 44516
SWIDTH 256 0
DWIDTH 16 0
BBX 16 16 0 -2
BITMAP
0000
0000
0000
0000
0000
0000
0000
0000
0000
0000
0000
0000
0000
0000
0000
0000
ENDCHAR
STARTCHAR ade5
ENCODING 44517
SWIDTH 256 0
DWIDTH 16 0
BBX 16 16 0 -2
BITMAP
0000
0000
0000
0000
0000
0000
0000
0000
0000
0000
0000
0000
0000
0000
0000
0000
ENDCHAR
STARTCHAR ade6
ENCODING 44518
SWIDTH 256 0
DWIDTH 16 0
BBX 16 16 0 -2
BITMAP
0000
0000
0000
0000
0000
0000
0000
0000
0000
0000
0000
0000
0000
0000
0000
0000
ENDCHAR
STARTCHAR ade7
ENCODING 44519
SWIDTH 256 0
DWIDTH 16 0
BBX 16 16 0 -2
BITMAP
0000
0000
0000
0000
0000
0000
0000
0000
0000
0000
0000
0000
0000
0000
0000
0000
ENDCHAR
STARTCHAR ade8
ENCODING 44520
SWIDTH 256 0
DWIDTH 16 0
BBX 16 16 0 -2
BITMAP
0000
0000
0000
0000
0000
0000
0000
0000
0000
0000
0000
0000
0000
0000
0000
0000
ENDCHAR
STARTCHAR ade9
ENCODING 44521
SWIDTH 256 0
DWIDTH 16 0
BBX 16 16 0 -2
BITMAP
0000
0000
0000
0000
0000
0000
0000
0000
0000
0000
0000
0000
0000
0000
0000
0000
ENDCHAR
STARTCHAR adea
ENCODING 44522
SWIDTH 256 0
DWIDTH 16 0
BBX 16 16 0 -2
BITMAP
0000
0000
0000
0000
0000
0000
0000
0000
0000
0000
0000
0000
0000
0000
0000
0000
ENDCHAR
STARTCHAR adeb
ENCODING 44523
SWIDTH 256 0
DWIDTH 16 0
BBX 16 16 0 -2
BITMAP
0000
0000
0000
0000
0000
0000
0000
0000
0000
0000
0000
0000
0000
0000
0000
0000
ENDCHAR
STARTCHAR adec
ENCODING 44524
SWIDTH 256 0
DWIDTH 16 0
BBX 16 16 0 -2
BITMAP
0000
0000
0000
0000
0000
0000
0000
0000
0000
0000
0000
0000
0000
0000
0000
0000
ENDCHAR
STARTCHAR aded
ENCODING 44525
SWIDTH 256 0
DWIDTH 16 0
BBX 16 16 0 -2
BITMAP
0000
0000
0000
0000
0000
0000
0000
0000
0000
0000
0000
0000
0000
0000
0000
0000
ENDCHAR
STARTCHAR adee
ENCODING 44526
SWIDTH 256 0
DWIDTH 16 0
BBX 16 16 0 -2
BITMAP
0000
0000
0000
0000
0000
0000
0000
0000
0000
0000
0000
0000
0000
0000
0000
0000
ENDCHAR
STARTCHAR adef
ENCODING 44527
SWIDTH 256 0
DWIDTH 16 0
BBX 16 16 0 -2
BITMAP
0000
0000
0000
0000
0000
0000
0000
0000
0000
0000
0000
0000
0000
0000
0000
0000
ENDCHAR
STARTCHAR adf0
ENCODING 44528
SWIDTH 256 0
DWIDTH 16 0
BBX 16 16 0 -2
BITMAP
0000
0000
0000
0000
0000
0000
0000
0000
0000
0000
0000
0000
0000
0000
0000
0000
ENDCHAR
STARTCHAR adf1
ENCODING 44529
SWIDTH 256 0
DWIDTH 16 0
BBX 16 16 0 -2
BITMAP
0000
0000
0000
0000
0000
0000
0000
0000
0000
0000
0000
0000
0000
0000
0000
0000
ENDCHAR
STARTCHAR adf2
ENCODING 44530
SWIDTH 256 0
DWIDTH 16 0
BBX 16 16 0 -2
BITMAP
0000
0000
0000
0000
0000
0000
0000
0000
0000
0000
0000
0000
0000
0000
0000
0000
ENDCHAR
ENDFONT
